<mxfile host="app.diagrams.net" modified="2021-11-16T13:41:28.519Z" agent="5.0 (Windows NT 10.0; Win64; x64) AppleWebKit/537.36 (KHTML, like Gecko) Chrome/95.0.4638.69 Safari/537.36" etag="nvML-vUFdwdhbBtrX3_r" version="15.7.1" type="github" pages="4">
  <diagram id="Mo4EWgfS6VM8OaDDuU-L" name="Page-1">
    <mxGraphModel dx="731" dy="402" grid="0" gridSize="10" guides="1" tooltips="1" connect="1" arrows="1" fold="1" page="1" pageScale="1" pageWidth="1600" pageHeight="1200" math="1" shadow="0">
      <root>
        <mxCell id="0" />
        <mxCell id="1" parent="0" />
        <mxCell id="DpVvjFUGl3h-d2AKM0as-1" value="" style="rounded=1;arcSize=5;fontFamily=Noto Serif SC;fontSource=https%3A%2F%2Ffonts.googleapis.com%2Fcss%3Ffamily%3DNoto%2BSerif%2BSC;" parent="1" vertex="1">
          <mxGeometry x="295" y="391" width="944" height="579" as="geometry" />
        </mxCell>
        <mxCell id="DpVvjFUGl3h-d2AKM0as-2" value="终端" style="rounded=1;fillColor=#f5f5f5;strokeColor=#666666;fontColor=#333333;fontSize=24;fontFamily=Noto Serif SC;fontSource=https%3A%2F%2Ffonts.googleapis.com%2Fcss%3Ffamily%3DNoto%2BSerif%2BSC;" parent="1" vertex="1">
          <mxGeometry x="358" y="434" width="109" height="54" as="geometry" />
        </mxCell>
        <mxCell id="DpVvjFUGl3h-d2AKM0as-3" value="" style="endArrow=none;dashed=1;entryX=0.25;entryY=0;entryDx=0;entryDy=0;exitX=0.25;exitY=1;exitDx=0;exitDy=0;fontFamily=Noto Serif SC;fontSource=https%3A%2F%2Ffonts.googleapis.com%2Fcss%3Ffamily%3DNoto%2BSerif%2BSC;html=1;" parent="1" source="DpVvjFUGl3h-d2AKM0as-1" target="DpVvjFUGl3h-d2AKM0as-1" edge="1">
          <mxGeometry width="50" height="50" relative="1" as="geometry">
            <mxPoint x="765" y="618" as="sourcePoint" />
            <mxPoint x="815" y="568" as="targetPoint" />
          </mxGeometry>
        </mxCell>
        <mxCell id="DpVvjFUGl3h-d2AKM0as-4" value="" style="shape=image;verticalLabelPosition=bottom;labelBackgroundColor=#ffffff;verticalAlign=top;aspect=fixed;imageAspect=0;image=data:image/svg+xml,PHN2ZyB4bWxucz0iaHR0cDovL3d3dy53My5vcmcvMjAwMC9zdmciIHhtbG5zOnhsaW5rPSJodHRwOi8vd3d3LnczLm9yZy8xOTk5L3hsaW5rIiB0PSIxNjMxMzk3MTU5NTUyIiBjbGFzcz0iaWNvbiIgdmlld0JveD0iOTcuNDQwODg3NDUxMTcxODggNi45MzgwNDQ1NDgwMzQ2NjggODI0LjMyNTE5NTMxMjUgMTAxNi43Mjg5NDI4NzEwOTM4IiB2ZXJzaW9uPSIxLjEiIHAtaWQ9IjcwNzEiIHdpZHRoPSI4MjQuMzI1MTk1MzEyNSIgaGVpZ2h0PSIxMDE2LjcyODk0Mjg3MTA5MzgiPjxkZWZzPjxzdHlsZSB0eXBlPSJ0ZXh0L2NzcyIvPjwvZGVmcz48cGF0aCBkPSJNNTEzLjg5NSAxMDIzLjY2N2wtMC4zODktMC4wMDJjLTcxLjgzLTAuNy0xMzUuNDAzLTkuMy0xODguOTU0LTI1LjU1OS01Mi4yNDYtMTUuODYyLTk2LjMzNC0zOS4zOTUtMTMxLjAzOS02OS45NDMtMzMuMTg3LTI5LjIxMy01OC4xNjUtNjUuMDc5LTc0LjI0LTEwNi42MDQtMTQuNTI3LTM3LjUyNS0yMS44NzMtODAuMDE3LTIxLjgzMi0xMjYuMjkgMC4wNjItNjkuMjc1IDE2LjM5MS0xNDcuMTQyIDQ4LjUzNS0yMzEuNDM2IDI3LjI2Ny03MS41MDUgNjUuODEtMTQ2LjYzNiAxMTEuNDY0LTIxNy4yNzEgNDEuMzgtNjQuMDIzIDg3LjY2Ny0xMjIuNjM2IDEzMC4zMzMtMTY1LjA0MyA0OS42OS00OS4zODkgOTAuNDI0LTczLjc5IDEyNC40NzctNzQuNTU3IDAuNTEtMC4wMTggMC45OTItMC4wMjcgMS41MzgtMC4wMjMgMC41MiAwIDEuMDM1IDAuMDA2IDEuNTUgMC4wMjMgMzQuMDMxIDAuNzYyIDc0LjMwMiAyNC45NzYgMTIzLjA1NiA3My45ODIgNDEuNjggNDEuODk1IDg2Ljg2MiA5OS45NTkgMTI3LjIyNSAxNjMuNDk5IDQ0LjM4NSA2OS44NzEgODEuOTA5IDE0NC4zODggMTA4LjUxOCAyMTUuNDk0IDMxLjI3MyA4My41NzIgNDcuMjk2IDE2MC45NjUgNDcuNjI0IDIzMC4wMyAwLjIyIDQ2LjQzNC02Ljc4MyA4OS4xMzEtMjAuODE0IDEyNi45MDctMTUuNTQ5IDQxLjg2MS0zOS44NDUgNzguMTMxLTcyLjIxMyAxMDcuODAxLTY4LjczOSA2My4wMDktMTczLjkzNSA5Ni4yOTItMzEyLjY4NCA5OC45MzQtMC43MTYgMC4wMzgtMS40MzUgMC4wNTgtMi4xNTUgMC4wNTh6TTUxMy44IDg2Ljk4Yy02LjY4NSAwLjk0Ny0zMS45MDMgMTIuNjM2LTc1LjE2MiA1Ni44NTQtMzkuNzAyIDQwLjU4My04Mi42NDIgOTYuMzI0LTEyMC45MSAxNTYuOTU1LTkzLjI5OSAxNDcuODIzLTE0NC4zNCAyOTYuNjExLTE0MC4wMzMgNDA4LjIxMyAyLjcxIDcwLjIyOCAyNy40NDcgMTI1LjE1MiA3My41MjMgMTYzLjI0NiA1NS43MDQgNDYuMDU0IDE0My43NDIgNzAuMDc2IDI2MS42OCA3MS40MDZsMC4yOTgtMC4wMDdjMTE1Ljg0MS0yLjAyMyAyMDIuMTk2LTI2LjgxMiAyNTYuNjY3LTczLjY3NCA0NS4xMzQtMzguODI4IDY5LjI1NS05NC41MzcgNzEuNjkzLTE2NS41NzggMy44NC0xMTEuODctNDUuOTY3LTI1OS45MjItMTM2LjY0OS00MDYuMTk0LTM3LjI3Mi02MC4xMjItNzkuMTA1LTExNS4yNzItMTE3Ljc5My0xNTUuMjkyLTQyLjA1Ny00My41MDQtNjYuNzQxLTU0Ljk5OC03My4zMTQtNTUuOTI5eiIgZmlsbD0iIzFDODZFNSIgcC1pZD0iNzA3MiIvPjxwYXRoIGQ9Ik02ODkuMTM2IDU1MC4zNzVjLTE3LjY2NiAwLTMzLjgzMS0xMS43OTItMzguNjE1LTI5LjY2OS0xNi41NjQtNjEuODk5LTg4LjQzNi0xNTkuNDc4LTExNC43My0xOTEuODU0LTEzLjkyOC0xNy4xNDgtMTEuMzE3LTQyLjMzOSA1LjgzMS01Ni4yNjcgMTcuMTQ4LTEzLjkyOSA0Mi4zNDEtMTEuMzE2IDU2LjI2NyA1LjgzMiA0LjMgNS4yOTQgMTA1LjU4NSAxMzAuNyAxMjkuOTE0IDIyMS42MDcgNS43MTEgMjEuMzQxLTYuOTYgNDMuMjcxLTI4LjMgNDguOTgxYTQwLjAyNSA0MC4wMjUgMCAwIDEtMTAuMzY3IDEuMzd6IiBmaWxsPSIjODBFMUZGIiBwLWlkPSI3MDczIi8+PC9zdmc+;fontSize=16;fontFamily=Noto Serif SC;fontSource=https%3A%2F%2Ffonts.googleapis.com%2Fcss%3Ffamily%3DNoto%2BSerif%2BSC;" parent="1" vertex="1">
          <mxGeometry x="439" y="862" width="39.76" height="49" as="geometry" />
        </mxCell>
        <mxCell id="DpVvjFUGl3h-d2AKM0as-5" value="水质监测" style="text;align=center;verticalAlign=middle;resizable=0;points=[];autosize=1;strokeColor=none;fillColor=none;fontSize=16;fontFamily=Noto Serif SC;fontSource=https%3A%2F%2Ffonts.googleapis.com%2Fcss%3Ffamily%3DNoto%2BSerif%2BSC;" parent="1" vertex="1">
          <mxGeometry x="421.88" y="921" width="74" height="22" as="geometry" />
        </mxCell>
        <mxCell id="DpVvjFUGl3h-d2AKM0as-6" value="" style="shape=image;verticalLabelPosition=bottom;labelBackgroundColor=#ffffff;verticalAlign=top;aspect=fixed;imageAspect=0;image=data:image/svg+xml,PHN2ZyB4bWxucz0iaHR0cDovL3d3dy53My5vcmcvMjAwMC9zdmciIHhtbG5zOnhsaW5rPSJodHRwOi8vd3d3LnczLm9yZy8xOTk5L3hsaW5rIiB0PSIxNjMxMzk3MTM3NDExIiBjbGFzcz0iaWNvbiIgdmlld0JveD0iMTM4LjM5OTk5Mzg5NjQ4NDM4IDY3LjM5OTk5Mzg5NjQ4NDM4IDc0Ni42OTk5NTExNzE4NzUgODkyLjA5OTk3NTU4NTkzNzUiIHZlcnNpb249IjEuMSIgcC1pZD0iNjA4MyIgd2lkdGg9Ijc0Ni42OTk5NTExNzE4NzUiIGhlaWdodD0iODkyLjA5OTk3NTU4NTkzNzUiPjxkZWZzPjxzdHlsZSB0eXBlPSJ0ZXh0L2NzcyIvPjwvZGVmcz48cGF0aCBkPSJNNjMxIDE0NS45YzIuMy02LjMgMy43LTEyLjkgMy43LTE5LjkgMC0zMi4zLTI2LjMtNTguNi01OC42LTU4LjZINDQ3LjRjLTMyLjMgMC01OC42IDI2LjMtNTguNiA1OC42IDAgNyAxLjQgMTMuNyAzLjcgMTkuOUgxMzguNHY3NC43aDc0Ni43di03NC43SDYzMXogbS0yMTEuMy0yMGMwLTE1LjMgMTIuNC0yNy43IDI3LjctMjcuN2gxMjguOGMxNS4zIDAgMjcuNyAxMi40IDI3LjcgMjcuNyAwIDcuOS0zLjQgMTQuOS04LjcgMTkuOUg0MjguNGMtNS4zLTQuOS04LjctMTItOC43LTE5Ljl6TTE2Ni43IDI3OC41djU2MGMwIDY2LjYgNTQuNSAxMjEgMTIxIDEyMWg0NDhjNjYuNiAwIDEyMS01NC41IDEyMS0xMjF2LTU2MGgtNjkweiBtMTk1LjQgNDczLjFjMCAxNC41LTExLjkgMjYuNC0yNi40IDI2LjRzLTI2LjQtMTEuOS0yNi40LTI2LjRWNDY4LjRjMC0xNC41IDExLjktMjYuNCAyNi40LTI2LjRzMjYuNCAxMS45IDI2LjQgMjYuNHYyODMuMnogbTE2NC41IDBjMCAxNC41LTExLjkgMjYuNC0yNi40IDI2LjQtMTQuNSAwLTI2LjQtMTEuOS0yNi40LTI2LjRWNDY4LjRjMC0xNC41IDExLjktMjYuNCAyNi40LTI2LjQgMTQuNSAwIDI2LjQgMTEuOSAyNi40IDI2LjR2MjgzLjJ6IG0xNjQuNCAwYzAgMTQuNS0xMS45IDI2LjQtMjYuNCAyNi40cy0yNi40LTExLjktMjYuNC0yNi40VjQ2OC40YzAtMTQuNSAxMS45LTI2LjQgMjYuNC0yNi40czI2LjQgMTEuOSAyNi40IDI2LjR2MjgzLjJ6IiBmaWxsPSIjRjBBQTFEIiBwLWlkPSI2MDg0Ii8+PC9zdmc+;fontSize=16;fontFamily=Noto Serif SC;fontSource=https%3A%2F%2Ffonts.googleapis.com%2Fcss%3Ffamily%3DNoto%2BSerif%2BSC;" parent="1" vertex="1">
          <mxGeometry x="335.17" y="777" width="53.54" height="64" as="geometry" />
        </mxCell>
        <mxCell id="DpVvjFUGl3h-d2AKM0as-7" value="" style="shape=image;verticalLabelPosition=bottom;labelBackgroundColor=#ffffff;verticalAlign=top;aspect=fixed;imageAspect=0;image=data:image/svg+xml,PHN2ZyB4bWxucz0iaHR0cDovL3d3dy53My5vcmcvMjAwMC9zdmciIHhtbG5zOnhsaW5rPSJodHRwOi8vd3d3LnczLm9yZy8xOTk5L3hsaW5rIiB0PSIxNjMxMzk3MDg2NjE4IiBjbGFzcz0iaWNvbiIgdmlld0JveD0iNjUuMzM4NzQ1MTE3MTg3NSAyMTQuOTg5OTkwMjM0Mzc1IDg5My45OTM0MDgyMDMxMjUgNTk1Ljk4OTk5MDIzNDM3NSIgdmVyc2lvbj0iMS4xIiBwLWlkPSI1MTAxIiB3aWR0aD0iODkzLjk5MzQwODIwMzEyNSIgaGVpZ2h0PSI1OTUuOTg5OTkwMjM0Mzc1Ij48ZGVmcz48c3R5bGUgdHlwZT0idGV4dC9jc3MiLz48L2RlZnM+PHBhdGggZD0iTTM4Mi42MSAyNTIuMTVsLTI0Mi43OCAyMjJ2MzM2LjgzbDQ4NC4yNi0wLjA4VjQ3OC40OXoiIGZpbGw9IiNGQjZENTEiIHAtaWQ9IjUxMDIiLz48cGF0aCBkPSJNMzI2Ljc0IDU1MC4xM2gxMTEuNzV2MjIzLjU1SDMyNi43NHoiIGZpbGw9IiM0MzRBNTQiIHAtaWQ9IjUxMDMiLz48cGF0aCBkPSJNODMuOTYgNTMxLjUyYy00Ljc3IDAtOS41Mi0xLjgzLTEzLjE4LTUuNDgtNy4yNi03LjI4LTcuMjYtMTkuMDcgMC4wMy0yNi4zM2wyOTguNjMtMjYwLjc0YzcuMjgtNy4yOCAxOS4xLTcuMjYgMjYuMzUgMC4wMyA3LjI2IDcuMjYgNy4yNiAxOS4wNy0wLjAzIDI2LjMzTDk3LjEzIDUyNi4wN2MtMy42NSAzLjYzLTguNCA1LjQ1LTEzLjE3IDUuNDV6IiBmaWxsPSIjNjQ2Qzc3IiBwLWlkPSI1MTA0Ii8+PHBhdGggZD0iTTY3OS45NyA1MzEuNTJjLTQuNzcgMC05LjU1LTEuODMtMTMuMTgtNS40OEwzNjkuNDEgMjY1LjNjLTcuMjYtNy4yOS03LjIzLTE5LjA3IDAuMDMtMjYuMzMgNy4yOC03LjI4IDE5LjEtNy4yNiAyNi4zNSAwLjAzbDI5Ny4zNSAyNjAuNzRjNy4yNiA3LjI4IDcuMjYgMTkuMDctMC4wMyAyNi4zMy0zLjYyIDMuNjMtOC40IDUuNDUtMTMuMTQgNS40NXoiIGZpbGw9IiM2NDZDNzciIHAtaWQ9IjUxMDUiLz48cGF0aCBkPSJNNjQyLjcgODEwLjk4SDEyMS4yMmMtMTAuMjkgMC0xOC42My04LjMyLTE4LjYzLTE4LjYxIDAtMTAuMzEgOC4zNS0xOC42MyAxOC42My0xOC42M0g2NDIuN2MxMC4yOSAwIDE4LjYzIDguMzIgMTguNjMgMTguNjMgMCAxMC4yOS04LjM1IDE4LjYxLTE4LjYzIDE4LjYxeiIgZmlsbD0iI0U4NTYzRiIgcC1pZD0iNTEwNiIvPjxwYXRoIGQ9Ik04ODMuNiA0NjAuMzdjLTEwMi40Mi0xMTQuNzItNjQuNDQtMjQ1LjM4LTY0LjQ0LTI0NS4zOC0xNTYuMDMgNDYuOTMtMjQ5LjIyIDE2NS42OS0yMzIuOCAzMTcuNjUgMCAwLTI2LjY1LTExLjU3LTY4LjcyLTM2LjA0LTMyLjkzIDIzNS44IDkyLjk4IDMxNC4zNyAyNDIuMzIgMzE0LjM3IDE0OS4zMSAwLjAxIDI5MS4yOS0xNjIuODEgMTIzLjY0LTM1MC42eiIgZmlsbD0iI0ZFQ0Q1NyIgcC1pZD0iNTEwNyIvPjxwYXRoIGQ9Ik01NDkuMTIgNTMyLjY0YTM2OC4yOSAzNjguMjkgMCAwIDEtMS41LTE5LjI5IDk3Ni43OTcgOTc2Ljc5NyAwIDAgMS0yOS45OC0xNi43NWMtMC45IDYuNTctMS42OSAxMy4wMS0yLjM3IDE5LjM0IDIxLjM1IDExLjI3IDMzLjg1IDE2LjcgMzMuODUgMTYuN3pNODgzLjYgNDYwLjM3Yy0xMDIuNDItMTE0LjcyLTY0LjQ0LTI0NS4zOC02NC40NC0yNDUuMzgtMTMuOTcgNC4yLTI3LjQyIDguOTgtNDAuMzUgMTQuMy02LjQ0IDM2Ljk3LTE0LjU3IDEzOS4xNCA2Ny41MiAyMzEuMDggMTYxLjg3IDE4MS4yOSAzNS4xNCAzMzkuMzEtMTA4LjE3IDM1MC4wMyA3LjIgMC4zOCAxNC40NiAwLjU3IDIxLjggMC41NyAxNDkuMzEgMC4wMSAyOTEuMjktMTYyLjgxIDEyMy42NC0zNTAuNnoiIGZpbGw9IiNGNUJBNDUiIHAtaWQ9IjUxMDgiLz48L3N2Zz4=;fontSize=16;fontFamily=Noto Serif SC;fontSource=https%3A%2F%2Ffonts.googleapis.com%2Fcss%3Ffamily%3DNoto%2BSerif%2BSC;" parent="1" vertex="1">
          <mxGeometry x="432" y="700" width="82.42" height="55" as="geometry" />
        </mxCell>
        <mxCell id="DpVvjFUGl3h-d2AKM0as-8" value="" style="shape=image;verticalLabelPosition=bottom;labelBackgroundColor=#ffffff;verticalAlign=top;aspect=fixed;imageAspect=0;image=data:image/svg+xml,PHN2ZyB4bWxucz0iaHR0cDovL3d3dy53My5vcmcvMjAwMC9zdmciIHhtbG5zOnhsaW5rPSJodHRwOi8vd3d3LnczLm9yZy8xOTk5L3hsaW5rIiB0PSIxNjMxMzk3MDQ2OTgzIiBjbGFzcz0iaWNvbiIgdmlld0JveD0iMjMuODg5MzE2NTU4ODM3ODkgMjMuNTg3OTkxNzE0NDc3NTQgMTA1Ni4zMTQwODY5MTQwNjI1IDk5Ni42NzY4MTg4NDc2NTYyIiB2ZXJzaW9uPSIxLjEiIHAtaWQ9IjQ1OTciIHdpZHRoPSIxMDU2LjMxNDA4NjkxNDA2MjUiIGhlaWdodD0iOTk2LjY3NjgxODg0NzY1NjIiPjxkZWZzPjxzdHlsZSB0eXBlPSJ0ZXh0L2NzcyIvPjwvZGVmcz48cGF0aCBkPSJNMzMuNzY3MDI0IDI0Mi4wODg1ODVhMzEuMjE5NTEyIDMxLjIxOTUxMiAwIDAgMSA1OS41OTE4MDUgMTguMzU3MDc0bC0xLjc0ODI5MiA1LjY0NDQ4N2MtMC40OTk1MTIgMS43OTgyNDQtMS4xMjM5MDIgNC4zNDU3NTYtMS43OTgyNDQgNy41NDI2MzQtOC4wNjcxMjIgMzguNDYyNDM5LTIuODIyMjQ0IDgxLjUyMDM5IDI1Ljc0OTg1MyAxMjIuNDA1NDY0IDQuMjcwODI5IDYuMTE5MDI0IDkuMDY2MTQ2IDEyLjEzODE0NiAxNC4zNjA5NzYgMTcuOTgyNDM5YTMxLjIxOTUxMiAzMS4yMTk1MTIgMCAwIDEtNDYuMzU0NzMyIDQxLjg1OTEyMiAyNDcuOTMyODc4IDI0Ny45MzI4NzggMCAwIDEtMTkuMTgxMjY4LTI0LjA1MTUxMkMyNC43MjU4NTQgMzc1LjA4MzcwNyAxNy4zODMwMjQgMzE0Ljc5MjU4NSAyOC43MjE5NTEgMjYwLjg0NTI2OGMxLjc0ODI5My04LjQ0MTc1NiAzLjYyMTQ2My0xNC43ODU1NjEgNS4wNzAwNDktMTguNzU2Njgzek0zMzMuNTQ5MjY4IDI5LjcyMDk3NmEzMS4yMTk1MTIgMzEuMjE5NTEyIDAgMCAxIDQxLjUwOTQ2NCAzLjg5NjE5NWwyLjE0NzkwMiAyLjYyMjQzOSAxNzguNDI1NzU2IDI0MS4xNjQ0ODhhMzEuMjE5NTEyIDMxLjIxOTUxMiAwIDAgMS00OC4wMDMxMjIgMzkuNzYxMTdsLTIuMTcyODc4LTIuNjIyNDM5LTE3OC40MjU3NTYtMjQxLjE2NDQ4OGEzMS4yMTk1MTIgMzEuMjE5NTEyIDAgMCAxIDYuNTE4NjM0LTQzLjY1NzM2NXpNNzI1LjYxNjM5IDQzMy4wMDIxNDZjNy40OTI2ODMgMTEuMTE0MTQ2IDE2LjIzNDE0NiAyMS4xNTQzNDEgMjYuMDc0NTM3IDMwLjE3MDUzNyAxMS45MzgzNDEgMTAuOTM5MzE3IDI0Ljc3NTgwNSAxOS44MzA2MzQgMzcuNTg4MjkzIDI2Ljc0ODg3OGw1Ljg2OTI2OCAzLjA0NzAyNGMzLjU3MTUxMiAxLjc3MzI2OCA2LjQxODczMiAzLjAyMjA0OSA4LjMxNjg3OCAzLjc3MTMxN2wxLjI0ODc4IDAuNDk5NTEzLTIwLjc1NDczMSA1OC44Njc1MTJjLTE5LjU4MDg3OC02LjkxODI0NC00Ny4wNTQwNDktMjEuNzUzNzU2LTc0LjQ3NzI2OS00Ni45MDQxOTVhMjMyLjU3Mjg3OCAyMzIuNTcyODc4IDAgMCAxLTMwLjM3MDM0MS0zMy44MTY5NzZsLTUuMzE5ODA1LTcuNTE3NjU4IDUxLjgyNDM5LTM0Ljg2NTk1MnoiIGZpbGw9IiM1QUMyRUUiIHAtaWQ9IjQ1OTgiLz48cGF0aCBkPSJNNjk2LjU0NDc4IDE4Ni45Njc0MTVhMTg5LjQxNTAyNCAxODkuNDE1MDI0IDAgMCAxIDYxLjQ4OTk1Mi04LjM2NjgzbDkuNzkwNDM5IDAuNDk5NTEzYzUwLjk1MDI0NCAxLjgyMzIyIDkxLjU4NTU2MSAxNC4zMzYgMTIyLjU1NTMxNyAzNC40OTEzMTcgMTIuNjM3NjU5IDguMjQxOTUxIDIyLjM3ODE0NiAxNi43MzM2NTkgMjkuNTk2MDk3IDI0LjcyNTg1M2wwLjg3NDE0NyAxLjAyNCAxMzAuNDIyNjM0IDkuNjQwNTg2YTMxLjIxOTUxMiAzMS4yMTk1MTIgMCAwIDEgMjguNzk2ODc4IDM0LjAxNjc4bC0wLjQ5OTUxMiAzLjI0NjgyOS0xNS42ODQ2ODMgODEuMjQ1NjU5Yy0zLjA3MiAxNS42NTk3MDctNS43NDQzOSAyOC43MjE5NTEtNi45OTMxNzEgMzMuNzQyMDQ5LTcuNjQyNTM3IDMxLjA2OTY1OS0xNy4zODMwMjQgNDcuNjc4NDM5LTM4LjIxMjY4MyA2Mi42Mzg4MjktMy43NDYzNDEgMi42OTczNjYtNy44MTczNjYgNS4zNDQ3OC0xMi44Mzc0NjMgOC4zNjY4MjktMTcuNjgyNzMyIDEwLjYzOTYxLTQ2LjAzMDA0OSAxOS43NTU3MDctODMuOTE4MDQ5IDI4LjY3MmExMTE4LjkwNzMxNyAxMTE4LjkwNzMxNyAwIDAgMS00NS4zNTU3MDcgOS41OTA2MzRsLTIxLjI1NDI0NCAzLjg5NjE5Ni0wLjc0OTI2OSAzLjk0NjE0NmExNTE0LjcyMDc4IDE1MTQuNzIwNzggMCAwIDEtOC45OTEyMTkgNDIuOTA4MDk3bC0zLjE5Njg3OCAxMy43ODY1MzdjLTYuOTkzMTcxIDI5LjQ3MTIyLTEzLjg4NjQzOSA1Mi44NzMzNjYtMjAuODc5NjEgNjkuMDA3NjEtMi4xNzI4NzggNS4wMjAwOTgtNC40MjA2ODMgOS40NjU3NTYtNi44NDMzMTcgMTMuNDExOTAyLTEyLjMzNzk1MSAyMC4wMzA0MzktMjkuNTIxMTcxIDM5LjUzNjM5LTUwLjM1MDgyOSA1OC41Njc4MDUtMTAuNjg5NTYxIDkuNzY1NDYzLTIxLjkwMzYxIDE5LjAwNjQzOS0zMy4yMTc1NjEgMjcuNTk4MDQ5bC0xNS4xODUxNzEgMTEuMDg5MTcxLTEuNTQ4NDg4IDEuMDQ4OTc1IDYuOTkzMTcxIDE5MS43NjI3MzJjLTEuMDczOTUxIDM1LjcxNTEyMi0xMy4zNjE5NTEgNTkuNzE2NjgzLTM3LjAzODgyOSA2OC45MzI2ODNsLTQuMDQ2MDQ5IDEuMzk4NjM0Yy02LjQ2ODY4MyAxLjk0ODA5OC0xMS42NjM2MSAyLjQ5NzU2MS0xNy45ODI0MzkgMi4zOTc2NTlsLTYuNDY4NjgzLTAuMjc0NzMyYy00LjY3MDQzOSAwLTEwLjA2NTE3MS0wLjY5OTMxNy0xNi45MzM0NjMtMS45OTgwNDlsLTEyLjUxMjc4MS0yLjYyMjQzOS0xNi42MDg3OC0zLjk5NjA5OC0yLjgyMjI0NC0wLjcyNDI5MmEzMS4yMTk1MTIgMzEuMjE5NTEyIDAgMCAxLTIxLjk1MzU2MS0yMC45Nzk1MTJsLTAuNzc0MjQ0LTMuMTQ2OTI3LTM0Ljc5MTAyNS0xNzUuNTUzNTYxLTMuMDQ3MDI0IDEuMzQ4NjgzYy03My40MjgyOTMgMzAuMzk1MzE3LTE1Ny40NDYyNDQgMTYuMjA5MTcxLTIxNy4wMzgwNDktMjkuMTIxNTYxbC01LjE5NDkyNy00LjA5NmMtOC42OTE1MTItNy4wNDMxMjItMjMuMDc3NDYzLTE0LjAzNjI5My00MS4yNTk3MDctMjAuMjMwMjQ0YTM1NS42NTI2ODMgMzU1LjY1MjY4MyAwIDAgMC0zMi42MTgxNDYtOS4yMTZsLTIuODQ3MjItMC42MjQzOS00NS4yODA3OCAxOTcuMDU3NTYxYy0zLjU0NjUzNyAxNS4wNjAyOTMtNy41OTI1ODUgMjYuODczNzU2LTEyLjQ4NzgwNSAzNi4yMTQ2MzRsLTIuMTcyODc4IDMuODQ2MjQ0Yy0xMS4zMTM5NTEgMTguODU2NTg1LTI1LjM1MDI0NCAyNS42OTk5MDItNDIuOTMzMDczIDI2LjE5OTQxNEgxMzkuNjEzNjU5YTEwNC4zOTgwNDkgMTA0LjM5ODA0OSAwIDAgMS01My4wNDgxOTYtMTMuODM2NDg4Yy05LjQ5MDczMi01LjQ5NDYzNC0xNi4yMzQxNDYtMTEuNDEzODU0LTIwLjQzMDA0OC0xNi4zMzQwNDhhMzEuMjE5NTEyIDMxLjIxOTUxMiAwIDAgMS03LjI0MjkyNy0xNi41NTg4M2wtMC4xOTk4MDUtMy42NzE0MTRWNTYzLjEwMDA5OGMwLTU0LjQ3MTgwNSA3LjYxNzU2MS05MS40ODU2NTkgMjIuMDI4NDg4LTExNC44MTI4NzggMTIuMjg4LTE5LjkwNTU2MSAyOC44OTY3OC0yOC44OTY3OCA0My45MDcxMjItMjguODk2NzgxIDIuNzQ3MzE3IDAgNS40OTQ2MzQgMC4zNzQ2MzQgOC4xOTIgMS4wOTg5MjcgMTA5Ljc5Mjc4IDI5Ljc0NTk1MSAyNjIuNDQzNzA3IDI2LjgyMzgwNSA0MTUuMDE5NzA3IDYuMzY4NzhhMzEuMjE5NTEyIDMxLjIxOTUxMiAwIDAgMSA4LjI5MTkwMiA2MS44ODk1NjFjLTE0OS42Mjg4NzggMjAuMDU1NDE1LTI5OC4zMzM2NTkgMjQuMDUxNTEyLTQxNS4xMTk2MDktMS45NzMwNzNsLTkuMDkxMTIyLTIuMTIyOTI3LTAuNTc0NDM5IDEuMTk4ODNjLTUuNTk0NTM3IDEyLjU4NzcwNy05LjY0MDU4NSAzNS4yMTU2MS0xMC4xNjUwNzMgNjkuNjgxOTUxbC0wLjA0OTk1MiA3LjU2NzYxdjM4My4wNTA5MjZsMi45OTcwNzMgMS4yNDg3ODFjMy4zMjE3NTYgMS4xNzM4NTQgNy4wNDMxMjIgMS45OTgwNDkgMTEuMTg5MDc0IDIuMzIyNzMyaDAuNjI0MzlsMC41MjQ0ODgtMS4yNDg3ODFhMTE4Ljg4MzkwMiAxMTguODgzOTAyIDAgMCAwIDMuODQ2MjQ0LTEyLjQ4NzgwNWwwLjk5OTAyNC00LjA0NjA0OSA1MS45OTkyMi0yMjYuMjc5MDI0YTMxLjIxOTUxMiAzMS4yMTk1MTIgMCAwIDEgMzQuODE2LTIzLjkwMTY1OGwxMS40ODg3OCAxLjg5ODE0NmMzLjU0NjUzNyAwLjY0OTM2NiA3LjYxNzU2MSAxLjQ0ODU4NSAxMi4wODgxOTUgMi4zNzI2ODMgMTcuMzU4MDQ5IDMuNTk2NDg4IDM0Ljc2NjA0OSA4LjE0MjA0OSA1MS4yIDEzLjczNjU4NSAyNC42MDA5NzYgOC4zMTY4NzggNDUuMTA1OTUxIDE4LjI4MjE0NiA2MC41NjU4NTQgMzAuODQ0ODc4IDUxLjE1MDA0OSA0MS40ODQ0ODggMTMwLjkyMjE0NiA0OS42NTE1MTIgMTg5Ljc4OTY1OCA2LjY5MzQ2NGEzMS4yMTk1MTIgMzEuMjE5NTEyIDAgMCAxIDQ4LjI3Nzg1NCAxNi4xODQxOTVsMC43NDkyNjggMi45NzIwOTcgMzkuMjg2NjM0IDE5OC4zMDYzNDIgOS4zOTA4MyAxLjk0ODA5NyA0Ljc3MDM0MSAwLjc5OTIyIDIuMDk3OTUxIDAuMDQ5OTUxIDAuMzI0NjgzLTEuNzczMjY4IDAuMzQ5NjU5LTIuNDQ3NjEgMC40NDk1NjEtNS42NDQ0ODgtNy42MTc1NjEtMjA3LjA0NzgwNWEzMS4yMTk1MTIgMzEuMjE5NTEyIDAgMCAxIDE0Ljc2MDU4NS0yNy42NzI5NzVsOC4xMTcwNzMtNS4zNDQ3ODFhNDU0Ljg4MDc4IDQ1NC44ODA3OCAwIDAgMCA0Ny45NTMxNzEtMzcuNzEzMTcxYzE2LjkwODQ4OC0xNS40MzQ5MjcgMzAuNDIwMjkzLTMwLjc2OTk1MSAzOS4yODY2MzQtNDUuMTU1OTAyIDAuNDc0NTM3LTAuNzQ5MjY4IDEuMDQ4OTc2LTEuODQ4MTk1IDEuNjk4MzQyLTMuMjQ2ODI5bDEuMDQ4OTc1LTIuMjk3NzU2YzUuMTQ0OTc2LTExLjkxMzM2NiAxMS4yMTQwNDktMzIuNTE4MjQ0IDE3LjQzMjk3Ni01OC42Njc3MDggMy4wNzItMTIuODYyNDM5IDYuMDQ0MDk4LTI2LjQ3NDE0NiA4Ljg2NjM0MS00MC4yODU2NThsMi43NDczMTctMTMuODYxNDY0YzIuMTcyODc4LTExLjA4OTE3MSAzLjc0NjM0MS0xOS43MDU3NTYgNC41NzA1MzctMjQuNTUxMDI0YTMxLjIxOTUxMiAzMS4yMTk1MTIgMCAwIDEgMjYuMDc0NTM3LTI1LjUyNTA3M2w3LjA0MzEyMi0xLjEyMzkwM2ExMjY5LjAzNTcwNyAxMjY5LjAzNTcwNyAwIDAgMCA3Ni42NzUxMjItMTUuMDg1MjY4YzMxLjcxOTAyNC03LjQ0MjczMiA1NS42OTU2MS0xNS4xNjAxOTUgNjYuMDM1NTEyLTIxLjM3OTEyMmw0Ljg0NTI2OC0yLjk5NzA3M2MxLjQyMzYxLTAuOTI0MDk4IDIuNjQ3NDE1LTEuNzQ4MjkzIDMuNzQ2MzQxLTIuNTQ3NTEyIDYuODE4MzQxLTQuOTIwMTk1IDkuMjY1OTUxLTguNTE2NjgzIDEyLjk4NzMxOC0yMi43Mjc4MDVsMS4wNDg5NzUtNC4xNzA5MjdjMC42OTkzMTctMi43OTcyNjggMS45OTgwNDktOC45NDEyNjggMy41OTY0ODgtMTYuOTgzNDE1bDExLjgxMzQ2My02MC42NDA3OC0xMDkuNjQyOTI2LTguMDkyMDk4YTMxLjIxOTUxMiAzMS4yMTk1MTIgMCAwIDEtMjMuMTUyMzkxLTEzLjA4NzIxOWwtMS44NzMxNy0yLjk0NzEyMmMwLjA0OTk1MSAwLjA0OTk1MS0wLjkyNDA5OC0xLjMyMzcwNy0zLjA0NzAyNS0zLjc0NjM0MmE4NS43NDEyNjggODUuNzQxMjY4IDAgMCAwLTE3LjY1Nzc1Ni0xNC44NjA0ODdjLTE4LjQ4MTk1MS0xMi4wMzgyNDQtNDMuMTgyODI5LTIwLjQ4LTc2Ljc1MDA0OS0yMy41NTJsLTUuNDk0NjM0LTAuNDQ5NTYxIDIuODIyMjQ0IDguNjkxNTEyYzEwLjI2NDk3NiAzMi40NjgyOTMgMTcuMDA4MzkgNjQuODYxNjU5IDE4LjUzMTkwMyA5NS44MDY0MzkgMy4zNDY3MzIgNjguMzA4MjkzLTE5LjM1NjA5OCAxMjIuNDA1NDYzLTc2LjE3NTYxIDE0OS41Mjg5NzZhMzEuMjE5NTEyIDMxLjIxOTUxMiAwIDAgMS02LjA2OTA3MyAyLjE3Mjg3OGwtNC4xOTU5MDMgMC44OTkxMjJhMTQwLjY2MjYzNCAxNDAuNjYyNjM0IDAgMCAxLTUuNzk0MzQxIDAuOTQ5MDczIDEzOC4yNjQ5NzYgMTM4LjI2NDk3NiAwIDAgMS01MS43NDk0NjQtMS42NDgzOTFjLTgxLjI5NTYxLTE5LjE4MTI2OC05Ni41ODA2ODMtMTA0LjU3Mjg3OC0yNS45MjQ2ODMtMjUyLjc1MzE3IDE0LjExMTIyLTI5LjYyMTA3MyAzOS4zMzY1ODUtNDguNTUyNTg1IDcxLjAzMDYzNC01OC42MTc3NTZ6IG0xMy41MzY3ODEgNjEuNDE1MDI0bC0zLjkyMTE3MSAxLjYyMzQxNWMtMTEuNDg4NzggNS4yNDQ4NzgtMTkuNjA1ODU0IDEyLjU4NzcwNy0yNC4zMDEyNjggMjIuNDI4MDk3LTU1Ljk0NTM2NiAxMTcuMzYwMzktNDguNzUyMzkgMTU3LjQyMTI2OC0xNi4wNTkzMTcgMTY1LjEzODczMiA2LjkxODI0NCAxLjY0ODM5IDE0LjgzNTUxMiAxLjk0ODA5OCAyMi42MDI5MjcgMS4yOTg3MzJsNS43NjkzNjYtMC42NzQzNDIgMS4zNDg2ODItMC4yMjQ3OCAwLjg0OTE3MS0wLjQyNDU4NmMyNi4xNDk0NjMtMTQuNDYwODc4IDM3LjcxMzE3MS00MS43MDkyNjggMzYuODg4OTc2LTgxLjkybC0wLjE5OTgwNS02LjExOTAyNGMtMS4yMjM4MDUtMjQuOTAwNjgzLTYuOTE4MjQ0LTUyLjI5ODkyNy0xNS43MDk2NTktODAuMDQ2ODI5YTQ0Ni4wMTQ0MzkgNDQ2LjAxNDQzOSAwIDAgMC01LjQ5NDYzNC0xNi4yNTkxMjJsLTEuNzczMjY4LTQuODIwMjkzeiIgZmlsbD0iIzVBQzJFRSIgcC1pZD0iNDU5OSIvPjwvc3ZnPg==;fontSize=16;fontFamily=Noto Serif SC;fontSource=https%3A%2F%2Ffonts.googleapis.com%2Fcss%3Ffamily%3DNoto%2BSerif%2BSC;" parent="1" vertex="1">
          <mxGeometry x="436.2" y="520" width="72.01" height="68" as="geometry" />
        </mxCell>
        <mxCell id="DpVvjFUGl3h-d2AKM0as-9" value="" style="shape=image;verticalLabelPosition=bottom;labelBackgroundColor=#ffffff;verticalAlign=top;aspect=fixed;imageAspect=0;image=data:image/svg+xml,PHN2ZyB4bWxucz0iaHR0cDovL3d3dy53My5vcmcvMjAwMC9zdmciIHhtbG5zOnhsaW5rPSJodHRwOi8vd3d3LnczLm9yZy8xOTk5L3hsaW5rIiB0PSIxNjMxMzk3MTE1MjYxIiBjbGFzcz0iaWNvbiIgdmlld0JveD0iMTM4LjIyMjkxNTY0OTQxNDA2IDAgNzQ3LjU1NDE5OTIxODc1IDEwMjQiIHZlcnNpb249IjEuMSIgcC1pZD0iNTMzMSIgd2lkdGg9Ijc0Ny41NTQxOTkyMTg3NSIgaGVpZ2h0PSIxMDI0Ij48ZGVmcz48c3R5bGUgdHlwZT0idGV4dC9jc3MiLz48L2RlZnM+PHBhdGggZD0iTTE1OS4wNjQ3MjQgMjAuODQxODE0bDcwNS44NzA1NTIgMCAwIDk1MC4zODY3MTMtNzA1Ljg3MDU1MiAwIDAtOTUwLjM4NjcxM1oiIGZpbGw9IiNGQUI5NTIiIHAtaWQ9IjUzMzIiLz48cGF0aCBkPSJNODE0LjkxNDkyMyA5OTIuMDcwMzQxSDIwOS4wODUwNzdhNzAuOTQ1NTM0IDcwLjk0NTUzNCAwIDAgMS03MC44NjIxNjctNzAuODYyMTY3VjcwLjg2MjE2N0E3MC45NDU1MzQgNzAuOTQ1NTM0IDAgMCAxIDIwOS4wODUwNzcgMGg2MDUuODI5ODQ2YTcwLjk0NTUzNCA3MC45NDU1MzQgMCAwIDEgNzAuODYyMTY3IDcwLjg2MjE2N3Y4NTAuMzQ2MDA3YTcwLjk0NTUzNCA3MC45NDU1MzQgMCAwIDEtNzAuODYyMTY3IDcwLjg2MjE2N3pNMjA5LjA4NTA3NyA0MS42ODM2MjhBMjkuMTc4NTM5IDI5LjE3ODUzOSAwIDAgMCAxNzkuOTA2NTM3IDcwLjg2MjE2N3Y4NTAuMzQ2MDA3YTI5LjE3ODUzOSAyOS4xNzg1MzkgMCAwIDAgMjkuMTc4NTQgMjkuMTc4NTM5aDYwNS44Mjk4NDZhMjkuMTc4NTM5IDI5LjE3ODUzOSAwIDAgMCAyOS4xNzg1NC0yOS4xNzg1MzlWNzAuODYyMTY3YTI5LjE3ODUzOSAyOS4xNzg1MzkgMCAwIDAtMjkuMTc4NTQtMjkuMTc4NTM5eiIgZmlsbD0iIzY2NjY2NiIgcC1pZD0iNTMzMyIvPjxwYXRoIGQ9Ik02NzUuOTQxNzA4IDIwLjg0MTgxNHY5NTAuMzg2NzEzIiBmaWxsPSIjRkZGRkZGIiBwLWlkPSI1MzM0Ii8+PHBhdGggZD0iTTY3NS45NDE3MDggOTkyLjA3MDM0MWEyMC44NDE4MTQgMjAuODQxODE0IDAgMCAxLTIwLjg0MTgxNC0yMC44NDE4MTRWMjAuODQxODE0YTIwLjg0MTgxNCAyMC44NDE4MTQgMCAwIDEgNDEuNjgzNjI4IDB2OTUwLjM4NjcxM2EyMC44NDE4MTQgMjAuODQxODE0IDAgMCAxLTIwLjg0MTgxNCAyMC44NDE4MTR6IiBmaWxsPSIjNjY2NjY2IiBwLWlkPSI1MzM1Ii8+PHBhdGggZD0iTTMxNy4wNDU2NzMgMTk3LjE2MzU1OXYzNC4wMTM4NDFhMTA2LjYyNjcyIDEwNi42MjY3MiAwIDEgMCAyMTMuMTcwMDcyIDB2LTM0LjAxMzg0MXoiIGZpbGw9IiNFQkU1REYiIHAtaWQ9IjUzMzYiLz48cGF0aCBkPSJNNDIzLjY3MjM5MyAzNTguNDc5MTk5QTEyNy42MzUyNjggMTI3LjYzNTI2OCAwIDAgMSAyOTYuNjIwNjk1IDIzMS4xNzc0di0zNC4wMTM4NDFhMjAuODQxODE0IDIwLjg0MTgxNCAwIDAgMSAyMC44NDE4MTQtMjAuODQxODEzSDUzMC4wNDkwMTFhMjAuNzU4NDQ3IDIwLjc1ODQ0NyAwIDAgMSAyMC44NDE4MTQgMjAuODQxODEzdjM0LjAxMzg0MUExMjcuNTUxOTAxIDEyNy41NTE5MDEgMCAwIDEgNDIzLjY3MjM5MyAzNTguNDc5MTk5ek0zMzguMzA0MzIzIDIxOC4wMDUzNzN2MTMuMTcyMDI3YTg1Ljc4NDkwNiA4NS43ODQ5MDYgMCAxIDAgMTcxLjQ4NjQ0NSAwdi0xMy4xNzIwMjd6IiBmaWxsPSIjNjY2NjY2IiBwLWlkPSI1MzM3Ii8+PHBhdGggZD0iTTI0MS42ODE2NzQgNjI4LjAwNTUzNmwzNjIuNzMwOTI5IDAgMCAyNjguODU5Mzk5LTM2Mi43MzA5MjkgMCAwLTI2OC44NTkzOTlaIiBmaWxsPSIjRUJFNURGIiBwLWlkPSI1MzM4Ii8+PHBhdGggZD0iTTU3OS40MDI0MjYgOTE3LjcwNjc0OUgyNjYuNjkxODUxYTQ1Ljg1MTk5MSA0NS44NTE5OTEgMCAwIDEtNDUuODUxOTkxLTQ1Ljg1MTk5VjY1My4wMTU3MTNhNDUuOTM1MzU4IDQ1LjkzNTM1OCAwIDAgMSA0NS44NTE5OTEtNDUuODUxOTkxaDMxMi43MTA1NzVhNDUuOTM1MzU4IDQ1LjkzNTM1OCAwIDAgMSA0NS44NTE5OTEgNDUuODUxOTkxdjIxOC44MzkwNDZhNDUuODUxOTkxIDQ1Ljg1MTk5MSAwIDAgMS00NS44NTE5OTEgNDUuODUxOTl6TTI2Ni42OTE4NTEgNjQ4Ljg0NzM1YTQuMjUxNzMgNC4yNTE3MyAwIDAgMC00LjE2ODM2MyA0LjE2ODM2M3YyMTguODM5MDQ2YTQuMTY4MzYzIDQuMTY4MzYzIDAgMCAwIDQuMTY4MzYzIDQuMTY4MzYyaDMxMi43MTA1NzVhNC4xNjgzNjMgNC4xNjgzNjMgMCAwIDAgNC4xNjgzNjMtNC4xNjgzNjJWNjUzLjAxNTcxM2E0LjE2ODM2MyA0LjE2ODM2MyAwIDAgMC00LjE2ODM2My00LjE2ODM2M3oiIGZpbGw9IiM2NjY2NjYiIHAtaWQ9IjUzMzkiLz48cGF0aCBkPSJNNDg5Ljk0OTM2MSA4OTYuODY0OTM1SDM1Ny4zMTIwNTdsLTI0LjM0MzIzOC0xODMuOTkxNTMzYTQuMDg0OTk2IDQuMDg0OTk2IDAgMCAxIDQuMDg0OTk1LTQuNjY4NTY2aDE3My4yMzcxNTdhNC4wODQ5OTYgNC4wODQ5OTYgMCAwIDEgNC4wODQ5OTYgNC42Njg1NjZ6IiBmaWxsPSIjRjk4MDAzIiBwLWlkPSI1MzQwIi8+PHBhdGggZD0iTTQ4OS45NDkzNjEgOTE3LjcwNjc0OUgzNTcuMzEyMDU3YTIwLjg0MTgxNCAyMC44NDE4MTQgMCAwIDEtMjAuNjc1MDc5LTE4LjA5MDY5NGwtMjQuMzQzMjM5LTE4My45OTE1MzNhMjUuMDEwMTc3IDI1LjAxMDE3NyAwIDAgMSAyNS4wMTAxNzctMjguMjYxNWgxNzIuOTg3MDU1YTI1LjAxMDE3NyAyNS4wMTAxNzcgMCAwIDEgMjUuMDEwMTc3IDI4LjI2MTVsLTI0LjQyNjYwNiAxODMuOTkxNTMzYTIwLjc1ODQ0NyAyMC43NTg0NDcgMCAwIDEtMjAuOTI1MTgxIDE4LjA5MDY5NHogbS0xMTQuMzc5ODc1LTQxLjY4MzYyOEg0NzEuNjkxOTMybDE5LjUwNzkzOC0xNDYuOTc2NDcxaC0xMzUuMDU0OTU0eiIgZmlsbD0iIzY2NjY2NiIgcC1pZD0iNTM0MSIvPjxwYXRoIGQ9Ik00MjYuOTIzNzE2IDYyOC4wMDU1MzZ2MzAuNDI5MDQ4IiBmaWxsPSIjRkZGRkZGIiBwLWlkPSI1MzQyIi8+PHBhdGggZD0iTTQyNi44NDAzNDggNjc5LjI3NjM5OGEyMC44NDE4MTQgMjAuODQxODE0IDAgMCAxLTIwLjg0MTgxMy0yMC44NDE4MTR2LTMwLjQyOTA0OGEyMC44NDE4MTQgMjAuODQxODE0IDAgMCAxIDQxLjY4MzYyNyAwVjY1OC42MDEzMTlhMjAuNzU4NDQ3IDIwLjc1ODQ0NyAwIDAgMS0yMC44NDE4MTQgMjAuNjc1MDc5eiIgZmlsbD0iIzY2NjY2NiIgcC1pZD0iNTM0MyIvPjxwYXRoIGQ9Ik03MjMuMjEwOTQyIDMzNC44ODYyNjZoOTEuNzAzOTgxIiBmaWxsPSIjRkZGRkZGIiBwLWlkPSI1MzQ0Ii8+PHBhdGggZD0iTTgxNC45MTQ5MjMgMzU1LjcyODA3OWgtOTEuNzAzOTgxYTIwLjg0MTgxNCAyMC44NDE4MTQgMCAwIDEgMC00MS42ODM2MjdoOTEuNzAzOTgxYTIwLjg0MTgxNCAyMC44NDE4MTQgMCAwIDEgMCA0MS42ODM2Mjd6IiBmaWxsPSIjNjY2NjY2IiBwLWlkPSI1MzQ1Ii8+PHBhdGggZD0iTTc2OS4wNjI5MzMgNjI3LjA4ODQ5Nm0tNDcuMTg1ODY3IDBhNDcuMTg1ODY3IDQ3LjE4NTg2NyAwIDEgMCA5NC4zNzE3MzMgMCA0Ny4xODU4NjcgNDcuMTg1ODY3IDAgMSAwLTk0LjM3MTczMyAwWiIgZmlsbD0iI0JGQUI5MCIgcC1pZD0iNTM0NiIvPjxwYXRoIGQ9Ik03NjkuMDYyOTMzIDY5NS4xMTYxNzdhNjguMDI3NjgxIDY4LjAyNzY4MSAwIDEgMSA2Ny45NDQzMTMtNjguMDI3NjgxIDY4LjExMTA0OCA2OC4xMTEwNDggMCAwIDEtNjcuOTQ0MzEzIDY4LjAyNzY4MXogbTAtOTQuMjg4MzY2YTI2LjM0NDA1MyAyNi4zNDQwNTMgMCAxIDAgMjYuMjYwNjg1IDI2LjI2MDY4NSAyNi4zNDQwNTMgMjYuMzQ0MDUzIDAgMCAwLTI2LjI2MDY4NS0yNi4yNjA2ODV6IiBmaWxsPSIjNjY2NjY2IiBwLWlkPSI1MzQ3Ii8+PHBhdGggZD0iTTIyNS44NDE4OTUgOTcxLjIyODUyN2g0Mi45MzQxMzd2MjguMDExMzk4YTQuMDAxNjI4IDQuMDAxNjI4IDAgMCAxLTQuMDAxNjI4IDQuMDAxNjI4SDIyOS45MjY4OTFhNC4wMDE2MjggNC4wMDE2MjggMCAwIDEtNC4wMDE2MjgtNC4wMDE2Mjh2LTI4LjAxMTM5OGgtMC4wODMzNjh6IiBmaWxsPSIjQkZBQjkwIiBwLWlkPSI1MzQ4Ii8+PHBhdGggZD0iTTI2NC44NTc3NzEgMTAyNEgyMjkuOTI2ODkxYTI1LjAxMDE3NyAyNS4wMTAxNzcgMCAwIDEtMjUuMDEwMTc3LTI1LjAxMDE3N3YtMjcuNzYxMjk2YTIwLjg0MTgxNCAyMC44NDE4MTQgMCAwIDEgMjAuODQxODE0LTIwLjg0MTgxNGg0Mi45MzQxMzdhMjAuODQxODE0IDIwLjg0MTgxNCAwIDAgMSAyMC44NDE4MTQgMjAuODQxODE0djI4LjAxMTM5OGEyNS4wMTAxNzcgMjUuMDEwMTc3IDAgMCAxLTI0LjY3NjcwOCAyNC43NjAwNzV6IiBmaWxsPSIjNjY2NjY2IiBwLWlkPSI1MzQ5Ii8+PHBhdGggZD0iTTc1My4yMjMxNTQgOTcxLjIyODUyN2g0Mi45MzQxMzd2MjguMDExMzk4YTQuMDAxNjI4IDQuMDAxNjI4IDAgMCAxLTQuMDAxNjI5IDQuMDAxNjI4aC0zNS4wMTQyNDdhNC4wMDE2MjggNC4wMDE2MjggMCAwIDEtNC4wMDE2MjgtNC4wMDE2Mjh2LTI4LjAxMTM5OGgwLjA4MzM2N3oiIGZpbGw9IiNCRkFCOTAiIHAtaWQ9IjUzNTAiLz48cGF0aCBkPSJNNzkyLjE1NTY2MiAxMDI0aC0zNC45MzA4OGEyNS4wMTAxNzcgMjUuMDEwMTc3IDAgMCAxLTI1LjAxMDE3Ni0yNS4wMTAxNzd2LTI3Ljc2MTI5NmEyMC44NDE4MTQgMjAuODQxODE0IDAgMCAxIDIwLjg0MTgxMy0yMC44NDE4MTRoNDIuOTM0MTM3YTIwLjg0MTgxNCAyMC44NDE4MTQgMCAwIDEgMjAuODQxODE0IDIwLjg0MTgxNHYyOC4wMTEzOThhMjUuMDEwMTc3IDI1LjAxMDE3NyAwIDAgMS0yNC42NzY3MDggMjQuNzYwMDc1eiIgZmlsbD0iIzY2NjY2NiIgcC1pZD0iNTM1MSIvPjwvc3ZnPg==;fontSize=16;fontFamily=Noto Serif SC;fontSource=https%3A%2F%2Ffonts.googleapis.com%2Fcss%3Ffamily%3DNoto%2BSerif%2BSC;" parent="1" vertex="1">
          <mxGeometry x="335.16999999999996" y="618" width="45.2" height="61.85" as="geometry" />
        </mxCell>
        <mxCell id="DpVvjFUGl3h-d2AKM0as-10" value="宠物定位" style="text;align=center;verticalAlign=middle;resizable=0;points=[];autosize=1;strokeColor=none;fillColor=none;fontSize=16;fontFamily=Noto Serif SC;fontSource=https%3A%2F%2Ffonts.googleapis.com%2Fcss%3Ffamily%3DNoto%2BSerif%2BSC;" parent="1" vertex="1">
          <mxGeometry x="428.2" y="600" width="74" height="22" as="geometry" />
        </mxCell>
        <mxCell id="DpVvjFUGl3h-d2AKM0as-11" value="自动售货机" style="text;align=center;verticalAlign=middle;resizable=0;points=[];autosize=1;strokeColor=none;fillColor=none;fontSize=16;fontFamily=Noto Serif SC;fontSource=https%3A%2F%2Ffonts.googleapis.com%2Fcss%3Ffamily%3DNoto%2BSerif%2BSC;" parent="1" vertex="1">
          <mxGeometry x="314.53999999999996" y="689" width="90" height="22" as="geometry" />
        </mxCell>
        <mxCell id="DpVvjFUGl3h-d2AKM0as-12" value="火灾报警" style="text;align=center;verticalAlign=middle;resizable=0;points=[];autosize=1;strokeColor=none;fillColor=none;fontSize=16;fontFamily=Noto Serif SC;fontSource=https%3A%2F%2Ffonts.googleapis.com%2Fcss%3Ffamily%3DNoto%2BSerif%2BSC;" parent="1" vertex="1">
          <mxGeometry x="429.2" y="767" width="74" height="22" as="geometry" />
        </mxCell>
        <mxCell id="DpVvjFUGl3h-d2AKM0as-13" value="垃圾监管" style="text;align=center;verticalAlign=middle;resizable=0;points=[];autosize=1;strokeColor=none;fillColor=none;fontSize=16;fontFamily=Noto Serif SC;fontSource=https%3A%2F%2Ffonts.googleapis.com%2Fcss%3Ffamily%3DNoto%2BSerif%2BSC;" parent="1" vertex="1">
          <mxGeometry x="324.94" y="852" width="74" height="22" as="geometry" />
        </mxCell>
        <mxCell id="DpVvjFUGl3h-d2AKM0as-14" value="" style="endArrow=none;dashed=1;entryX=0.5;entryY=0;entryDx=0;entryDy=0;exitX=0.5;exitY=1;exitDx=0;exitDy=0;fontFamily=Noto Serif SC;fontSource=https%3A%2F%2Ffonts.googleapis.com%2Fcss%3Ffamily%3DNoto%2BSerif%2BSC;html=1;" parent="1" source="DpVvjFUGl3h-d2AKM0as-1" target="DpVvjFUGl3h-d2AKM0as-1" edge="1">
          <mxGeometry width="50" height="50" relative="1" as="geometry">
            <mxPoint x="772" y="980" as="sourcePoint" />
            <mxPoint x="772" y="401" as="targetPoint" />
          </mxGeometry>
        </mxCell>
        <mxCell id="DpVvjFUGl3h-d2AKM0as-15" value="网关" style="rounded=1;fillColor=#f5f5f5;strokeColor=#666666;fontColor=#333333;fontSize=24;fontFamily=Noto Serif SC;fontSource=https%3A%2F%2Ffonts.googleapis.com%2Fcss%3Ffamily%3DNoto%2BSerif%2BSC;" parent="1" vertex="1">
          <mxGeometry x="601" y="434" width="109" height="54" as="geometry" />
        </mxCell>
        <mxCell id="DpVvjFUGl3h-d2AKM0as-28" value="" style="edgeStyle=orthogonalEdgeStyle;orthogonalLoop=1;jettySize=auto;rounded=1;endArrow=none;endFill=0;fontFamily=Noto Serif SC;fontSource=https%3A%2F%2Ffonts.googleapis.com%2Fcss%3Ffamily%3DNoto%2BSerif%2BSC;html=1;" parent="1" source="DpVvjFUGl3h-d2AKM0as-16" edge="1">
          <mxGeometry relative="1" as="geometry">
            <mxPoint x="714" y="842" as="targetPoint" />
            <Array as="points">
              <mxPoint x="745" y="616" />
              <mxPoint x="745" y="842" />
              <mxPoint x="714" y="842" />
            </Array>
          </mxGeometry>
        </mxCell>
        <mxCell id="DpVvjFUGl3h-d2AKM0as-16" value="" style="shape=image;verticalLabelPosition=bottom;labelBackgroundColor=#ffffff;verticalAlign=top;aspect=fixed;imageAspect=0;image=data:image/svg+xml,PHN2ZyB4bWxucz0iaHR0cDovL3d3dy53My5vcmcvMjAwMC9zdmciIHhtbG5zOnhsaW5rPSJodHRwOi8vd3d3LnczLm9yZy8xOTk5L3hsaW5rIiB0PSIxNjMxMzk3ODA5NjczIiBjbGFzcz0iaWNvbiIgdmlld0JveD0iODggNTYgODQ4IDkwNCIgdmVyc2lvbj0iMS4xIiBwLWlkPSIxMDA5NCIgd2lkdGg9Ijg0OCIgaGVpZ2h0PSI5MDQiPjxkZWZzPjxzdHlsZSB0eXBlPSJ0ZXh0L2NzcyIvPjwvZGVmcz48cGF0aCBkPSJNMjAwIDQ0OGg2MjRjNjEuODU2IDAgMTEyIDUwLjE0NCAxMTIgMTEydjI4OGMwIDYxLjg1Ni01MC4xNDQgMTEyLTExMiAxMTJIMjAwYy02MS44NTYgMC0xMTItNTAuMTQ0LTExMi0xMTJWNTYwYzAtNjEuODU2IDUwLjE0NC0xMTIgMTEyLTExMnogbTAgNDhhNjQgNjQgMCAwIDAtNjQgNjR2Mjg4YTY0IDY0IDAgMCAwIDY0IDY0aDYyNGE2NCA2NCAwIDAgMCA2NC02NFY1NjBhNjQgNjQgMCAwIDAtNjQtNjRIMjAweiIgcC1pZD0iMTAwOTUiLz48cGF0aCBkPSJNMjAwIDU5Mmg4OHY4OEgyMDB6IiBwLWlkPSIxMDA5NiIvPjxwYXRoIGQ9Ik0yMDggNTZtMjQgMGwwIDBxMjQgMCAyNCAyNGwwIDM2OHEwIDI0LTI0IDI0bDAgMHEtMjQgMC0yNC0yNGwwLTM2OHEwLTI0IDI0LTI0WiIgcC1pZD0iMTAwOTciLz48cGF0aCBkPSJNNzc2IDY0bTI0IDBsMCAwcTI0IDAgMjQgMjRsMCAzNjhxMCAyNC0yNCAyNGwwIDBxLTI0IDAtMjQtMjRsMC0zNjhxMC0yNCAyNC0yNFoiIHAtaWQ9IjEwMDk4Ii8+PHBhdGggZD0iTTM0NCA1OTJoODh2ODhIMzQ0eiIgcC1pZD0iMTAwOTkiLz48cGF0aCBkPSJNNTg4Ljc5MiAzNDkuNzZBMjE1LjU2OCAyMTUuNTY4IDAgMCAwIDUxMi43NzYgMzM2Yy0yNS4xMiAwLTQ5LjY4IDQuMjk2LTcyLjg2NCAxMi42MDhhMjQgMjQgMCAxIDAgMTYuMTkyIDQ1LjE4NEExNjcuNjU2IDE2Ny42NTYgMCAwIDEgNTEyLjc3NiAzODRjMjAuNDY0IDAgNDAuNCAzLjY0OCA1OS4xMiAxMC42ODhhMjQgMjQgMCAwIDAgMTYuODk2LTQ0LjkyOHpNNjY4LjM2OCAyODMuNjQ4QTI5NC42OTYgMjk0LjY5NiAwIDAgMCA1MTMuNiAyNDBjLTUzLjM2IDAtMTA0LjcxMiAxNC4xNi0xNDkuNzQ0IDQwLjYyNGEyNCAyNCAwIDAgMCAyNC4zMiA0MS4zODRBMjQ2LjcyIDI0Ni43MiAwIDAgMSA1MTMuNTg0IDI4OGM0Ni40NDggMCA5MC45NiAxMi43NjggMTI5LjY0OCAzNi41NDRhMjQgMjQgMCAxIDAgMjUuMTI4LTQwLjg5NnoiIHAtaWQ9IjEwMTAwIi8+PHBhdGggZD0iTTczMi42OCAyMTcuNzc2QzY2OC40MzIgMTcwLjE0NCA1OTAuNjMyIDE0NCA1MDguOTUyIDE0NGMtNzkuNjMyIDAtMTU1LjU4NCAyNC44NC0yMTguOTM2IDcwLjI4OGEyNCAyNCAwIDAgMCAyNy45NzYgMzlDMzczLjI1NiAyMTMuNjQ4IDQzOS40NCAxOTIgNTA4Ljk1MiAxOTJjNzEuMjk2IDAgMTM5LjA4OCAyMi43NzYgMTk1LjE0NCA2NC4zMzZhMjQgMjQgMCAxIDAgMjguNTg0LTM4LjU2eiIgcC1pZD0iMTAxMDEiLz48L3N2Zz4=;fontFamily=Noto Serif SC;fontSource=https%3A%2F%2Ffonts.googleapis.com%2Fcss%3Ffamily%3DNoto%2BSerif%2BSC;" parent="1" vertex="1">
          <mxGeometry x="661" y="579.41" width="53.2" height="56.69" as="geometry" />
        </mxCell>
        <mxCell id="DpVvjFUGl3h-d2AKM0as-17" value="" style="shape=image;verticalLabelPosition=bottom;labelBackgroundColor=#ffffff;verticalAlign=top;aspect=fixed;imageAspect=0;image=data:image/svg+xml,PHN2ZyB4bWxucz0iaHR0cDovL3d3dy53My5vcmcvMjAwMC9zdmciIHhtbG5zOnhsaW5rPSJodHRwOi8vd3d3LnczLm9yZy8xOTk5L3hsaW5rIiB0PSIxNjMxMzk3ODA5NjczIiBjbGFzcz0iaWNvbiIgdmlld0JveD0iODggNTYgODQ4IDkwNCIgdmVyc2lvbj0iMS4xIiBwLWlkPSIxMDA5NCIgd2lkdGg9Ijg0OCIgaGVpZ2h0PSI5MDQiPjxkZWZzPjxzdHlsZSB0eXBlPSJ0ZXh0L2NzcyIvPjwvZGVmcz48cGF0aCBkPSJNMjAwIDQ0OGg2MjRjNjEuODU2IDAgMTEyIDUwLjE0NCAxMTIgMTEydjI4OGMwIDYxLjg1Ni01MC4xNDQgMTEyLTExMiAxMTJIMjAwYy02MS44NTYgMC0xMTItNTAuMTQ0LTExMi0xMTJWNTYwYzAtNjEuODU2IDUwLjE0NC0xMTIgMTEyLTExMnogbTAgNDhhNjQgNjQgMCAwIDAtNjQgNjR2Mjg4YTY0IDY0IDAgMCAwIDY0IDY0aDYyNGE2NCA2NCAwIDAgMCA2NC02NFY1NjBhNjQgNjQgMCAwIDAtNjQtNjRIMjAweiIgcC1pZD0iMTAwOTUiLz48cGF0aCBkPSJNMjAwIDU5Mmg4OHY4OEgyMDB6IiBwLWlkPSIxMDA5NiIvPjxwYXRoIGQ9Ik0yMDggNTZtMjQgMGwwIDBxMjQgMCAyNCAyNGwwIDM2OHEwIDI0LTI0IDI0bDAgMHEtMjQgMC0yNC0yNGwwLTM2OHEwLTI0IDI0LTI0WiIgcC1pZD0iMTAwOTciLz48cGF0aCBkPSJNNzc2IDY0bTI0IDBsMCAwcTI0IDAgMjQgMjRsMCAzNjhxMCAyNC0yNCAyNGwwIDBxLTI0IDAtMjQtMjRsMC0zNjhxMC0yNCAyNC0yNFoiIHAtaWQ9IjEwMDk4Ii8+PHBhdGggZD0iTTM0NCA1OTJoODh2ODhIMzQ0eiIgcC1pZD0iMTAwOTkiLz48cGF0aCBkPSJNNTg4Ljc5MiAzNDkuNzZBMjE1LjU2OCAyMTUuNTY4IDAgMCAwIDUxMi43NzYgMzM2Yy0yNS4xMiAwLTQ5LjY4IDQuMjk2LTcyLjg2NCAxMi42MDhhMjQgMjQgMCAxIDAgMTYuMTkyIDQ1LjE4NEExNjcuNjU2IDE2Ny42NTYgMCAwIDEgNTEyLjc3NiAzODRjMjAuNDY0IDAgNDAuNCAzLjY0OCA1OS4xMiAxMC42ODhhMjQgMjQgMCAwIDAgMTYuODk2LTQ0LjkyOHpNNjY4LjM2OCAyODMuNjQ4QTI5NC42OTYgMjk0LjY5NiAwIDAgMCA1MTMuNiAyNDBjLTUzLjM2IDAtMTA0LjcxMiAxNC4xNi0xNDkuNzQ0IDQwLjYyNGEyNCAyNCAwIDAgMCAyNC4zMiA0MS4zODRBMjQ2LjcyIDI0Ni43MiAwIDAgMSA1MTMuNTg0IDI4OGM0Ni40NDggMCA5MC45NiAxMi43NjggMTI5LjY0OCAzNi41NDRhMjQgMjQgMCAxIDAgMjUuMTI4LTQwLjg5NnoiIHAtaWQ9IjEwMTAwIi8+PHBhdGggZD0iTTczMi42OCAyMTcuNzc2QzY2OC40MzIgMTcwLjE0NCA1OTAuNjMyIDE0NCA1MDguOTUyIDE0NGMtNzkuNjMyIDAtMTU1LjU4NCAyNC44NC0yMTguOTM2IDcwLjI4OGEyNCAyNCAwIDAgMCAyNy45NzYgMzlDMzczLjI1NiAyMTMuNjQ4IDQzOS40NCAxOTIgNTA4Ljk1MiAxOTJjNzEuMjk2IDAgMTM5LjA4OCAyMi43NzYgMTk1LjE0NCA2NC4zMzZhMjQgMjQgMCAxIDAgMjguNTg0LTM4LjU2eiIgcC1pZD0iMTAxMDEiLz48L3N2Zz4=;fontFamily=Noto Serif SC;fontSource=https%3A%2F%2Ffonts.googleapis.com%2Fcss%3Ffamily%3DNoto%2BSerif%2BSC;" parent="1" vertex="1">
          <mxGeometry x="661" y="804.7199999999999" width="53.2" height="56.69" as="geometry" />
        </mxCell>
        <mxCell id="DpVvjFUGl3h-d2AKM0as-29" value="" style="edgeStyle=orthogonalEdgeStyle;rounded=1;orthogonalLoop=1;jettySize=auto;endArrow=none;endFill=0;fontFamily=Noto Serif SC;fontSource=https%3A%2F%2Ffonts.googleapis.com%2Fcss%3Ffamily%3DNoto%2BSerif%2BSC;html=1;" parent="1" source="DpVvjFUGl3h-d2AKM0as-18" target="DpVvjFUGl3h-d2AKM0as-22" edge="1">
          <mxGeometry relative="1" as="geometry" />
        </mxCell>
        <mxCell id="DpVvjFUGl3h-d2AKM0as-18" value="" style="shape=image;verticalLabelPosition=bottom;labelBackgroundColor=#ffffff;verticalAlign=top;aspect=fixed;imageAspect=0;image=data:image/svg+xml,PHN2ZyB4bWxucz0iaHR0cDovL3d3dy53My5vcmcvMjAwMC9zdmciIHhtbG5zOnhsaW5rPSJodHRwOi8vd3d3LnczLm9yZy8xOTk5L3hsaW5rIiB0PSIxNjMxMzk3ODA5NjczIiBjbGFzcz0iaWNvbiIgdmlld0JveD0iODggNTYgODQ4IDkwNCIgdmVyc2lvbj0iMS4xIiBwLWlkPSIxMDA5NCIgd2lkdGg9Ijg0OCIgaGVpZ2h0PSI5MDQiPjxkZWZzPjxzdHlsZSB0eXBlPSJ0ZXh0L2NzcyIvPjwvZGVmcz48cGF0aCBkPSJNMjAwIDQ0OGg2MjRjNjEuODU2IDAgMTEyIDUwLjE0NCAxMTIgMTEydjI4OGMwIDYxLjg1Ni01MC4xNDQgMTEyLTExMiAxMTJIMjAwYy02MS44NTYgMC0xMTItNTAuMTQ0LTExMi0xMTJWNTYwYzAtNjEuODU2IDUwLjE0NC0xMTIgMTEyLTExMnogbTAgNDhhNjQgNjQgMCAwIDAtNjQgNjR2Mjg4YTY0IDY0IDAgMCAwIDY0IDY0aDYyNGE2NCA2NCAwIDAgMCA2NC02NFY1NjBhNjQgNjQgMCAwIDAtNjQtNjRIMjAweiIgcC1pZD0iMTAwOTUiLz48cGF0aCBkPSJNMjAwIDU5Mmg4OHY4OEgyMDB6IiBwLWlkPSIxMDA5NiIvPjxwYXRoIGQ9Ik0yMDggNTZtMjQgMGwwIDBxMjQgMCAyNCAyNGwwIDM2OHEwIDI0LTI0IDI0bDAgMHEtMjQgMC0yNC0yNGwwLTM2OHEwLTI0IDI0LTI0WiIgcC1pZD0iMTAwOTciLz48cGF0aCBkPSJNNzc2IDY0bTI0IDBsMCAwcTI0IDAgMjQgMjRsMCAzNjhxMCAyNC0yNCAyNGwwIDBxLTI0IDAtMjQtMjRsMC0zNjhxMC0yNCAyNC0yNFoiIHAtaWQ9IjEwMDk4Ii8+PHBhdGggZD0iTTM0NCA1OTJoODh2ODhIMzQ0eiIgcC1pZD0iMTAwOTkiLz48cGF0aCBkPSJNNTg4Ljc5MiAzNDkuNzZBMjE1LjU2OCAyMTUuNTY4IDAgMCAwIDUxMi43NzYgMzM2Yy0yNS4xMiAwLTQ5LjY4IDQuMjk2LTcyLjg2NCAxMi42MDhhMjQgMjQgMCAxIDAgMTYuMTkyIDQ1LjE4NEExNjcuNjU2IDE2Ny42NTYgMCAwIDEgNTEyLjc3NiAzODRjMjAuNDY0IDAgNDAuNCAzLjY0OCA1OS4xMiAxMC42ODhhMjQgMjQgMCAwIDAgMTYuODk2LTQ0LjkyOHpNNjY4LjM2OCAyODMuNjQ4QTI5NC42OTYgMjk0LjY5NiAwIDAgMCA1MTMuNiAyNDBjLTUzLjM2IDAtMTA0LjcxMiAxNC4xNi0xNDkuNzQ0IDQwLjYyNGEyNCAyNCAwIDAgMCAyNC4zMiA0MS4zODRBMjQ2LjcyIDI0Ni43MiAwIDAgMSA1MTMuNTg0IDI4OGM0Ni40NDggMCA5MC45NiAxMi43NjggMTI5LjY0OCAzNi41NDRhMjQgMjQgMCAxIDAgMjUuMTI4LTQwLjg5NnoiIHAtaWQ9IjEwMTAwIi8+PHBhdGggZD0iTTczMi42OCAyMTcuNzc2QzY2OC40MzIgMTcwLjE0NCA1OTAuNjMyIDE0NCA1MDguOTUyIDE0NGMtNzkuNjMyIDAtMTU1LjU4NCAyNC44NC0yMTguOTM2IDcwLjI4OGEyNCAyNCAwIDAgMCAyNy45NzYgMzlDMzczLjI1NiAyMTMuNjQ4IDQzOS40NCAxOTIgNTA4Ljk1MiAxOTJjNzEuMjk2IDAgMTM5LjA4OCAyMi43NzYgMTk1LjE0NCA2NC4zMzZhMjQgMjQgMCAxIDAgMjguNTg0LTM4LjU2eiIgcC1pZD0iMTAxMDEiLz48L3N2Zz4=;fontFamily=Noto Serif SC;fontSource=https%3A%2F%2Ffonts.googleapis.com%2Fcss%3Ffamily%3DNoto%2BSerif%2BSC;" parent="1" vertex="1">
          <mxGeometry x="547.8" y="699.16" width="53.2" height="56.69" as="geometry" />
        </mxCell>
        <mxCell id="DpVvjFUGl3h-d2AKM0as-19" value="" style="endArrow=none;dashed=1;entryX=0.75;entryY=0;entryDx=0;entryDy=0;exitX=0.75;exitY=1;exitDx=0;exitDy=0;fontFamily=Noto Serif SC;fontSource=https%3A%2F%2Ffonts.googleapis.com%2Fcss%3Ffamily%3DNoto%2BSerif%2BSC;html=1;" parent="1" source="DpVvjFUGl3h-d2AKM0as-1" target="DpVvjFUGl3h-d2AKM0as-1" edge="1">
          <mxGeometry width="50" height="50" relative="1" as="geometry">
            <mxPoint x="944" y="1006" as="sourcePoint" />
            <mxPoint x="944" y="427" as="targetPoint" />
          </mxGeometry>
        </mxCell>
        <mxCell id="DpVvjFUGl3h-d2AKM0as-21" value="网络服务器" style="rounded=1;fillColor=#f5f5f5;strokeColor=#666666;fontColor=#333333;fontSize=24;fontFamily=Noto Serif SC;fontSource=https%3A%2F%2Ffonts.googleapis.com%2Fcss%3Ffamily%3DNoto%2BSerif%2BSC;" parent="1" vertex="1">
          <mxGeometry x="805.1" y="434" width="158" height="54" as="geometry" />
        </mxCell>
        <mxCell id="DpVvjFUGl3h-d2AKM0as-22" value="" style="shape=image;verticalLabelPosition=bottom;labelBackgroundColor=#ffffff;verticalAlign=top;aspect=fixed;imageAspect=0;image=data:image/svg+xml,PHN2ZyB4bWxucz0iaHR0cDovL3d3dy53My5vcmcvMjAwMC9zdmciIHhtbG5zOnhsaW5rPSJodHRwOi8vd3d3LnczLm9yZy8xOTk5L3hsaW5rIiB0PSIxNjMxMzk3OTM3OTUxIiBjbGFzcz0iaWNvbiIgdmlld0JveD0iMC4xMjg5MTY1OTE0MDU4Njg1MyAwIDEwMjMuOTE1NDA1MjczNDM3NSAxMDIzLjk5ODY1NzIyNjU2MjUiIHZlcnNpb249IjEuMSIgcC1pZD0iMTIzMzgiIHdpZHRoPSIxMDIzLjkxNTQwNTI3MzQzNzUiIGhlaWdodD0iMTAyMy45OTg2NTcyMjY1NjI1Ij48ZGVmcz48c3R5bGUgdHlwZT0idGV4dC9jc3MiLz48L2RlZnM+PHBhdGggZD0iTTUxMi4xMDQ5NiAwYTUxMS45OTkzNiA1MTEuOTk5MzYgMCAxIDEtMzIyLjA0NzU5NyA5MTAuMDc4ODYybDM5LjU1MTk1LTM5LjY3OTk1IDEzLjc1OTk4MyAxMS41ODM5ODZjNDguNzY3OTM5IDM5LjY3OTk1IDEzOC40MzE4MjcgOTYuODMxODc5IDI1MC40MzE2ODcgOTYuODMxODc4bDEyLjg2Mzk4NC0wLjE5MTk5OWMxNDMuMTY3ODIxLTQuMjIzOTk1IDM1Mi45NTk1NTktNjQuNTExOTE5IDQ0My41ODM0NDUtMjY1LjIxNTY2OWwzLjI2Mzk5Ni02LjkxMTk5MSAwLjMyLTEuMDIzOTk5IDUuMTE5OTkzLTEyLjczNTk4NEE0ODEuOTE5Mzk4IDQ4MS45MTkzOTggMCAwIDAgNTQyLjMxMjkyMiAzMC45NzU5NjFMNTQyLjE4NDkyMiAzMS4xMDM5NjFWMzAuMTQzOTYyaC02MC4yODc5MjR2MC44OTU5OTlBNDgxLjkxOTM5OCA0ODEuOTE5Mzk4IDAgMCAwIDMwLjMxMzU2MiA1MTEuOTk5MzZ2MzEuOTk5OTZjMCAxNy42NjM5NzggMTMuNDM5OTgzIDMxLjk5OTk2IDMwLjA3OTk2MyAzMS45OTk5NnMzMC4wNzk5NjItMTQuMzM1OTgyIDMwLjA3OTk2Mi0zMS45OTk5NlY1MTEuOTk5MzZjMC0yMC40Nzk5NzQgMS41MzU5OTgtNDAuNTc1OTQ5IDQuMjg3OTk1LTYwLjIyMzkyNWgxMTkuOTM1ODVBNDg2LjY1NTM5MiA0ODYuNjU1MzkyIDAgMCAwIDIxMC45MjEzMzYgNTExLjk5OTM2djMxLjk5OTk2YzAgMTIuMjg3OTg1IDYuNTI3OTkyIDIyLjkxMTk3MSAxNS45OTk5OCAyOC4yODc5NjVIMTI1LjY3MzQ0M2wtNS41Njc5OTMgMC4zODM5OTlhMzUuMDcxOTU2IDM1LjA3MTk1NiAwIDAgMC0yOS41Njc5NjMgMzQuNjg3OTU3bC0wLjA2NCAxOTUuMDcxNzU2QTUxMS45OTkzNiA1MTEuOTk5MzYgMCAwIDEgNTEyLjEwNDk2IDB6TTM2Mi4xNTMxNDcgNjQyLjIzOTE5N2wtNTEuNTgzOTM1IDU1LjEwMzkzMS0zLjcxMTk5NSA0LjczNTk5NGEzNC44MTU5NTYgMzQuODE1OTU2IDAgMCAwLTUuNTY3OTkzIDIyLjY1NTk3MmMwLjg5NTk5OSAxMC4wNDc5ODcgNi4xNDM5OTIgMTkuMTk5OTc2IDE0LjMzNTk4MiAyNS4wODc5NjkgODQuMjg3ODk1IDYxLjI0NzkyMyAxNzYuNjM5Nzc5IDkxLjA3MTg4NiAyODIuNDk1NjQ2IDkxLjA3MTg4NiAxOC40MzE5NzcgMCAzNy43NTk5NTMtMC44MzE5OTkgNTkuMDcxOTI3LTIuNTU5OTk3IDMwLjA3OTk2Mi0yLjQzMTk5NyA1OS45MDM5MjUtNy44MDc5OSA4OC45NTk4ODgtMTYuMTI3OThhNDMzLjQwNzQ1OCA0MzMuNDA3NDU4IDAgMCAxLTIzLjAzOTk3MSAxNi44MzE5NzlsLTMuMTk5OTk2IDIuNjIzOTk3YTQyOS41MDM0NjMgNDI5LjUwMzQ2MyAwIDAgMS0yMjYuMjM5NzE3IDY3LjAwNzkxNmMtMTExLjg3MTg2IDAtMjAwLjI1NTc1LTc0LjIzOTkwNy0yMjguNzk5NzE0LTEwMS4zMTE4NzNsLTEzLjg4Nzk4My0xMy42MzE5ODNhMzUuOTAzOTU1IDM1LjkwMzk1NSAwIDAgMC0yMC45OTE5NzMtNy43NDM5OWwtNi4zOTk5OTIgMC4zODM5OTlhMzUuODM5OTU1IDM1LjgzOTk1NSAwIDAgMC0xOS4zMjc5NzYgOS44NTU5ODhsLTQzLjUxOTk0NiA0My41MTk5NDV2LTE5Ny41MDM3NTNoMjAxLjQwNzc0OHpNNDgyLjAyNDk5OCA0NTEuODM5NDM1djMwLjA3OTk2M2EzMC4wNzk5NjIgMzAuMDc5OTYyIDAgMSAwIDYwLjI4NzkyNCAwdi0zMC4wNzk5NjNoMjA2LjU5MTc0MmMyLjgxNTk5NiAxOS42NDc5NzUgNC4yMjM5OTUgMzkuNzQzOTUgNC4yMjM5OTUgNjAuMjIzOTI1bC0wLjMyIDE2LjMxOTk4Yy0yLjE3NTk5NyA1OC42ODc5MjctMzUuNjQ3OTU1IDE1MS42Nzk4MS00MC4zMTk5NDkgMTY0LjQ3OTc5NC00LjU0Mzk5NCAxMi42NzE5ODQtMS4wODc5OTkgMjkuOTUxOTYzIDIxLjMxMTk3MyAzNS45Njc5NTUgMTQuOTc1OTgxIDQuMDMxOTk1IDI5LjgyMzk2My03LjkzNTk5IDQ0LjU0Mzk0NC0zNS45Njc5NTVhNDgwLjUxMTM5OSA0ODAuNTExMzk5IDAgMCAwIDMxLjM1OTk2MS0yNDEuMDIzNjk5aDExOS44NzE4NWMyLjc1MTk5NyAxOS42NDc5NzUgNC4yMjM5OTUgMzkuNzQzOTUgNC4yMjM5OTUgNjAuMjIzOTI1IDAgNjQuNjM5OTE5LTE0LjUyNzk4MiAxMjUuOTUxODQzLTQwLjU3NTk0OSAxODAuNzk5Nzc0LTM1LjAwNzk1NiA1Mi45OTE5MzQtMTI1LjU2Nzg0MyA2NS45MTk5MTgtMjQxLjM0MzY5OSA3NS41MTk5MDYtMTkuNDU1OTc2IDEuNDcxOTk4LTM2LjkyNzk1NCAyLjMwMzk5Ny01My41MDM5MzMgMi4zMDM5OTctNzcuNzU5OTAzIDAtMTQ0Ljc2NzgxOS0xNy43OTE5NzgtMjA3LjgwNzc0LTU1LjQyMzkzMWw3OC43MTk5MDItODMuODM5ODk1IDMuNjQ3OTk1LTQuNjcxOTk0YTM1LjE5OTk1NiAzNS4xOTk5NTYgMCAwIDAtMjkuMTE5OTY0LTU0LjM5OTkzMkgyNTUuMTQ1MjgxYTMyLjMxOTk2IDMyLjMxOTk2IDAgMCAwIDE1Ljk5OTk4LTI4LjI4Nzk2NVY1MTEuOTk5MzZjMC0yMC40Nzk5NzQgMS40NzE5OTgtNDAuNTc1OTQ5IDQuMjg3OTk1LTYwLjIyMzkyNWgyMDYuNTI3NzQyek0yNDIuMDI1Mjk4IDE4OC4yODc3NjVjMjAuMjg3OTc1IDEzLjc1OTk4MyA0MS41OTk5NDggMjUuOTgzOTY4IDYzLjg3MTkyIDM2LjQ3OTk1NC0zNi41NDM5NTQgNDkuMjE1OTM4LTYzLjk5OTkyIDEwNS41OTk4NjgtNzkuNzQzOTAxIDE2Ni43ODM3OTJIMTA3Ljk0NTQ2NWE0MjEuODg3NDczIDQyMS44ODc0NzMgMCAwIDEgMTI1LjY5NTg0My0xOTYuMTU5NzU1eiBtNTQwLjIyMzMyNC0wLjA2NGE0MjIuMDE1NDcyIDQyMi4wMTU0NzIgMCAwIDEgMTM0LjA3OTgzMyAyMDMuMzI3NzQ2SDc5OC4xODQ2MDJhNDc5LjM1OTQwMSA0NzkuMzU5NDAxIDAgMCAwLTc5Ljc0MzktMTY2Ljc4Mzc5MmMxNy45MTk5NzgtOC41MTE5ODkgMzUuMzI3OTU2LTE4LjExMTk3NyA1MS45Njc5MzUtMjguNjcxOTY0eiBtLTQxNy45MTk0NzcgNTkuNzExOTI1YTQ4MC4xMjc0IDQ4MC4xMjc0IDAgMCAwIDExNy43NTk4NTMgMjIuMjA3OTcydjEyMS40MDc4NDlIMjg4LjU1MzIzOUE0MjAuNDc5NDc0IDQyMC40Nzk0NzQgMCAwIDEgMzYxLjA2NTE0OSAyNTEuNzExNjg1eiBtMjk1LjgwNzYzLTAuMTI4YTQyMC40Nzk0NzQgNDIwLjQ3OTQ3NCAwIDAgMSA3NS41MTk5MDYgMTQzLjc0MzgyMUg1NDIuMjQ4OTIyVjI3MC4wNzk2NjJhNDgwLjQ0NzM5OSA0ODAuNDQ3Mzk5IDAgMCAwIDEwNi42MjM4NjctMTguNzUxOTc2ek00ODEuOTYwOTk4IDE0Ni43NTE4MTd2NjMuMDM5OTIxYTQyMC45Mjc0NzQgNDIwLjkyNzQ3NCAwIDAgMS03MS4xMDM5MTEtMTEuMTk5OTg2bDIuMTc1OTk3LTIuMDQ3OTk4YTQyMi45MTE0NzEgNDIyLjkxMTQ3MSAwIDAgMSA2OC45Mjc5MTQtNDkuNzkxOTM3eiBtNjAuMjg3OTI0IDBjMjUuNTk5OTY4IDE0LjcxOTk4MiA0OS40MDc5MzggMzIuMTI3OTYgNzEuMTY3OTExIDUxLjgzOTkzNS0yMy4wMzk5NzEgNS42MzE5OTMtNDYuNzE5OTQyIDkuNDcxOTg4LTcxLjEwMzkxMSAxMS4xMzU5ODZ6TTQ1MS45NDUwMzUgOTQuNTkxODgyYTQ4MS41OTkzOTggNDgxLjU5OTM5OCAwIDAgMC0xMDUuNDA3ODY4IDgyLjQzMTg5NyA0MzIuMTI3NDYgNDMyLjEyNzQ2IDAgMCAxLTUxLjcxMTkzNS0yNi4zNjc5NjcgNDE4Ljk0MzQ3NiA0MTguOTQzNDc2IDAgMCAxIDE0Ni4xNzU4MTctNTQuMzM1OTMyeiBtMTIwLjU3NTg0OSAwYTQxNS4yMzE0ODEgNDE1LjIzMTQ4MSAwIDAgMSAxNTYuNzk5ODA0IDU2LjEyNzkzIDQxMi4yMjM0ODUgNDEyLjIyMzQ4NSAwIDAgMS01MS40NTU5MzUgMjYuMjM5OTY3IDQ4My45NjczOTUgNDgzLjk2NzM5NSAwIDAgMC0xMDAuNzM1ODc0LTc5LjYxNTkwMXoiIGZpbGw9IiMxMjk2ZGIiIHAtaWQ9IjEyMzM5Ii8+PC9zdmc+;rotation=-30;fontFamily=Noto Serif SC;fontSource=https%3A%2F%2Ffonts.googleapis.com%2Fcss%3Ffamily%3DNoto%2BSerif%2BSC;" parent="1" vertex="1">
          <mxGeometry x="824" y="666.56" width="120.2" height="120.2" as="geometry" />
        </mxCell>
        <mxCell id="DpVvjFUGl3h-d2AKM0as-23" value="应用服务器" style="rounded=1;fillColor=#f5f5f5;strokeColor=#666666;fontColor=#333333;fontSize=24;fontFamily=Noto Serif SC;fontSource=https%3A%2F%2Ffonts.googleapis.com%2Fcss%3Ffamily%3DNoto%2BSerif%2BSC;" parent="1" vertex="1">
          <mxGeometry x="1047" y="434" width="154" height="54" as="geometry" />
        </mxCell>
        <mxCell id="DpVvjFUGl3h-d2AKM0as-30" value="" style="edgeStyle=orthogonalEdgeStyle;rounded=1;orthogonalLoop=1;jettySize=auto;entryX=0;entryY=0.5;entryDx=0;entryDy=0;endArrow=none;endFill=0;fontFamily=Noto Serif SC;fontSource=https%3A%2F%2Ffonts.googleapis.com%2Fcss%3Ffamily%3DNoto%2BSerif%2BSC;html=1;" parent="1" source="DpVvjFUGl3h-d2AKM0as-24" target="DpVvjFUGl3h-d2AKM0as-25" edge="1">
          <mxGeometry relative="1" as="geometry">
            <Array as="points">
              <mxPoint x="1023" y="609" />
              <mxPoint x="1023" y="822" />
            </Array>
          </mxGeometry>
        </mxCell>
        <mxCell id="DpVvjFUGl3h-d2AKM0as-24" value="" style="shape=image;verticalLabelPosition=bottom;labelBackgroundColor=#ffffff;verticalAlign=top;aspect=fixed;imageAspect=0;image=data:image/svg+xml,PHN2ZyB4bWxucz0iaHR0cDovL3d3dy53My5vcmcvMjAwMC9zdmciIHhtbG5zOnhsaW5rPSJodHRwOi8vd3d3LnczLm9yZy8xOTk5L3hsaW5rIiB0PSIxNjMxMzk4MDUxODk4IiBjbGFzcz0iaWNvbiIgdmlld0JveD0iMjcuODU2NTgwNzM0MjUyOTMgMCA5NjguMjg2ODY1MjM0Mzc1IDEwMjQiIHZlcnNpb249IjEuMSIgcC1pZD0iMTU1NzEiIHdpZHRoPSI5NjguMjg2ODY1MjM0Mzc1IiBoZWlnaHQ9IjEwMjQiPjxkZWZzPjxzdHlsZSB0eXBlPSJ0ZXh0L2NzcyIvPjwvZGVmcz48cGF0aCBkPSJNNDcuNTQzMjA5IDc3NC4yNzUxMTN2NzguNzQ2NTE1YTM0LjI1NDczNCAzNC4yNTQ3MzQgMCAwIDAgMzAuMzE3NDA4IDMxLjc5MzkwNmg4NzQuNTc4NDg3YzE1LjA2MDI3MSAwIDI0LjAxNzY4Ny0xNS40NTQwMDQgMjQuMDE3Njg3LTMwLjUxNDI3NXYtODAuMDI2MTQ2eiIgZmlsbD0iI0ZGRkZGRiIgcC1pZD0iMTU1NzIiLz48cGF0aCBkPSJNOTUyLjQzOTEwNCA5MDQuMTA4NDNINzcuOTU5MDVBNTMuNDQ5MTk3IDUzLjQ0OTE5NyAwIDAgMSAyNy44NTY1OCA4NTIuNjI3ODk2di05OC40MzMxNDRoOTY4LjI4Njg0djk5LjcxMjc3NWMwIDI0LjcwNjcxOS0xNi4zMzk5MDIgNTAuMjAwOTA0LTQzLjcwNDMxNiA1MC4yMDA5MDN6TTY3LjIyOTgzOCA3OTMuOTYxNzQydjU5LjA1OTg4NmExNi4wNDQ2MDMgMTYuMDQ0NjAzIDAgMCAwIDEwLjYzMDc3OSAxMi4xMDcyNzdoODc0LjU3ODQ4N2MxLjI3OTYzMSAwIDQuMzMxMDU4LTQuNzI0NzkxIDQuMzMxMDU4LTEwLjgyNzY0NnYtNjAuMzM5NTE3eiIgZmlsbD0iIzI4MkQzMyIgcC1pZD0iMTU1NzMiLz48cGF0aCBkPSJNNDA4LjY5NDQxNSA4ODUuMDEyNGMtMS41NzQ5MyAxOS42ODY2MjkgMS44NzAyMyA2Mi44MDAzNDYtMi4yNjM5NjIgODMuOTYzNDcyLTMuODM4ODkzIDE5LjY4NjYyOS02LjU5NTAyMSAxOS42ODY2MjktMTYuODMyMDY4IDI1LjY5MTA1MS01LjgwNzU1NiAzLjE0OTg2MS0xNS41NTI0MzcgNy42Nzc3ODUtMjMuODIwODIxIDExLjIyMTM3OHoiIGZpbGw9IiNGRkZGRkYiIHAtaWQ9IjE1NTc0Ii8+PHBhdGggZD0iTTM3My42NTIyMTYgMTAyMy43MDQ3MDFsLTE1LjY1MDg3LTM2LjEyNDk2NGM5Ljg0MzMxNC00LjIzMjYyNSAxNy44MTYzOTktNy45NzMwODUgMjIuMTQ3NDU3LTkuODQzMzE1bDEuMjc5NjMxLTAuNzg3NDY1YTI0LjExNjEyIDI0LjExNjEyIDAgMCAwIDMuMjQ4Mjk0LTEuNzcxNzk3IDczLjMzMjY5MiA3My4zMzI2OTIgMCAwIDAgMi4zNjIzOTUtOS44NDMzMTQgMzA2LjUyMDgxMSAzMDYuNTIwODExIDAgMCAwIDEuNjczMzY0LTQ5LjIxNjU3MnYtMzMuMDczNTM3bDM5LjM3MzI1NyAzLjI0ODI5NGMtMC41OTA1OTkgNi42OTM0NTQgMCAxNy43MTc5NjYgMCAyOS41Mjk5NDNhMzEwLjQ1ODEzNyAzMTAuNDU4MTM3IDAgMCAxLTIuMzYyMzk1IDU2Ljk5Mjc5MWMtNC42MjYzNTggMjMuNDI3MDg4LTEwLjQzMzkxMyAzMC4yMTg5NzUtMjUuMjk3MzE4IDM4LjM4ODkyNmwtMS4yNzk2MzEgMC42ODkwMzJjLTcuMDg3MTg2IDMuODM4ODkzLTE3LjcxNzk2NiA4LjY2MjExNy0yNS40OTQxODQgMTEuODExOTc4eiIgZmlsbD0iIzI4MkQzMyIgcC1pZD0iMTU1NzUiLz48cGF0aCBkPSJNNjU3LjgyODcwMyAxMDA1Ljk4NjczNWMtOC4yNjgzODQtMy41NDM1OTMtMTguMjEwMTMyLTguMDcxNTE4LTI0LjExNjEyLTExLjMxOTgxMi05Ljg0MzMxNC01LjcwOTEyMi0xMi4zMDQxNDMtNi4yOTk3MjEtMTYuMTQzMDM2LTI1LjY5MTA1MS00LjEzNDE5Mi0yMS4xNjMxMjYtMC42ODkwMzItNjMuMzkwOTQ1LTIuMjYzOTYyLTgyLjg4MDcwN3oiIGZpbGw9IiNGRkZGRkYiIHAtaWQ9IjE1NTc2Ii8+PHBhdGggZD0iTTY0OS40NjE4ODYgMTAyMy43MDQ3MDFjLTcuODc0NjUyLTMuNDQ1MTYtMTguODAwNzMxLTguMjY4Mzg0LTI1LjU5MjYxOC0xMi4wMDg4NDRoLTAuOTg0MzMxYy0xNi4xNDMwMzYtOC45NTc0MTYtMjAuNTcyNTI3LTE1Ljg0NzczNi0yNS4xMDA0NTItMzguNzgyNjU5YTMwMi44Nzg3ODUgMzAyLjg3ODc4NSAwIDAgMS0yLjM2MjM5NS01Ni4yMDUzMjVWODg3Ljg2Njk2MWwzOS4zNzMyNTctMy4xNDk4NmMwLjY4OTAzMiA4LjQ2NTI1IDAuNDkyMTY2IDE5LjY4NjYyOSAwIDMyLjQ4MjkzN2EyOTkuODI3MzU3IDI5OS44MjczNTcgMCAwIDAgMS42NzMzNjQgNDguMTMzODA4IDk2Ljc1OTc4MSA5Ni43NTk3ODEgMCAwIDAgMi4zNjIzOTUgOS44NDMzMTRsMy4xNDk4NjEgMS43NzE3OTdjNC45MjE2NTcgMi42NTc2OTUgMTMuMTkwMDQxIDYuNDk2NTg4IDIzLjIzMDIyMiAxMC45MjYwNzl6IiBmaWxsPSIjMjgyRDMzIiBwLWlkPSIxNTU3NyIvPjxwYXRoIGQ9Ik0zNDAuMjgzMzggMTAwNC4wMTgwNzJ6IiBmaWxsPSIjRkZGRkZGIiBwLWlkPSIxNTU3OCIvPjxwYXRoIGQ9Ik0zNDAuMjgzMzggOTg0LjYyNjc0MmgzNDMuNjMwMTA2djM5LjM3MzI1OEgzNDAuMjgzMzh6IiBmaWxsPSIjMjgyRDMzIiBwLWlkPSIxNTU3OSIvPjxwYXRoIGQ9Ik0xNjQuMjg0OTE4IDIwNi43MDk2MDNINzIuOTM4OTZBMjUuNDk0MTg0IDI1LjQ5NDE4NCAwIDAgMCA0Ny41NDMyMDkgMjMxLjYxMzE4OXY1NDMuMjUyNTIzaDkyOC42MTgyODNWMjMxLjYxMzE4OUEyNS40OTQxODQgMjUuNDk0MTg0IDAgMCAwIDk1MC43NjU3NDEgMjA2LjcwOTYwM2gtNzg2LjQ4MDgyM3oiIGZpbGw9IiNGRkZGRkYiIHAtaWQ9IjE1NTgwIi8+PHBhdGggZD0iTTk5NS44NDgxMjEgNzk0LjU1MjM0MUgyNy44NTY1OFYyMzEuNjEzMTg5QTQ1LjE4MDgxMyA0NS4xODA4MTMgMCAwIDEgNzIuOTM4OTYgMTg3LjAyMjk3NGg5MS4zNDU5NTh2MzkuMzczMjU4SDcyLjkzODk2YTUuNzA5MTIyIDUuNzA5MTIyIDAgMCAwLTUuNzA5MTIyIDUuNzA5MTIydjUyMy4wNzM3MjloODg5LjI0NTAyNVYyMzEuNjEzMTg5YTUuNzA5MTIyIDUuNzA5MTIyIDAgMCAwLTUuNzA5MTIyLTUuNzA5MTIzaC05MS4wNTA2NTlWMTg3LjAyMjk3NGg5MS4wNTA2NTlhNDUuMDgyMzggNDUuMDgyMzggMCAwIDEgNDUuMDgyMzggNDUuMDgyMzh6IiBmaWxsPSIjMjgyRDMzIiBwLWlkPSIxNTU4MSIvPjxwYXRoIGQ9Ik0xMjAuMTg2ODY5IDI3OS45NDM4NjJoMTE1LjQ2MjA3OHY0MjAuNTA2MzkzSDEyMC4xODY4Njl6TTc4OC4zNTEwNTMgMjc5Ljk0Mzg2MmgxMTQuMTgyNDQ3djQyMC41MDYzOTNoLTExNC4xODI0NDd6IiBmaWxsPSIjMzRDQTlEIiBwLWlkPSIxNTU4MiIvPjxwYXRoIGQ9Ik03ODAuMzc3OTY4IDE4OS43NzkxMDJoMzkuMzczMjU4djUxMC42NzExNTNoLTM5LjM3MzI1OHpNMjQ0LjgwMzIzIDcwMC40NTAyNTVoLTM5LjM3MzI1OFYwaDQzNC4zODU0NjZ2MzkuMzczMjU4SDI0NC44MDMyM3Y2NjEuMDc2OTk3eiIgZmlsbD0iIzI4MkQzMyIgcC1pZD0iMTU1ODMiLz48cGF0aCBkPSJNNjY2Ljg4NDU1MyAxNTIuOTY1MTA2aDE1MS42ODU0NzVMNjY2Ljg4NDU1MyAxLjE4MTE5OHYxNTEuNzgzOTA4eiIgZmlsbD0iI0Y4QzQ0RiIgcC1pZD0iMTU1ODQiLz48cGF0aCBkPSJNMzIxLjU4MTA4MiAxODYuNjI5MjQyaDIxNS42NjcwMnYzOS4zNzMyNTdIMzIxLjU4MTA4MnpNMzIxLjU4MTA4MiAyNzIuMzY0NTFoMzY5LjYxNjQ1N3YzOS4zNzMyNThIMzIxLjU4MTA4MnpNMzIxLjU4MTA4MiAzNTguMDk5Nzc5aDM2OS42MTY0NTd2MzkuMzczMjU4SDMyMS41ODEwODJ6TTMyMS41ODEwODIgNDQzLjgzNTA0OGgzNjkuNjE2NDU3djM5LjM3MzI1N0gzMjEuNTgxMDgyek0zMjEuNTgxMDgyIDUyOS42Njg3NDloMzY5LjYxNjQ1N3YzOS4zNzMyNThIMzIxLjU4MTA4MnpNMzIxLjU4MTA4MiA2MTUuNDA0MDE4aDM2OS42MTY0NTd2MzkuMzczMjU4SDMyMS41ODEwODJ6IiBmaWxsPSIjMjgyRDMzIiBwLWlkPSIxNTU4NSIvPjwvc3ZnPg==;fontFamily=Noto Serif SC;fontSource=https%3A%2F%2Ffonts.googleapis.com%2Fcss%3Ffamily%3DNoto%2BSerif%2BSC;" parent="1" vertex="1">
          <mxGeometry x="1043" y="579.41" width="56" height="59.19" as="geometry" />
        </mxCell>
        <mxCell id="DpVvjFUGl3h-d2AKM0as-25" value="" style="shape=image;verticalLabelPosition=bottom;labelBackgroundColor=#ffffff;verticalAlign=top;aspect=fixed;imageAspect=0;image=data:image/svg+xml,PHN2ZyB4bWxucz0iaHR0cDovL3d3dy53My5vcmcvMjAwMC9zdmciIHhtbG5zOnhsaW5rPSJodHRwOi8vd3d3LnczLm9yZy8xOTk5L3hsaW5rIiB0PSIxNjMxMzk4MDUxODk4IiBjbGFzcz0iaWNvbiIgdmlld0JveD0iMjcuODU2NTgwNzM0MjUyOTMgMCA5NjguMjg2ODY1MjM0Mzc1IDEwMjQiIHZlcnNpb249IjEuMSIgcC1pZD0iMTU1NzEiIHdpZHRoPSI5NjguMjg2ODY1MjM0Mzc1IiBoZWlnaHQ9IjEwMjQiPjxkZWZzPjxzdHlsZSB0eXBlPSJ0ZXh0L2NzcyIvPjwvZGVmcz48cGF0aCBkPSJNNDcuNTQzMjA5IDc3NC4yNzUxMTN2NzguNzQ2NTE1YTM0LjI1NDczNCAzNC4yNTQ3MzQgMCAwIDAgMzAuMzE3NDA4IDMxLjc5MzkwNmg4NzQuNTc4NDg3YzE1LjA2MDI3MSAwIDI0LjAxNzY4Ny0xNS40NTQwMDQgMjQuMDE3Njg3LTMwLjUxNDI3NXYtODAuMDI2MTQ2eiIgZmlsbD0iI0ZGRkZGRiIgcC1pZD0iMTU1NzIiLz48cGF0aCBkPSJNOTUyLjQzOTEwNCA5MDQuMTA4NDNINzcuOTU5MDVBNTMuNDQ5MTk3IDUzLjQ0OTE5NyAwIDAgMSAyNy44NTY1OCA4NTIuNjI3ODk2di05OC40MzMxNDRoOTY4LjI4Njg0djk5LjcxMjc3NWMwIDI0LjcwNjcxOS0xNi4zMzk5MDIgNTAuMjAwOTA0LTQzLjcwNDMxNiA1MC4yMDA5MDN6TTY3LjIyOTgzOCA3OTMuOTYxNzQydjU5LjA1OTg4NmExNi4wNDQ2MDMgMTYuMDQ0NjAzIDAgMCAwIDEwLjYzMDc3OSAxMi4xMDcyNzdoODc0LjU3ODQ4N2MxLjI3OTYzMSAwIDQuMzMxMDU4LTQuNzI0NzkxIDQuMzMxMDU4LTEwLjgyNzY0NnYtNjAuMzM5NTE3eiIgZmlsbD0iIzI4MkQzMyIgcC1pZD0iMTU1NzMiLz48cGF0aCBkPSJNNDA4LjY5NDQxNSA4ODUuMDEyNGMtMS41NzQ5MyAxOS42ODY2MjkgMS44NzAyMyA2Mi44MDAzNDYtMi4yNjM5NjIgODMuOTYzNDcyLTMuODM4ODkzIDE5LjY4NjYyOS02LjU5NTAyMSAxOS42ODY2MjktMTYuODMyMDY4IDI1LjY5MTA1MS01LjgwNzU1NiAzLjE0OTg2MS0xNS41NTI0MzcgNy42Nzc3ODUtMjMuODIwODIxIDExLjIyMTM3OHoiIGZpbGw9IiNGRkZGRkYiIHAtaWQ9IjE1NTc0Ii8+PHBhdGggZD0iTTM3My42NTIyMTYgMTAyMy43MDQ3MDFsLTE1LjY1MDg3LTM2LjEyNDk2NGM5Ljg0MzMxNC00LjIzMjYyNSAxNy44MTYzOTktNy45NzMwODUgMjIuMTQ3NDU3LTkuODQzMzE1bDEuMjc5NjMxLTAuNzg3NDY1YTI0LjExNjEyIDI0LjExNjEyIDAgMCAwIDMuMjQ4Mjk0LTEuNzcxNzk3IDczLjMzMjY5MiA3My4zMzI2OTIgMCAwIDAgMi4zNjIzOTUtOS44NDMzMTQgMzA2LjUyMDgxMSAzMDYuNTIwODExIDAgMCAwIDEuNjczMzY0LTQ5LjIxNjU3MnYtMzMuMDczNTM3bDM5LjM3MzI1NyAzLjI0ODI5NGMtMC41OTA1OTkgNi42OTM0NTQgMCAxNy43MTc5NjYgMCAyOS41Mjk5NDNhMzEwLjQ1ODEzNyAzMTAuNDU4MTM3IDAgMCAxLTIuMzYyMzk1IDU2Ljk5Mjc5MWMtNC42MjYzNTggMjMuNDI3MDg4LTEwLjQzMzkxMyAzMC4yMTg5NzUtMjUuMjk3MzE4IDM4LjM4ODkyNmwtMS4yNzk2MzEgMC42ODkwMzJjLTcuMDg3MTg2IDMuODM4ODkzLTE3LjcxNzk2NiA4LjY2MjExNy0yNS40OTQxODQgMTEuODExOTc4eiIgZmlsbD0iIzI4MkQzMyIgcC1pZD0iMTU1NzUiLz48cGF0aCBkPSJNNjU3LjgyODcwMyAxMDA1Ljk4NjczNWMtOC4yNjgzODQtMy41NDM1OTMtMTguMjEwMTMyLTguMDcxNTE4LTI0LjExNjEyLTExLjMxOTgxMi05Ljg0MzMxNC01LjcwOTEyMi0xMi4zMDQxNDMtNi4yOTk3MjEtMTYuMTQzMDM2LTI1LjY5MTA1MS00LjEzNDE5Mi0yMS4xNjMxMjYtMC42ODkwMzItNjMuMzkwOTQ1LTIuMjYzOTYyLTgyLjg4MDcwN3oiIGZpbGw9IiNGRkZGRkYiIHAtaWQ9IjE1NTc2Ii8+PHBhdGggZD0iTTY0OS40NjE4ODYgMTAyMy43MDQ3MDFjLTcuODc0NjUyLTMuNDQ1MTYtMTguODAwNzMxLTguMjY4Mzg0LTI1LjU5MjYxOC0xMi4wMDg4NDRoLTAuOTg0MzMxYy0xNi4xNDMwMzYtOC45NTc0MTYtMjAuNTcyNTI3LTE1Ljg0NzczNi0yNS4xMDA0NTItMzguNzgyNjU5YTMwMi44Nzg3ODUgMzAyLjg3ODc4NSAwIDAgMS0yLjM2MjM5NS01Ni4yMDUzMjVWODg3Ljg2Njk2MWwzOS4zNzMyNTctMy4xNDk4NmMwLjY4OTAzMiA4LjQ2NTI1IDAuNDkyMTY2IDE5LjY4NjYyOSAwIDMyLjQ4MjkzN2EyOTkuODI3MzU3IDI5OS44MjczNTcgMCAwIDAgMS42NzMzNjQgNDguMTMzODA4IDk2Ljc1OTc4MSA5Ni43NTk3ODEgMCAwIDAgMi4zNjIzOTUgOS44NDMzMTRsMy4xNDk4NjEgMS43NzE3OTdjNC45MjE2NTcgMi42NTc2OTUgMTMuMTkwMDQxIDYuNDk2NTg4IDIzLjIzMDIyMiAxMC45MjYwNzl6IiBmaWxsPSIjMjgyRDMzIiBwLWlkPSIxNTU3NyIvPjxwYXRoIGQ9Ik0zNDAuMjgzMzggMTAwNC4wMTgwNzJ6IiBmaWxsPSIjRkZGRkZGIiBwLWlkPSIxNTU3OCIvPjxwYXRoIGQ9Ik0zNDAuMjgzMzggOTg0LjYyNjc0MmgzNDMuNjMwMTA2djM5LjM3MzI1OEgzNDAuMjgzMzh6IiBmaWxsPSIjMjgyRDMzIiBwLWlkPSIxNTU3OSIvPjxwYXRoIGQ9Ik0xNjQuMjg0OTE4IDIwNi43MDk2MDNINzIuOTM4OTZBMjUuNDk0MTg0IDI1LjQ5NDE4NCAwIDAgMCA0Ny41NDMyMDkgMjMxLjYxMzE4OXY1NDMuMjUyNTIzaDkyOC42MTgyODNWMjMxLjYxMzE4OUEyNS40OTQxODQgMjUuNDk0MTg0IDAgMCAwIDk1MC43NjU3NDEgMjA2LjcwOTYwM2gtNzg2LjQ4MDgyM3oiIGZpbGw9IiNGRkZGRkYiIHAtaWQ9IjE1NTgwIi8+PHBhdGggZD0iTTk5NS44NDgxMjEgNzk0LjU1MjM0MUgyNy44NTY1OFYyMzEuNjEzMTg5QTQ1LjE4MDgxMyA0NS4xODA4MTMgMCAwIDEgNzIuOTM4OTYgMTg3LjAyMjk3NGg5MS4zNDU5NTh2MzkuMzczMjU4SDcyLjkzODk2YTUuNzA5MTIyIDUuNzA5MTIyIDAgMCAwLTUuNzA5MTIyIDUuNzA5MTIydjUyMy4wNzM3MjloODg5LjI0NTAyNVYyMzEuNjEzMTg5YTUuNzA5MTIyIDUuNzA5MTIyIDAgMCAwLTUuNzA5MTIyLTUuNzA5MTIzaC05MS4wNTA2NTlWMTg3LjAyMjk3NGg5MS4wNTA2NTlhNDUuMDgyMzggNDUuMDgyMzggMCAwIDEgNDUuMDgyMzggNDUuMDgyMzh6IiBmaWxsPSIjMjgyRDMzIiBwLWlkPSIxNTU4MSIvPjxwYXRoIGQ9Ik0xMjAuMTg2ODY5IDI3OS45NDM4NjJoMTE1LjQ2MjA3OHY0MjAuNTA2MzkzSDEyMC4xODY4Njl6TTc4OC4zNTEwNTMgMjc5Ljk0Mzg2MmgxMTQuMTgyNDQ3djQyMC41MDYzOTNoLTExNC4xODI0NDd6IiBmaWxsPSIjMzRDQTlEIiBwLWlkPSIxNTU4MiIvPjxwYXRoIGQ9Ik03ODAuMzc3OTY4IDE4OS43NzkxMDJoMzkuMzczMjU4djUxMC42NzExNTNoLTM5LjM3MzI1OHpNMjQ0LjgwMzIzIDcwMC40NTAyNTVoLTM5LjM3MzI1OFYwaDQzNC4zODU0NjZ2MzkuMzczMjU4SDI0NC44MDMyM3Y2NjEuMDc2OTk3eiIgZmlsbD0iIzI4MkQzMyIgcC1pZD0iMTU1ODMiLz48cGF0aCBkPSJNNjY2Ljg4NDU1MyAxNTIuOTY1MTA2aDE1MS42ODU0NzVMNjY2Ljg4NDU1MyAxLjE4MTE5OHYxNTEuNzgzOTA4eiIgZmlsbD0iI0Y4QzQ0RiIgcC1pZD0iMTU1ODQiLz48cGF0aCBkPSJNMzIxLjU4MTA4MiAxODYuNjI5MjQyaDIxNS42NjcwMnYzOS4zNzMyNTdIMzIxLjU4MTA4MnpNMzIxLjU4MTA4MiAyNzIuMzY0NTFoMzY5LjYxNjQ1N3YzOS4zNzMyNThIMzIxLjU4MTA4MnpNMzIxLjU4MTA4MiAzNTguMDk5Nzc5aDM2OS42MTY0NTd2MzkuMzczMjU4SDMyMS41ODEwODJ6TTMyMS41ODEwODIgNDQzLjgzNTA0OGgzNjkuNjE2NDU3djM5LjM3MzI1N0gzMjEuNTgxMDgyek0zMjEuNTgxMDgyIDUyOS42Njg3NDloMzY5LjYxNjQ1N3YzOS4zNzMyNThIMzIxLjU4MTA4MnpNMzIxLjU4MTA4MiA2MTUuNDA0MDE4aDM2OS42MTY0NTd2MzkuMzczMjU4SDMyMS41ODEwODJ6IiBmaWxsPSIjMjgyRDMzIiBwLWlkPSIxNTU4NSIvPjwvc3ZnPg==;fontFamily=Noto Serif SC;fontSource=https%3A%2F%2Ffonts.googleapis.com%2Fcss%3Ffamily%3DNoto%2BSerif%2BSC;" parent="1" vertex="1">
          <mxGeometry x="1043" y="792.81" width="56" height="59.19" as="geometry" />
        </mxCell>
        <mxCell id="DpVvjFUGl3h-d2AKM0as-31" value="" style="edgeStyle=orthogonalEdgeStyle;rounded=1;orthogonalLoop=1;jettySize=auto;endArrow=none;endFill=0;fontFamily=Noto Serif SC;fontSource=https%3A%2F%2Ffonts.googleapis.com%2Fcss%3Ffamily%3DNoto%2BSerif%2BSC;html=1;" parent="1" source="DpVvjFUGl3h-d2AKM0as-26" target="DpVvjFUGl3h-d2AKM0as-22" edge="1">
          <mxGeometry relative="1" as="geometry" />
        </mxCell>
        <mxCell id="DpVvjFUGl3h-d2AKM0as-26" value="" style="shape=image;verticalLabelPosition=bottom;labelBackgroundColor=#ffffff;verticalAlign=top;aspect=fixed;imageAspect=0;image=data:image/svg+xml,PHN2ZyB4bWxucz0iaHR0cDovL3d3dy53My5vcmcvMjAwMC9zdmciIHhtbG5zOnhsaW5rPSJodHRwOi8vd3d3LnczLm9yZy8xOTk5L3hsaW5rIiB0PSIxNjMxMzk4MDUxODk4IiBjbGFzcz0iaWNvbiIgdmlld0JveD0iMjcuODU2NTgwNzM0MjUyOTMgMCA5NjguMjg2ODY1MjM0Mzc1IDEwMjQiIHZlcnNpb249IjEuMSIgcC1pZD0iMTU1NzEiIHdpZHRoPSI5NjguMjg2ODY1MjM0Mzc1IiBoZWlnaHQ9IjEwMjQiPjxkZWZzPjxzdHlsZSB0eXBlPSJ0ZXh0L2NzcyIvPjwvZGVmcz48cGF0aCBkPSJNNDcuNTQzMjA5IDc3NC4yNzUxMTN2NzguNzQ2NTE1YTM0LjI1NDczNCAzNC4yNTQ3MzQgMCAwIDAgMzAuMzE3NDA4IDMxLjc5MzkwNmg4NzQuNTc4NDg3YzE1LjA2MDI3MSAwIDI0LjAxNzY4Ny0xNS40NTQwMDQgMjQuMDE3Njg3LTMwLjUxNDI3NXYtODAuMDI2MTQ2eiIgZmlsbD0iI0ZGRkZGRiIgcC1pZD0iMTU1NzIiLz48cGF0aCBkPSJNOTUyLjQzOTEwNCA5MDQuMTA4NDNINzcuOTU5MDVBNTMuNDQ5MTk3IDUzLjQ0OTE5NyAwIDAgMSAyNy44NTY1OCA4NTIuNjI3ODk2di05OC40MzMxNDRoOTY4LjI4Njg0djk5LjcxMjc3NWMwIDI0LjcwNjcxOS0xNi4zMzk5MDIgNTAuMjAwOTA0LTQzLjcwNDMxNiA1MC4yMDA5MDN6TTY3LjIyOTgzOCA3OTMuOTYxNzQydjU5LjA1OTg4NmExNi4wNDQ2MDMgMTYuMDQ0NjAzIDAgMCAwIDEwLjYzMDc3OSAxMi4xMDcyNzdoODc0LjU3ODQ4N2MxLjI3OTYzMSAwIDQuMzMxMDU4LTQuNzI0NzkxIDQuMzMxMDU4LTEwLjgyNzY0NnYtNjAuMzM5NTE3eiIgZmlsbD0iIzI4MkQzMyIgcC1pZD0iMTU1NzMiLz48cGF0aCBkPSJNNDA4LjY5NDQxNSA4ODUuMDEyNGMtMS41NzQ5MyAxOS42ODY2MjkgMS44NzAyMyA2Mi44MDAzNDYtMi4yNjM5NjIgODMuOTYzNDcyLTMuODM4ODkzIDE5LjY4NjYyOS02LjU5NTAyMSAxOS42ODY2MjktMTYuODMyMDY4IDI1LjY5MTA1MS01LjgwNzU1NiAzLjE0OTg2MS0xNS41NTI0MzcgNy42Nzc3ODUtMjMuODIwODIxIDExLjIyMTM3OHoiIGZpbGw9IiNGRkZGRkYiIHAtaWQ9IjE1NTc0Ii8+PHBhdGggZD0iTTM3My42NTIyMTYgMTAyMy43MDQ3MDFsLTE1LjY1MDg3LTM2LjEyNDk2NGM5Ljg0MzMxNC00LjIzMjYyNSAxNy44MTYzOTktNy45NzMwODUgMjIuMTQ3NDU3LTkuODQzMzE1bDEuMjc5NjMxLTAuNzg3NDY1YTI0LjExNjEyIDI0LjExNjEyIDAgMCAwIDMuMjQ4Mjk0LTEuNzcxNzk3IDczLjMzMjY5MiA3My4zMzI2OTIgMCAwIDAgMi4zNjIzOTUtOS44NDMzMTQgMzA2LjUyMDgxMSAzMDYuNTIwODExIDAgMCAwIDEuNjczMzY0LTQ5LjIxNjU3MnYtMzMuMDczNTM3bDM5LjM3MzI1NyAzLjI0ODI5NGMtMC41OTA1OTkgNi42OTM0NTQgMCAxNy43MTc5NjYgMCAyOS41Mjk5NDNhMzEwLjQ1ODEzNyAzMTAuNDU4MTM3IDAgMCAxLTIuMzYyMzk1IDU2Ljk5Mjc5MWMtNC42MjYzNTggMjMuNDI3MDg4LTEwLjQzMzkxMyAzMC4yMTg5NzUtMjUuMjk3MzE4IDM4LjM4ODkyNmwtMS4yNzk2MzEgMC42ODkwMzJjLTcuMDg3MTg2IDMuODM4ODkzLTE3LjcxNzk2NiA4LjY2MjExNy0yNS40OTQxODQgMTEuODExOTc4eiIgZmlsbD0iIzI4MkQzMyIgcC1pZD0iMTU1NzUiLz48cGF0aCBkPSJNNjU3LjgyODcwMyAxMDA1Ljk4NjczNWMtOC4yNjgzODQtMy41NDM1OTMtMTguMjEwMTMyLTguMDcxNTE4LTI0LjExNjEyLTExLjMxOTgxMi05Ljg0MzMxNC01LjcwOTEyMi0xMi4zMDQxNDMtNi4yOTk3MjEtMTYuMTQzMDM2LTI1LjY5MTA1MS00LjEzNDE5Mi0yMS4xNjMxMjYtMC42ODkwMzItNjMuMzkwOTQ1LTIuMjYzOTYyLTgyLjg4MDcwN3oiIGZpbGw9IiNGRkZGRkYiIHAtaWQ9IjE1NTc2Ii8+PHBhdGggZD0iTTY0OS40NjE4ODYgMTAyMy43MDQ3MDFjLTcuODc0NjUyLTMuNDQ1MTYtMTguODAwNzMxLTguMjY4Mzg0LTI1LjU5MjYxOC0xMi4wMDg4NDRoLTAuOTg0MzMxYy0xNi4xNDMwMzYtOC45NTc0MTYtMjAuNTcyNTI3LTE1Ljg0NzczNi0yNS4xMDA0NTItMzguNzgyNjU5YTMwMi44Nzg3ODUgMzAyLjg3ODc4NSAwIDAgMS0yLjM2MjM5NS01Ni4yMDUzMjVWODg3Ljg2Njk2MWwzOS4zNzMyNTctMy4xNDk4NmMwLjY4OTAzMiA4LjQ2NTI1IDAuNDkyMTY2IDE5LjY4NjYyOSAwIDMyLjQ4MjkzN2EyOTkuODI3MzU3IDI5OS44MjczNTcgMCAwIDAgMS42NzMzNjQgNDguMTMzODA4IDk2Ljc1OTc4MSA5Ni43NTk3ODEgMCAwIDAgMi4zNjIzOTUgOS44NDMzMTRsMy4xNDk4NjEgMS43NzE3OTdjNC45MjE2NTcgMi42NTc2OTUgMTMuMTkwMDQxIDYuNDk2NTg4IDIzLjIzMDIyMiAxMC45MjYwNzl6IiBmaWxsPSIjMjgyRDMzIiBwLWlkPSIxNTU3NyIvPjxwYXRoIGQ9Ik0zNDAuMjgzMzggMTAwNC4wMTgwNzJ6IiBmaWxsPSIjRkZGRkZGIiBwLWlkPSIxNTU3OCIvPjxwYXRoIGQ9Ik0zNDAuMjgzMzggOTg0LjYyNjc0MmgzNDMuNjMwMTA2djM5LjM3MzI1OEgzNDAuMjgzMzh6IiBmaWxsPSIjMjgyRDMzIiBwLWlkPSIxNTU3OSIvPjxwYXRoIGQ9Ik0xNjQuMjg0OTE4IDIwNi43MDk2MDNINzIuOTM4OTZBMjUuNDk0MTg0IDI1LjQ5NDE4NCAwIDAgMCA0Ny41NDMyMDkgMjMxLjYxMzE4OXY1NDMuMjUyNTIzaDkyOC42MTgyODNWMjMxLjYxMzE4OUEyNS40OTQxODQgMjUuNDk0MTg0IDAgMCAwIDk1MC43NjU3NDEgMjA2LjcwOTYwM2gtNzg2LjQ4MDgyM3oiIGZpbGw9IiNGRkZGRkYiIHAtaWQ9IjE1NTgwIi8+PHBhdGggZD0iTTk5NS44NDgxMjEgNzk0LjU1MjM0MUgyNy44NTY1OFYyMzEuNjEzMTg5QTQ1LjE4MDgxMyA0NS4xODA4MTMgMCAwIDEgNzIuOTM4OTYgMTg3LjAyMjk3NGg5MS4zNDU5NTh2MzkuMzczMjU4SDcyLjkzODk2YTUuNzA5MTIyIDUuNzA5MTIyIDAgMCAwLTUuNzA5MTIyIDUuNzA5MTIydjUyMy4wNzM3MjloODg5LjI0NTAyNVYyMzEuNjEzMTg5YTUuNzA5MTIyIDUuNzA5MTIyIDAgMCAwLTUuNzA5MTIyLTUuNzA5MTIzaC05MS4wNTA2NTlWMTg3LjAyMjk3NGg5MS4wNTA2NTlhNDUuMDgyMzggNDUuMDgyMzggMCAwIDEgNDUuMDgyMzggNDUuMDgyMzh6IiBmaWxsPSIjMjgyRDMzIiBwLWlkPSIxNTU4MSIvPjxwYXRoIGQ9Ik0xMjAuMTg2ODY5IDI3OS45NDM4NjJoMTE1LjQ2MjA3OHY0MjAuNTA2MzkzSDEyMC4xODY4Njl6TTc4OC4zNTEwNTMgMjc5Ljk0Mzg2MmgxMTQuMTgyNDQ3djQyMC41MDYzOTNoLTExNC4xODI0NDd6IiBmaWxsPSIjMzRDQTlEIiBwLWlkPSIxNTU4MiIvPjxwYXRoIGQ9Ik03ODAuMzc3OTY4IDE4OS43NzkxMDJoMzkuMzczMjU4djUxMC42NzExNTNoLTM5LjM3MzI1OHpNMjQ0LjgwMzIzIDcwMC40NTAyNTVoLTM5LjM3MzI1OFYwaDQzNC4zODU0NjZ2MzkuMzczMjU4SDI0NC44MDMyM3Y2NjEuMDc2OTk3eiIgZmlsbD0iIzI4MkQzMyIgcC1pZD0iMTU1ODMiLz48cGF0aCBkPSJNNjY2Ljg4NDU1MyAxNTIuOTY1MTA2aDE1MS42ODU0NzVMNjY2Ljg4NDU1MyAxLjE4MTE5OHYxNTEuNzgzOTA4eiIgZmlsbD0iI0Y4QzQ0RiIgcC1pZD0iMTU1ODQiLz48cGF0aCBkPSJNMzIxLjU4MTA4MiAxODYuNjI5MjQyaDIxNS42NjcwMnYzOS4zNzMyNTdIMzIxLjU4MTA4MnpNMzIxLjU4MTA4MiAyNzIuMzY0NTFoMzY5LjYxNjQ1N3YzOS4zNzMyNThIMzIxLjU4MTA4MnpNMzIxLjU4MTA4MiAzNTguMDk5Nzc5aDM2OS42MTY0NTd2MzkuMzczMjU4SDMyMS41ODEwODJ6TTMyMS41ODEwODIgNDQzLjgzNTA0OGgzNjkuNjE2NDU3djM5LjM3MzI1N0gzMjEuNTgxMDgyek0zMjEuNTgxMDgyIDUyOS42Njg3NDloMzY5LjYxNjQ1N3YzOS4zNzMyNThIMzIxLjU4MTA4MnpNMzIxLjU4MTA4MiA2MTUuNDA0MDE4aDM2OS42MTY0NTd2MzkuMzczMjU4SDMyMS41ODEwODJ6IiBmaWxsPSIjMjgyRDMzIiBwLWlkPSIxNTU4NSIvPjwvc3ZnPg==;fontFamily=Noto Serif SC;fontSource=https%3A%2F%2Ffonts.googleapis.com%2Fcss%3Ffamily%3DNoto%2BSerif%2BSC;" parent="1" vertex="1">
          <mxGeometry x="1151" y="697.06" width="56" height="59.19" as="geometry" />
        </mxCell>
        <mxCell id="DpVvjFUGl3h-d2AKM0as-32" value="Application" style="rounded=1;fillColor=#dae8fc;strokeColor=#6c8ebf;fontFamily=Verdana;fontSize=24;" parent="1" vertex="1">
          <mxGeometry x="1414" y="425" width="373" height="54" as="geometry" />
        </mxCell>
        <mxCell id="DpVvjFUGl3h-d2AKM0as-33" value="LoRaWAN MAC" style="rounded=1;fillColor=#fff2cc;strokeColor=#d6b656;fontFamily=Verdana;fontSize=24;" parent="1" vertex="1">
          <mxGeometry x="1416" y="493" width="373" height="54" as="geometry" />
        </mxCell>
        <mxCell id="DpVvjFUGl3h-d2AKM0as-35" value="MAC Options" style="rounded=1;fillColor=#fff2cc;strokeColor=#d6b656;fontFamily=Verdana;fontSize=18;" parent="1" vertex="1">
          <mxGeometry x="1414" y="561" width="373" height="29" as="geometry" />
        </mxCell>
        <mxCell id="DpVvjFUGl3h-d2AKM0as-36" value="Class A" style="rounded=1;fillColor=#fff2cc;strokeColor=#d6b656;fontFamily=Verdana;fontSize=24;" parent="1" vertex="1">
          <mxGeometry x="1418" y="604" width="106" height="54" as="geometry" />
        </mxCell>
        <mxCell id="DpVvjFUGl3h-d2AKM0as-38" value="Class B" style="rounded=1;fillColor=#fff2cc;strokeColor=#d6b656;fontFamily=Verdana;fontSize=24;" parent="1" vertex="1">
          <mxGeometry x="1549.5" y="604" width="106" height="54" as="geometry" />
        </mxCell>
        <mxCell id="DpVvjFUGl3h-d2AKM0as-39" value="Class C" style="rounded=1;fillColor=#fff2cc;strokeColor=#d6b656;fontFamily=Verdana;fontSize=24;" parent="1" vertex="1">
          <mxGeometry x="1681" y="604" width="106" height="54" as="geometry" />
        </mxCell>
        <mxCell id="DpVvjFUGl3h-d2AKM0as-40" value="LoRa Modulation" style="rounded=1;fillColor=#cce5ff;strokeColor=#6C8EBF;fontFamily=Verdana;fontSize=24;" parent="1" vertex="1">
          <mxGeometry x="1414" y="672" width="373" height="54" as="geometry" />
        </mxCell>
        <mxCell id="DpVvjFUGl3h-d2AKM0as-41" value="Regional ISM Band" style="rounded=1;fillColor=#d5e8d4;strokeColor=#82b366;fontFamily=Verdana;fontSize=18;" parent="1" vertex="1">
          <mxGeometry x="1414" y="740" width="373" height="29" as="geometry" />
        </mxCell>
        <mxCell id="DpVvjFUGl3h-d2AKM0as-43" value="EU 868" style="rounded=1;fillColor=#d5e8d4;strokeColor=#82b366;fontFamily=Verdana;fontSize=24;" parent="1" vertex="1">
          <mxGeometry x="1416" y="782" width="96" height="54" as="geometry" />
        </mxCell>
        <mxCell id="DpVvjFUGl3h-d2AKM0as-46" value="EU 433" style="rounded=1;fillColor=#d5e8d4;strokeColor=#82b366;fontFamily=Verdana;fontSize=24;" parent="1" vertex="1">
          <mxGeometry x="1520" y="782" width="96" height="54" as="geometry" />
        </mxCell>
        <mxCell id="DpVvjFUGl3h-d2AKM0as-47" value="US 915" style="rounded=1;fillColor=#d5e8d4;strokeColor=#82b366;fontFamily=Verdana;fontSize=24;" parent="1" vertex="1">
          <mxGeometry x="1624" y="782" width="96" height="54" as="geometry" />
        </mxCell>
        <mxCell id="DpVvjFUGl3h-d2AKM0as-48" value="----" style="rounded=1;fillColor=#d5e8d4;strokeColor=#82b366;fontFamily=Verdana;fontSize=24;" parent="1" vertex="1">
          <mxGeometry x="1728" y="782" width="57" height="54" as="geometry" />
        </mxCell>
        <mxCell id="DpVvjFUGl3h-d2AKM0as-50" value="" style="endArrow=none;dashed=1;fontSize=16;html=1;" parent="1" edge="1">
          <mxGeometry width="50" height="50" relative="1" as="geometry">
            <mxPoint x="1805" y="493" as="sourcePoint" />
            <mxPoint x="2082" y="493" as="targetPoint" />
          </mxGeometry>
        </mxCell>
        <mxCell id="DpVvjFUGl3h-d2AKM0as-51" value="" style="endArrow=none;dashed=1;fontSize=16;html=1;" parent="1" edge="1">
          <mxGeometry width="50" height="50" relative="1" as="geometry">
            <mxPoint x="1803" y="656.57" as="sourcePoint" />
            <mxPoint x="2080" y="656.57" as="targetPoint" />
          </mxGeometry>
        </mxCell>
        <mxCell id="DpVvjFUGl3h-d2AKM0as-52" value="Mac层" style="text;align=center;verticalAlign=middle;resizable=0;points=[];autosize=1;strokeColor=none;fillColor=none;fontSize=30;fontFamily=Verdana;" parent="1" vertex="1">
          <mxGeometry x="1878" y="557" width="99" height="40" as="geometry" />
        </mxCell>
        <mxCell id="DpVvjFUGl3h-d2AKM0as-53" value="物理层" style="text;align=center;verticalAlign=middle;resizable=0;points=[];autosize=1;strokeColor=none;fillColor=none;fontSize=30;fontFamily=Verdana;" parent="1" vertex="1">
          <mxGeometry x="1878" y="734.5" width="100" height="40" as="geometry" />
        </mxCell>
        <mxCell id="DpVvjFUGl3h-d2AKM0as-54" value="前导码" style="rounded=0;fontFamily=Noto Serif SC;fontSource=https%3A%2F%2Ffonts.googleapis.com%2Fcss%3Ffamily%3DNoto%2BSerif%2BSC;fontSize=24;strokeColor=#d79b00;fillColor=#ffe6cc;" parent="1" vertex="1">
          <mxGeometry x="985" y="1103" width="226" height="79" as="geometry" />
        </mxCell>
        <mxCell id="DpVvjFUGl3h-d2AKM0as-55" value="帧头" style="rounded=0;fontFamily=Noto Serif SC;fontSource=https%3A%2F%2Ffonts.googleapis.com%2Fcss%3Ffamily%3DNoto%2BSerif%2BSC;fontSize=24;strokeColor=#d79b00;fillColor=#ffe6cc;" parent="1" vertex="1">
          <mxGeometry x="1211" y="1103" width="132" height="42" as="geometry" />
        </mxCell>
        <mxCell id="DpVvjFUGl3h-d2AKM0as-56" value="CRC" style="rounded=0;fontFamily=Noto Serif SC;fontSource=https%3A%2F%2Ffonts.googleapis.com%2Fcss%3Ffamily%3DNoto%2BSerif%2BSC;fontSize=24;strokeColor=#d79b00;fillColor=#ffe6cc;" parent="1" vertex="1">
          <mxGeometry x="1343" y="1103" width="132" height="42" as="geometry" />
        </mxCell>
        <mxCell id="DpVvjFUGl3h-d2AKM0as-57" value="（仅显示格式存在）" style="rounded=0;fontFamily=Noto Serif SC;fontSource=https%3A%2F%2Ffonts.googleapis.com%2Fcss%3Ffamily%3DNoto%2BSerif%2BSC;fontSize=18;strokeColor=#d79b00;fillColor=#ffe6cc;" parent="1" vertex="1">
          <mxGeometry x="1211" y="1145" width="264" height="37" as="geometry" />
        </mxCell>
        <mxCell id="DpVvjFUGl3h-d2AKM0as-58" value="负载" style="rounded=0;fontFamily=Noto Serif SC;fontSource=https%3A%2F%2Ffonts.googleapis.com%2Fcss%3Ffamily%3DNoto%2BSerif%2BSC;fontSize=24;strokeColor=#d79b00;fillColor=#ffe6cc;" parent="1" vertex="1">
          <mxGeometry x="1475" y="1103" width="273" height="79" as="geometry" />
        </mxCell>
        <mxCell id="DpVvjFUGl3h-d2AKM0as-59" value="负载CRC" style="rounded=0;fontFamily=Noto Serif SC;fontSource=https%3A%2F%2Ffonts.googleapis.com%2Fcss%3Ffamily%3DNoto%2BSerif%2BSC;fontSize=24;strokeColor=#d79b00;fillColor=#ffe6cc;" parent="1" vertex="1">
          <mxGeometry x="1748" y="1103" width="155" height="79" as="geometry" />
        </mxCell>
        <mxCell id="DpVvjFUGl3h-d2AKM0as-60" value="" style="endArrow=classic;startArrow=classic;html=1;fontFamily=Noto Serif SC;fontSource=https%3A%2F%2Ffonts.googleapis.com%2Fcss%3Ffamily%3DNoto%2BSerif%2BSC;fontSize=24;fillColor=#dae8fc;strokeColor=#6c8ebf;strokeWidth=2;shadow=0;" parent="1" edge="1">
          <mxGeometry width="50" height="50" relative="1" as="geometry">
            <mxPoint x="987" y="1082" as="sourcePoint" />
            <mxPoint x="1206" y="1082" as="targetPoint" />
          </mxGeometry>
        </mxCell>
        <mxCell id="DpVvjFUGl3h-d2AKM0as-61" value="nPreamble符号长度" style="text;strokeColor=none;fillColor=none;align=center;verticalAlign=middle;rounded=0;fontFamily=Noto Serif SC;fontSource=https%3A%2F%2Ffonts.googleapis.com%2Fcss%3Ffamily%3DNoto%2BSerif%2BSC;fontSize=24;" parent="1" vertex="1">
          <mxGeometry x="975" y="1042" width="234" height="20" as="geometry" />
        </mxCell>
        <mxCell id="DpVvjFUGl3h-d2AKM0as-62" value="" style="endArrow=classic;startArrow=classic;html=1;fontFamily=Noto Serif SC;fontSource=https%3A%2F%2Ffonts.googleapis.com%2Fcss%3Ffamily%3DNoto%2BSerif%2BSC;fontSize=24;fillColor=#dae8fc;strokeColor=#6c8ebf;strokeWidth=2;shadow=0;" parent="1" edge="1">
          <mxGeometry width="50" height="50" relative="1" as="geometry">
            <mxPoint x="1207" y="1082" as="sourcePoint" />
            <mxPoint x="1475" y="1082" as="targetPoint" />
          </mxGeometry>
        </mxCell>
        <mxCell id="DpVvjFUGl3h-d2AKM0as-63" value="nHeader符号长度" style="text;strokeColor=none;fillColor=none;align=center;verticalAlign=middle;rounded=0;fontFamily=Noto Serif SC;fontSource=https%3A%2F%2Ffonts.googleapis.com%2Fcss%3Ffamily%3DNoto%2BSerif%2BSC;fontSize=24;" parent="1" vertex="1">
          <mxGeometry x="1226" y="1040" width="234" height="20" as="geometry" />
        </mxCell>
        <mxCell id="DpVvjFUGl3h-d2AKM0as-76" value="" style="group;fontSize=28;" parent="1" vertex="1" connectable="0">
          <mxGeometry x="2660" y="204" width="756" height="83" as="geometry" />
        </mxCell>
        <mxCell id="DpVvjFUGl3h-d2AKM0as-64" value="前导码" style="rounded=0;fontFamily=Noto Serif SC;fontSource=https%3A%2F%2Ffonts.googleapis.com%2Fcss%3Ffamily%3DNoto%2BSerif%2BSC;fontSize=28;strokeColor=#666666;fontColor=#333333;fillColor=#CCCCCC;" parent="DpVvjFUGl3h-d2AKM0as-76" vertex="1">
          <mxGeometry width="180" height="79" as="geometry" />
        </mxCell>
        <mxCell id="DpVvjFUGl3h-d2AKM0as-68" value="负载" style="rounded=0;fontFamily=Noto Serif SC;fontSource=https%3A%2F%2Ffonts.googleapis.com%2Fcss%3Ffamily%3DNoto%2BSerif%2BSC;fontSize=28;strokeColor=#6c8ebf;fillColor=#dae8fc;" parent="DpVvjFUGl3h-d2AKM0as-76" vertex="1">
          <mxGeometry x="383" width="210" height="79" as="geometry" />
        </mxCell>
        <mxCell id="DpVvjFUGl3h-d2AKM0as-69" value="负载CRC" style="rounded=0;fontFamily=Noto Serif SC;fontSource=https%3A%2F%2Ffonts.googleapis.com%2Fcss%3Ffamily%3DNoto%2BSerif%2BSC;fontSize=28;strokeColor=#666666;fillColor=#f5f5f5;fontColor=#333333;" parent="DpVvjFUGl3h-d2AKM0as-76" vertex="1">
          <mxGeometry x="593" width="155" height="79" as="geometry" />
        </mxCell>
        <mxCell id="DpVvjFUGl3h-d2AKM0as-70" value="帧头+CRC" style="rounded=0;fontFamily=Noto Serif SC;fontSource=https%3A%2F%2Ffonts.googleapis.com%2Fcss%3Ffamily%3DNoto%2BSerif%2BSC;fontSize=28;strokeColor=#d6b656;fillColor=#fff2cc;" parent="DpVvjFUGl3h-d2AKM0as-76" vertex="1">
          <mxGeometry x="180" width="203" height="79" as="geometry" />
        </mxCell>
        <mxCell id="DpVvjFUGl3h-d2AKM0as-94" value="" style="rounded=0;fontFamily=Noto Serif SC;fontSource=https%3A%2F%2Ffonts.googleapis.com%2Fcss%3Ffamily%3DNoto%2BSerif%2BSC;fontSize=28;strokeColor=#6C8EBF;sketch=1;glass=0;fillStyle=auto;shadow=0;imageAspect=1;allowArrows=1;curveFitting=21;simplification=0;sketchStyle=rough;hachureAngle=-41;hachureGap=-1;jiggle=1;connectable=1;fixDash=0;collapsible=0;dropTarget=0;fillColor=#B3B3B3;" parent="DpVvjFUGl3h-d2AKM0as-76" vertex="1">
          <mxGeometry x="92" width="656" height="79" as="geometry" />
        </mxCell>
        <mxCell id="DpVvjFUGl3h-d2AKM0as-81" value="" style="group;fontSize=28;" parent="1" vertex="1" connectable="0">
          <mxGeometry x="2753" y="300" width="748" height="114" as="geometry" />
        </mxCell>
        <mxCell id="DpVvjFUGl3h-d2AKM0as-82" value="前导码" style="rounded=0;fontFamily=Noto Serif SC;fontSource=https%3A%2F%2Ffonts.googleapis.com%2Fcss%3Ffamily%3DNoto%2BSerif%2BSC;fontSize=28;strokeColor=#666666;fontColor=#333333;fillColor=#CCCCCC;" parent="DpVvjFUGl3h-d2AKM0as-81" vertex="1">
          <mxGeometry width="180" height="114.00000000000001" as="geometry" />
        </mxCell>
        <mxCell id="DpVvjFUGl3h-d2AKM0as-83" value="负载" style="rounded=0;fontFamily=Noto Serif SC;fontSource=https%3A%2F%2Ffonts.googleapis.com%2Fcss%3Ffamily%3DNoto%2BSerif%2BSC;fontSize=28;strokeColor=#6c8ebf;fillColor=#dae8fc;" parent="DpVvjFUGl3h-d2AKM0as-81" vertex="1">
          <mxGeometry x="383" width="210" height="114.00000000000001" as="geometry" />
        </mxCell>
        <mxCell id="DpVvjFUGl3h-d2AKM0as-84" value="负载CRC" style="rounded=0;fontFamily=Noto Serif SC;fontSource=https%3A%2F%2Ffonts.googleapis.com%2Fcss%3Ffamily%3DNoto%2BSerif%2BSC;fontSize=28;strokeColor=#666666;fillColor=#f5f5f5;fontColor=#333333;" parent="DpVvjFUGl3h-d2AKM0as-81" vertex="1">
          <mxGeometry x="593" width="155" height="114.00000000000001" as="geometry" />
        </mxCell>
        <mxCell id="DpVvjFUGl3h-d2AKM0as-85" value="帧头+CRC" style="rounded=0;fontFamily=Noto Serif SC;fontSource=https%3A%2F%2Ffonts.googleapis.com%2Fcss%3Ffamily%3DNoto%2BSerif%2BSC;fontSize=28;strokeColor=#d6b656;fillColor=#fff2cc;" parent="DpVvjFUGl3h-d2AKM0as-81" vertex="1">
          <mxGeometry x="180" width="203" height="114.00000000000001" as="geometry" />
        </mxCell>
        <mxCell id="8ZXEwKc2KO_ZocW0R9eS-1" value="" style="rounded=0;fontFamily=Noto Serif SC;fontSource=https%3A%2F%2Ffonts.googleapis.com%2Fcss%3Ffamily%3DNoto%2BSerif%2BSC;fontSize=28;strokeColor=#6C8EBF;sketch=1;glass=0;fillStyle=auto;shadow=0;imageAspect=1;allowArrows=1;curveFitting=21;simplification=0;sketchStyle=rough;hachureAngle=-41;hachureGap=-1;jiggle=1;connectable=1;fixDash=0;collapsible=0;dropTarget=0;fillColor=#B3B3B3;" parent="DpVvjFUGl3h-d2AKM0as-81" vertex="1">
          <mxGeometry width="747" height="113" as="geometry" />
        </mxCell>
        <mxCell id="DpVvjFUGl3h-d2AKM0as-88" value="" style="endArrow=classic;startArrow=classic;shadow=0;fontFamily=Noto Serif SC;fontSource=https%3A%2F%2Ffonts.googleapis.com%2Fcss%3Ffamily%3DNoto%2BSerif%2BSC;fontSize=18;strokeWidth=2;" parent="1" edge="1">
          <mxGeometry width="50" height="50" relative="1" as="geometry">
            <mxPoint x="2660" y="173" as="sourcePoint" />
            <mxPoint x="2753" y="173" as="targetPoint" />
          </mxGeometry>
        </mxCell>
        <mxCell id="DpVvjFUGl3h-d2AKM0as-89" value="4符号长度" style="text;align=center;verticalAlign=middle;resizable=0;points=[];autosize=1;strokeColor=none;fillColor=none;fontSize=18;fontFamily=Noto Serif SC;" parent="1" vertex="1">
          <mxGeometry x="2662" y="134" width="92" height="26" as="geometry" />
        </mxCell>
        <mxCell id="DpVvjFUGl3h-d2AKM0as-91" value="" style="endArrow=classic;startArrow=classic;shadow=0;fontFamily=Noto Serif SC;fontSource=https%3A%2F%2Ffonts.googleapis.com%2Fcss%3Ffamily%3DNoto%2BSerif%2BSC;fontSize=18;strokeWidth=2;" parent="1" edge="1">
          <mxGeometry width="50" height="50" relative="1" as="geometry">
            <mxPoint x="2752" y="173" as="sourcePoint" />
            <mxPoint x="3499" y="173" as="targetPoint" />
          </mxGeometry>
        </mxCell>
        <mxCell id="DpVvjFUGl3h-d2AKM0as-92" value="帧丢失" style="text;align=center;verticalAlign=middle;resizable=0;points=[];autosize=1;strokeColor=none;fillColor=none;fontSize=18;fontFamily=Noto Serif SC;" parent="1" vertex="1">
          <mxGeometry x="3115" y="134" width="64" height="26" as="geometry" />
        </mxCell>
        <mxCell id="8ZXEwKc2KO_ZocW0R9eS-2" value="" style="endArrow=classic;startArrow=none;shadow=0;fontFamily=Noto Serif SC;fontSource=https%3A%2F%2Ffonts.googleapis.com%2Fcss%3Ffamily%3DNoto%2BSerif%2BSC;fontSize=18;strokeWidth=2;startFill=0;" parent="1" edge="1">
          <mxGeometry width="50" height="50" relative="1" as="geometry">
            <mxPoint x="2621" y="440" as="sourcePoint" />
            <mxPoint x="3589" y="440" as="targetPoint" />
          </mxGeometry>
        </mxCell>
        <mxCell id="8ZXEwKc2KO_ZocW0R9eS-3" value="时间" style="text;align=center;verticalAlign=middle;resizable=0;points=[];autosize=1;strokeColor=none;fillColor=none;fontSize=28;fontFamily=Noto Serif SC;" parent="1" vertex="1">
          <mxGeometry x="3068" y="456" width="66" height="38" as="geometry" />
        </mxCell>
        <mxCell id="DpVvjFUGl3h-d2AKM0as-86" value="" style="endArrow=none;dashed=1;shadow=0;fontFamily=Noto Serif SC;fontSource=https%3A%2F%2Ffonts.googleapis.com%2Fcss%3Ffamily%3DNoto%2BSerif%2BSC;fontSize=18;strokeWidth=2;fillColor=#f8cecc;strokeColor=#FF3333;" parent="1" edge="1">
          <mxGeometry width="50" height="50" relative="1" as="geometry">
            <mxPoint x="2660" y="437" as="sourcePoint" />
            <mxPoint x="2660" y="151" as="targetPoint" />
          </mxGeometry>
        </mxCell>
        <mxCell id="DpVvjFUGl3h-d2AKM0as-87" value="" style="endArrow=none;dashed=1;shadow=0;fontFamily=Noto Serif SC;fontSource=https%3A%2F%2Ffonts.googleapis.com%2Fcss%3Ffamily%3DNoto%2BSerif%2BSC;fontSize=18;strokeWidth=2;fillColor=#f8cecc;strokeColor=#FF3333;" parent="1" edge="1">
          <mxGeometry width="50" height="50" relative="1" as="geometry">
            <mxPoint x="2753" y="440" as="sourcePoint" />
            <mxPoint x="2753" y="148" as="targetPoint" />
          </mxGeometry>
        </mxCell>
        <mxCell id="DpVvjFUGl3h-d2AKM0as-90" value="" style="endArrow=none;dashed=1;shadow=0;fontFamily=Noto Serif SC;fontSource=https%3A%2F%2Ffonts.googleapis.com%2Fcss%3Ffamily%3DNoto%2BSerif%2BSC;fontSize=18;strokeWidth=2;fillColor=#f8cecc;strokeColor=#FF3333;" parent="1" edge="1">
          <mxGeometry width="50" height="50" relative="1" as="geometry">
            <mxPoint x="3501" y="440" as="sourcePoint" />
            <mxPoint x="3501" y="148" as="targetPoint" />
          </mxGeometry>
        </mxCell>
        <mxCell id="8ZXEwKc2KO_ZocW0R9eS-4" value="较强帧" style="text;align=center;verticalAlign=middle;resizable=0;points=[];autosize=1;strokeColor=none;fillColor=none;fontSize=28;fontFamily=Noto Serif SC;" parent="1" vertex="1">
          <mxGeometry x="2544" y="226.5" width="94" height="38" as="geometry" />
        </mxCell>
        <mxCell id="8ZXEwKc2KO_ZocW0R9eS-5" value="较弱帧" style="text;align=center;verticalAlign=middle;resizable=0;points=[];autosize=1;strokeColor=none;fillColor=none;fontSize=28;fontFamily=Noto Serif SC;" parent="1" vertex="1">
          <mxGeometry x="2544" y="338" width="94" height="38" as="geometry" />
        </mxCell>
        <mxCell id="8ZXEwKc2KO_ZocW0R9eS-6" value="" style="group;fontSize=28;" parent="1" vertex="1" connectable="0">
          <mxGeometry x="2660" y="642" width="756" height="83" as="geometry" />
        </mxCell>
        <mxCell id="8ZXEwKc2KO_ZocW0R9eS-7" value="前导码" style="rounded=0;fontFamily=Noto Serif SC;fontSource=https%3A%2F%2Ffonts.googleapis.com%2Fcss%3Ffamily%3DNoto%2BSerif%2BSC;fontSize=28;strokeColor=#666666;fontColor=#333333;fillColor=#CCCCCC;" parent="8ZXEwKc2KO_ZocW0R9eS-6" vertex="1">
          <mxGeometry width="180" height="79" as="geometry" />
        </mxCell>
        <mxCell id="8ZXEwKc2KO_ZocW0R9eS-8" value="负载" style="rounded=0;fontFamily=Noto Serif SC;fontSource=https%3A%2F%2Ffonts.googleapis.com%2Fcss%3Ffamily%3DNoto%2BSerif%2BSC;fontSize=28;strokeColor=#6c8ebf;fillColor=#dae8fc;" parent="8ZXEwKc2KO_ZocW0R9eS-6" vertex="1">
          <mxGeometry x="383" width="210" height="79" as="geometry" />
        </mxCell>
        <mxCell id="8ZXEwKc2KO_ZocW0R9eS-9" value="负载CRC" style="rounded=0;fontFamily=Noto Serif SC;fontSource=https%3A%2F%2Ffonts.googleapis.com%2Fcss%3Ffamily%3DNoto%2BSerif%2BSC;fontSize=28;strokeColor=#666666;fillColor=#f5f5f5;fontColor=#333333;" parent="8ZXEwKc2KO_ZocW0R9eS-6" vertex="1">
          <mxGeometry x="593" width="155" height="79" as="geometry" />
        </mxCell>
        <mxCell id="8ZXEwKc2KO_ZocW0R9eS-10" value="帧头+CRC" style="rounded=0;fontFamily=Noto Serif SC;fontSource=https%3A%2F%2Ffonts.googleapis.com%2Fcss%3Ffamily%3DNoto%2BSerif%2BSC;fontSize=28;strokeColor=#d6b656;fillColor=#fff2cc;" parent="8ZXEwKc2KO_ZocW0R9eS-6" vertex="1">
          <mxGeometry x="180" width="203" height="79" as="geometry" />
        </mxCell>
        <mxCell id="8ZXEwKc2KO_ZocW0R9eS-11" value="" style="rounded=0;fontFamily=Noto Serif SC;fontSource=https%3A%2F%2Ffonts.googleapis.com%2Fcss%3Ffamily%3DNoto%2BSerif%2BSC;fontSize=28;strokeColor=#6C8EBF;sketch=1;glass=0;fillStyle=auto;shadow=0;imageAspect=1;allowArrows=1;curveFitting=21;simplification=0;sketchStyle=rough;hachureAngle=-41;hachureGap=-1;jiggle=1;connectable=1;fixDash=0;collapsible=0;dropTarget=0;fillColor=#B3B3B3;" parent="8ZXEwKc2KO_ZocW0R9eS-6" vertex="1">
          <mxGeometry x="290" width="458" height="79" as="geometry" />
        </mxCell>
        <mxCell id="8ZXEwKc2KO_ZocW0R9eS-18" value="" style="endArrow=classic;startArrow=classic;shadow=0;fontFamily=Noto Serif SC;fontSource=https%3A%2F%2Ffonts.googleapis.com%2Fcss%3Ffamily%3DNoto%2BSerif%2BSC;fontSize=18;strokeWidth=2;" parent="1" edge="1">
          <mxGeometry width="50" height="50" relative="1" as="geometry">
            <mxPoint x="2660" y="611" as="sourcePoint" />
            <mxPoint x="2753" y="611" as="targetPoint" />
          </mxGeometry>
        </mxCell>
        <mxCell id="8ZXEwKc2KO_ZocW0R9eS-19" value="4符号长度" style="text;align=center;verticalAlign=middle;resizable=0;points=[];autosize=1;strokeColor=none;fillColor=none;fontSize=18;fontFamily=Noto Serif SC;" parent="1" vertex="1">
          <mxGeometry x="2662" y="572" width="92" height="26" as="geometry" />
        </mxCell>
        <mxCell id="8ZXEwKc2KO_ZocW0R9eS-22" value="" style="endArrow=classic;startArrow=none;shadow=0;fontFamily=Noto Serif SC;fontSource=https%3A%2F%2Ffonts.googleapis.com%2Fcss%3Ffamily%3DNoto%2BSerif%2BSC;fontSize=18;strokeWidth=2;startFill=0;" parent="1" edge="1">
          <mxGeometry width="50" height="50" relative="1" as="geometry">
            <mxPoint x="2621" y="878" as="sourcePoint" />
            <mxPoint x="3589" y="878" as="targetPoint" />
          </mxGeometry>
        </mxCell>
        <mxCell id="8ZXEwKc2KO_ZocW0R9eS-23" value="时间" style="text;align=center;verticalAlign=middle;resizable=0;points=[];autosize=1;strokeColor=none;fillColor=none;fontSize=28;fontFamily=Noto Serif SC;" parent="1" vertex="1">
          <mxGeometry x="3068" y="894" width="66" height="38" as="geometry" />
        </mxCell>
        <mxCell id="8ZXEwKc2KO_ZocW0R9eS-24" value="" style="endArrow=none;dashed=1;shadow=0;fontFamily=Noto Serif SC;fontSource=https%3A%2F%2Ffonts.googleapis.com%2Fcss%3Ffamily%3DNoto%2BSerif%2BSC;fontSize=18;strokeWidth=2;fillColor=#f8cecc;strokeColor=#FF3333;" parent="1" edge="1">
          <mxGeometry width="50" height="50" relative="1" as="geometry">
            <mxPoint x="2660" y="875" as="sourcePoint" />
            <mxPoint x="2660" y="589" as="targetPoint" />
          </mxGeometry>
        </mxCell>
        <mxCell id="8ZXEwKc2KO_ZocW0R9eS-25" value="" style="endArrow=none;dashed=1;shadow=0;fontFamily=Noto Serif SC;fontSource=https%3A%2F%2Ffonts.googleapis.com%2Fcss%3Ffamily%3DNoto%2BSerif%2BSC;fontSize=18;strokeWidth=2;fillColor=#f8cecc;strokeColor=#FF3333;" parent="1" edge="1">
          <mxGeometry width="50" height="50" relative="1" as="geometry">
            <mxPoint x="2753" y="878" as="sourcePoint" />
            <mxPoint x="2753" y="586" as="targetPoint" />
          </mxGeometry>
        </mxCell>
        <mxCell id="8ZXEwKc2KO_ZocW0R9eS-27" value="较强帧" style="text;align=center;verticalAlign=middle;resizable=0;points=[];autosize=1;strokeColor=none;fillColor=none;fontSize=28;fontFamily=Noto Serif SC;" parent="1" vertex="1">
          <mxGeometry x="2544" y="664.5" width="94" height="38" as="geometry" />
        </mxCell>
        <mxCell id="8ZXEwKc2KO_ZocW0R9eS-28" value="较弱帧" style="text;align=center;verticalAlign=middle;resizable=0;points=[];autosize=1;strokeColor=none;fillColor=none;fontSize=28;fontFamily=Noto Serif SC;" parent="1" vertex="1">
          <mxGeometry x="2544" y="776" width="94" height="38" as="geometry" />
        </mxCell>
        <mxCell id="8ZXEwKc2KO_ZocW0R9eS-13" value="前导码" style="rounded=0;fontFamily=Noto Serif SC;fontSource=https%3A%2F%2Ffonts.googleapis.com%2Fcss%3Ffamily%3DNoto%2BSerif%2BSC;fontSize=28;strokeColor=#666666;fontColor=#333333;fillColor=#CCCCCC;" parent="1" vertex="1">
          <mxGeometry x="2997" y="743" width="180" height="114.00000000000001" as="geometry" />
        </mxCell>
        <mxCell id="8ZXEwKc2KO_ZocW0R9eS-16" value="帧头+CRC" style="rounded=0;fontFamily=Noto Serif SC;fontSource=https%3A%2F%2Ffonts.googleapis.com%2Fcss%3Ffamily%3DNoto%2BSerif%2BSC;fontSize=28;strokeColor=#d6b656;fillColor=#fff2cc;" parent="1" vertex="1">
          <mxGeometry x="3177" y="743" width="203" height="114.00000000000001" as="geometry" />
        </mxCell>
        <mxCell id="8ZXEwKc2KO_ZocW0R9eS-30" value="" style="shape=document;boundedLbl=1;shadow=0;sketch=0;hachureGap=-1;hachureAngle=-41;jiggle=1;curveFitting=21;simplification=0;sketchStyle=rough;fontSize=28;fillColor=#dae8fc;gradientDirection=south;rotation=-90;strokeColor=#6c8ebf;size=0.12896889984292179;" parent="1" vertex="1">
          <mxGeometry x="3429" y="692" width="114" height="216" as="geometry" />
        </mxCell>
        <mxCell id="8ZXEwKc2KO_ZocW0R9eS-29" value="" style="endArrow=none;dashed=1;shadow=0;fontFamily=Noto Serif SC;fontSource=https%3A%2F%2Ffonts.googleapis.com%2Fcss%3Ffamily%3DNoto%2BSerif%2BSC;fontSize=18;strokeWidth=2;fillColor=#f8cecc;strokeColor=#FF3333;" parent="1" edge="1">
          <mxGeometry width="50" height="50" relative="1" as="geometry">
            <mxPoint x="2949" y="879.9999999999998" as="sourcePoint" />
            <mxPoint x="2949" y="594" as="targetPoint" />
          </mxGeometry>
        </mxCell>
        <mxCell id="8ZXEwKc2KO_ZocW0R9eS-35" value="无效头" style="text;align=center;verticalAlign=middle;resizable=0;points=[];autosize=1;strokeColor=none;fillColor=none;fontSize=20;fontFamily=Noto Serif SC;" parent="1" vertex="1">
          <mxGeometry x="2864" y="764.81" width="70" height="28" as="geometry" />
        </mxCell>
        <mxCell id="8ZXEwKc2KO_ZocW0R9eS-36" value="" style="endArrow=classic;html=1;fontSize=28;strokeWidth=2;" parent="1" edge="1">
          <mxGeometry width="50" height="50" relative="1" as="geometry">
            <mxPoint x="3472" y="645" as="sourcePoint" />
            <mxPoint x="3424" y="672" as="targetPoint" />
          </mxGeometry>
        </mxCell>
        <mxCell id="8ZXEwKc2KO_ZocW0R9eS-38" value="帧丢失" style="text;align=center;verticalAlign=middle;resizable=0;points=[];autosize=1;strokeColor=none;fillColor=none;fontSize=20;fontFamily=Noto Serif SC;" parent="1" vertex="1">
          <mxGeometry x="3471" y="609.1" width="70" height="28" as="geometry" />
        </mxCell>
        <mxCell id="8ZXEwKc2KO_ZocW0R9eS-32" value="" style="endArrow=none;dashed=1;shadow=0;fontFamily=Noto Serif SC;fontSource=https%3A%2F%2Ffonts.googleapis.com%2Fcss%3Ffamily%3DNoto%2BSerif%2BSC;fontSize=18;strokeWidth=2;fillColor=#f8cecc;strokeColor=#FF3333;" parent="1" edge="1">
          <mxGeometry width="50" height="50" relative="1" as="geometry">
            <mxPoint x="3041.9999999999995" y="879.9999999999998" as="sourcePoint" />
            <mxPoint x="3041.9999999999995" y="594.0000000000001" as="targetPoint" />
          </mxGeometry>
        </mxCell>
        <mxCell id="8ZXEwKc2KO_ZocW0R9eS-39" value="" style="endArrow=none;dashed=1;shadow=0;fontFamily=Noto Serif SC;fontSource=https%3A%2F%2Ffonts.googleapis.com%2Fcss%3Ffamily%3DNoto%2BSerif%2BSC;fontSize=18;strokeWidth=2;fillColor=#f8cecc;strokeColor=#FF3333;" parent="1" edge="1">
          <mxGeometry width="50" height="50" relative="1" as="geometry">
            <mxPoint x="3408" y="875.9999999999998" as="sourcePoint" />
            <mxPoint x="3408" y="590" as="targetPoint" />
          </mxGeometry>
        </mxCell>
        <mxCell id="8ZXEwKc2KO_ZocW0R9eS-40" value="" style="group;fontSize=28;" parent="1" vertex="1" connectable="0">
          <mxGeometry x="2663" y="1051" width="756" height="83" as="geometry" />
        </mxCell>
        <mxCell id="8ZXEwKc2KO_ZocW0R9eS-41" value="前导码" style="rounded=0;fontFamily=Noto Serif SC;fontSource=https%3A%2F%2Ffonts.googleapis.com%2Fcss%3Ffamily%3DNoto%2BSerif%2BSC;fontSize=28;strokeColor=#666666;fontColor=#333333;fillColor=#CCCCCC;" parent="8ZXEwKc2KO_ZocW0R9eS-40" vertex="1">
          <mxGeometry width="180" height="79" as="geometry" />
        </mxCell>
        <mxCell id="8ZXEwKc2KO_ZocW0R9eS-42" value="负载" style="rounded=0;fontFamily=Noto Serif SC;fontSource=https%3A%2F%2Ffonts.googleapis.com%2Fcss%3Ffamily%3DNoto%2BSerif%2BSC;fontSize=28;strokeColor=#6c8ebf;fillColor=#dae8fc;" parent="8ZXEwKc2KO_ZocW0R9eS-40" vertex="1">
          <mxGeometry x="383" width="210" height="79" as="geometry" />
        </mxCell>
        <mxCell id="8ZXEwKc2KO_ZocW0R9eS-43" value="负载CRC" style="rounded=0;fontFamily=Noto Serif SC;fontSource=https%3A%2F%2Ffonts.googleapis.com%2Fcss%3Ffamily%3DNoto%2BSerif%2BSC;fontSize=28;strokeColor=#666666;fillColor=#f5f5f5;fontColor=#333333;" parent="8ZXEwKc2KO_ZocW0R9eS-40" vertex="1">
          <mxGeometry x="593" width="155" height="79" as="geometry" />
        </mxCell>
        <mxCell id="8ZXEwKc2KO_ZocW0R9eS-44" value="帧头+CRC" style="rounded=0;fontFamily=Noto Serif SC;fontSource=https%3A%2F%2Ffonts.googleapis.com%2Fcss%3Ffamily%3DNoto%2BSerif%2BSC;fontSize=28;strokeColor=#d6b656;fillColor=#fff2cc;" parent="8ZXEwKc2KO_ZocW0R9eS-40" vertex="1">
          <mxGeometry x="180" width="203" height="79" as="geometry" />
        </mxCell>
        <mxCell id="8ZXEwKc2KO_ZocW0R9eS-45" value="" style="rounded=0;fontFamily=Noto Serif SC;fontSource=https%3A%2F%2Ffonts.googleapis.com%2Fcss%3Ffamily%3DNoto%2BSerif%2BSC;fontSize=28;strokeColor=#6C8EBF;sketch=1;glass=0;fillStyle=auto;shadow=0;imageAspect=1;allowArrows=1;curveFitting=21;simplification=0;sketchStyle=rough;hachureAngle=-41;hachureGap=-1;jiggle=1;connectable=1;fixDash=0;collapsible=0;dropTarget=0;fillColor=#B3B3B3;" parent="8ZXEwKc2KO_ZocW0R9eS-40" vertex="1">
          <mxGeometry x="385" width="363" height="79" as="geometry" />
        </mxCell>
        <mxCell id="8ZXEwKc2KO_ZocW0R9eS-46" value="" style="endArrow=classic;html=1;fontSize=28;strokeWidth=2;" parent="8ZXEwKc2KO_ZocW0R9eS-40" edge="1">
          <mxGeometry width="50" height="50" relative="1" as="geometry">
            <mxPoint x="353" y="115" as="sourcePoint" />
            <mxPoint x="403" y="65" as="targetPoint" />
          </mxGeometry>
        </mxCell>
        <mxCell id="8ZXEwKc2KO_ZocW0R9eS-47" value="" style="endArrow=classic;startArrow=classic;shadow=0;fontFamily=Noto Serif SC;fontSource=https%3A%2F%2Ffonts.googleapis.com%2Fcss%3Ffamily%3DNoto%2BSerif%2BSC;fontSize=18;strokeWidth=2;" parent="1" edge="1">
          <mxGeometry width="50" height="50" relative="1" as="geometry">
            <mxPoint x="2663" y="1020" as="sourcePoint" />
            <mxPoint x="2756" y="1020" as="targetPoint" />
          </mxGeometry>
        </mxCell>
        <mxCell id="8ZXEwKc2KO_ZocW0R9eS-48" value="4符号长度" style="text;align=center;verticalAlign=middle;resizable=0;points=[];autosize=1;strokeColor=none;fillColor=none;fontSize=18;fontFamily=Noto Serif SC;" parent="1" vertex="1">
          <mxGeometry x="2665" y="981" width="92" height="26" as="geometry" />
        </mxCell>
        <mxCell id="8ZXEwKc2KO_ZocW0R9eS-49" value="" style="endArrow=classic;startArrow=none;shadow=0;fontFamily=Noto Serif SC;fontSource=https%3A%2F%2Ffonts.googleapis.com%2Fcss%3Ffamily%3DNoto%2BSerif%2BSC;fontSize=18;strokeWidth=2;startFill=0;" parent="1" edge="1">
          <mxGeometry width="50" height="50" relative="1" as="geometry">
            <mxPoint x="2624" y="1287" as="sourcePoint" />
            <mxPoint x="3592" y="1287" as="targetPoint" />
          </mxGeometry>
        </mxCell>
        <mxCell id="8ZXEwKc2KO_ZocW0R9eS-50" value="时间" style="text;align=center;verticalAlign=middle;resizable=0;points=[];autosize=1;strokeColor=none;fillColor=none;fontSize=28;fontFamily=Noto Serif SC;" parent="1" vertex="1">
          <mxGeometry x="3071" y="1303" width="66" height="38" as="geometry" />
        </mxCell>
        <mxCell id="8ZXEwKc2KO_ZocW0R9eS-51" value="" style="endArrow=none;dashed=1;shadow=0;fontFamily=Noto Serif SC;fontSource=https%3A%2F%2Ffonts.googleapis.com%2Fcss%3Ffamily%3DNoto%2BSerif%2BSC;fontSize=18;strokeWidth=2;fillColor=#f8cecc;strokeColor=#FF3333;" parent="1" edge="1">
          <mxGeometry width="50" height="50" relative="1" as="geometry">
            <mxPoint x="2663" y="1283.9999999999998" as="sourcePoint" />
            <mxPoint x="2663" y="998" as="targetPoint" />
          </mxGeometry>
        </mxCell>
        <mxCell id="8ZXEwKc2KO_ZocW0R9eS-52" value="" style="endArrow=none;dashed=1;shadow=0;fontFamily=Noto Serif SC;fontSource=https%3A%2F%2Ffonts.googleapis.com%2Fcss%3Ffamily%3DNoto%2BSerif%2BSC;fontSize=18;strokeWidth=2;fillColor=#f8cecc;strokeColor=#FF3333;" parent="1" edge="1">
          <mxGeometry width="50" height="50" relative="1" as="geometry">
            <mxPoint x="2756" y="1287" as="sourcePoint" />
            <mxPoint x="2756" y="995" as="targetPoint" />
          </mxGeometry>
        </mxCell>
        <mxCell id="8ZXEwKc2KO_ZocW0R9eS-53" value="较强帧" style="text;align=center;verticalAlign=middle;resizable=0;points=[];autosize=1;strokeColor=none;fillColor=none;fontSize=28;fontFamily=Noto Serif SC;" parent="1" vertex="1">
          <mxGeometry x="2547" y="1073.5" width="94" height="38" as="geometry" />
        </mxCell>
        <mxCell id="8ZXEwKc2KO_ZocW0R9eS-54" value="较弱帧" style="text;align=center;verticalAlign=middle;resizable=0;points=[];autosize=1;strokeColor=none;fillColor=none;fontSize=28;fontFamily=Noto Serif SC;" parent="1" vertex="1">
          <mxGeometry x="2547" y="1185" width="94" height="38" as="geometry" />
        </mxCell>
        <mxCell id="8ZXEwKc2KO_ZocW0R9eS-55" value="前导码" style="rounded=0;fontFamily=Noto Serif SC;fontSource=https%3A%2F%2Ffonts.googleapis.com%2Fcss%3Ffamily%3DNoto%2BSerif%2BSC;fontSize=28;strokeColor=#666666;fontColor=#333333;fillColor=#CCCCCC;" parent="1" vertex="1">
          <mxGeometry x="3075" y="1151" width="180" height="114.00000000000001" as="geometry" />
        </mxCell>
        <mxCell id="8ZXEwKc2KO_ZocW0R9eS-56" value="帧头+CRC" style="rounded=0;fontFamily=Noto Serif SC;fontSource=https%3A%2F%2Ffonts.googleapis.com%2Fcss%3Ffamily%3DNoto%2BSerif%2BSC;fontSize=28;strokeColor=#d6b656;fillColor=#fff2cc;" parent="1" vertex="1">
          <mxGeometry x="3255" y="1151" width="203" height="114.00000000000001" as="geometry" />
        </mxCell>
        <mxCell id="8ZXEwKc2KO_ZocW0R9eS-57" value="" style="shape=document;boundedLbl=1;shadow=0;sketch=0;hachureGap=-1;hachureAngle=-41;jiggle=1;curveFitting=21;simplification=0;sketchStyle=rough;fontSize=28;fillColor=#dae8fc;gradientDirection=south;rotation=-90;strokeColor=#6c8ebf;" parent="1" vertex="1">
          <mxGeometry x="3439" y="1168" width="114" height="80" as="geometry" />
        </mxCell>
        <mxCell id="8ZXEwKc2KO_ZocW0R9eS-58" value="" style="endArrow=none;dashed=1;shadow=0;fontFamily=Noto Serif SC;fontSource=https%3A%2F%2Ffonts.googleapis.com%2Fcss%3Ffamily%3DNoto%2BSerif%2BSC;fontSize=18;strokeWidth=2;fillColor=#f8cecc;strokeColor=#FF3333;" parent="1" edge="1">
          <mxGeometry width="50" height="50" relative="1" as="geometry">
            <mxPoint x="3047" y="1286.9999999999998" as="sourcePoint" />
            <mxPoint x="3047" y="1001" as="targetPoint" />
          </mxGeometry>
        </mxCell>
        <mxCell id="8ZXEwKc2KO_ZocW0R9eS-59" value="" style="rounded=0;fontFamily=Noto Serif SC;fontSource=https%3A%2F%2Ffonts.googleapis.com%2Fcss%3Ffamily%3DNoto%2BSerif%2BSC;fontSize=28;strokeColor=#6C8EBF;sketch=1;glass=0;fillStyle=auto;shadow=0;imageAspect=1;allowArrows=1;curveFitting=21;simplification=0;sketchStyle=rough;hachureAngle=-41;hachureGap=-1;jiggle=1;connectable=1;fixDash=0;collapsible=0;dropTarget=0;fillColor=#B3B3B3;" parent="1" vertex="1">
          <mxGeometry x="3075" y="1151" width="381" height="113" as="geometry" />
        </mxCell>
        <mxCell id="8ZXEwKc2KO_ZocW0R9eS-60" value="" style="shape=document;boundedLbl=1;shadow=0;sketch=1;hachureGap=-1;hachureAngle=-41;jiggle=1;curveFitting=21;simplification=0;sketchStyle=rough;fontSize=28;gradientDirection=south;rotation=-90;strokeColor=#6c8ebf;fillColor=#B3B3B3;" parent="1" vertex="1">
          <mxGeometry x="3439" y="1168" width="114" height="80" as="geometry" />
        </mxCell>
        <mxCell id="8ZXEwKc2KO_ZocW0R9eS-61" value="无效头" style="text;align=center;verticalAlign=middle;resizable=0;points=[];autosize=1;strokeColor=none;fillColor=none;fontSize=20;fontFamily=Noto Serif SC;" parent="1" vertex="1">
          <mxGeometry x="2960" y="1175" width="70" height="28" as="geometry" />
        </mxCell>
        <mxCell id="8ZXEwKc2KO_ZocW0R9eS-62" value="" style="endArrow=classic;html=1;fontSize=28;strokeWidth=2;" parent="1" edge="1">
          <mxGeometry width="50" height="50" relative="1" as="geometry">
            <mxPoint x="3475" y="1054" as="sourcePoint" />
            <mxPoint x="3427" y="1081" as="targetPoint" />
          </mxGeometry>
        </mxCell>
        <mxCell id="8ZXEwKc2KO_ZocW0R9eS-63" value="" style="endArrow=classic;html=1;fontSize=28;strokeWidth=2;" parent="1" edge="1">
          <mxGeometry width="50" height="50" relative="1" as="geometry">
            <mxPoint x="3512" y="1084" as="sourcePoint" />
            <mxPoint x="3486" y="1134" as="targetPoint" />
          </mxGeometry>
        </mxCell>
        <mxCell id="8ZXEwKc2KO_ZocW0R9eS-64" value="帧丢失" style="text;align=center;verticalAlign=middle;resizable=0;points=[];autosize=1;strokeColor=none;fillColor=none;fontSize=20;fontFamily=Noto Serif SC;" parent="1" vertex="1">
          <mxGeometry x="3493" y="1035" width="70" height="28" as="geometry" />
        </mxCell>
        <mxCell id="8ZXEwKc2KO_ZocW0R9eS-65" value="" style="endArrow=none;dashed=1;shadow=0;fontFamily=Noto Serif SC;fontSource=https%3A%2F%2Ffonts.googleapis.com%2Fcss%3Ffamily%3DNoto%2BSerif%2BSC;fontSize=18;strokeWidth=2;fillColor=#f8cecc;strokeColor=#FF3333;" parent="1" edge="1">
          <mxGeometry width="50" height="50" relative="1" as="geometry">
            <mxPoint x="3084" y="1287.9999999999998" as="sourcePoint" />
            <mxPoint x="3084" y="1002" as="targetPoint" />
          </mxGeometry>
        </mxCell>
        <mxCell id="8ZXEwKc2KO_ZocW0R9eS-66" value="" style="endArrow=none;dashed=1;shadow=0;fontFamily=Noto Serif SC;fontSource=https%3A%2F%2Ffonts.googleapis.com%2Fcss%3Ffamily%3DNoto%2BSerif%2BSC;fontSize=18;strokeWidth=2;fillColor=#f8cecc;strokeColor=#FF3333;" parent="1" edge="1">
          <mxGeometry width="50" height="50" relative="1" as="geometry">
            <mxPoint x="3411" y="1285" as="sourcePoint" />
            <mxPoint x="3411" y="999" as="targetPoint" />
          </mxGeometry>
        </mxCell>
        <mxCell id="8ZXEwKc2KO_ZocW0R9eS-67" value="负载" style="text;align=center;verticalAlign=middle;resizable=0;points=[];autosize=1;strokeColor=none;fillColor=none;fontSize=28;fontFamily=Noto Serif SC;" parent="1" vertex="1">
          <mxGeometry x="3435" y="781" width="66" height="38" as="geometry" />
        </mxCell>
        <mxCell id="8ZXEwKc2KO_ZocW0R9eS-69" value="" style="endArrow=classic;html=1;fontSize=28;strokeWidth=2;" parent="1" edge="1">
          <mxGeometry width="50" height="50" relative="1" as="geometry">
            <mxPoint x="2927" y="764" as="sourcePoint" />
            <mxPoint x="2991" y="708" as="targetPoint" />
          </mxGeometry>
        </mxCell>
        <mxCell id="8ZXEwKc2KO_ZocW0R9eS-70" value="" style="group;fontSize=28;" parent="1" vertex="1" connectable="0">
          <mxGeometry x="2702" y="1477" width="756" height="83" as="geometry" />
        </mxCell>
        <mxCell id="8ZXEwKc2KO_ZocW0R9eS-71" value="前导码" style="rounded=0;fontFamily=Noto Serif SC;fontSource=https%3A%2F%2Ffonts.googleapis.com%2Fcss%3Ffamily%3DNoto%2BSerif%2BSC;fontSize=28;strokeColor=#666666;fontColor=#333333;fillColor=#CCCCCC;" parent="8ZXEwKc2KO_ZocW0R9eS-70" vertex="1">
          <mxGeometry width="180" height="79" as="geometry" />
        </mxCell>
        <mxCell id="8ZXEwKc2KO_ZocW0R9eS-72" value="负载" style="rounded=0;fontFamily=Noto Serif SC;fontSource=https%3A%2F%2Ffonts.googleapis.com%2Fcss%3Ffamily%3DNoto%2BSerif%2BSC;fontSize=28;strokeColor=#6c8ebf;fillColor=#dae8fc;" parent="8ZXEwKc2KO_ZocW0R9eS-70" vertex="1">
          <mxGeometry x="383" width="210" height="79" as="geometry" />
        </mxCell>
        <mxCell id="8ZXEwKc2KO_ZocW0R9eS-73" value="负载CRC" style="rounded=0;fontFamily=Noto Serif SC;fontSource=https%3A%2F%2Ffonts.googleapis.com%2Fcss%3Ffamily%3DNoto%2BSerif%2BSC;fontSize=28;strokeColor=#666666;fillColor=#f5f5f5;fontColor=#333333;" parent="8ZXEwKc2KO_ZocW0R9eS-70" vertex="1">
          <mxGeometry x="593" width="155" height="79" as="geometry" />
        </mxCell>
        <mxCell id="8ZXEwKc2KO_ZocW0R9eS-74" value="帧头+CRC" style="rounded=0;fontFamily=Noto Serif SC;fontSource=https%3A%2F%2Ffonts.googleapis.com%2Fcss%3Ffamily%3DNoto%2BSerif%2BSC;fontSize=28;strokeColor=#d6b656;fillColor=#fff2cc;" parent="8ZXEwKc2KO_ZocW0R9eS-70" vertex="1">
          <mxGeometry x="180" width="203" height="79" as="geometry" />
        </mxCell>
        <mxCell id="8ZXEwKc2KO_ZocW0R9eS-75" value="" style="rounded=0;fontFamily=Noto Serif SC;fontSource=https%3A%2F%2Ffonts.googleapis.com%2Fcss%3Ffamily%3DNoto%2BSerif%2BSC;fontSize=28;strokeColor=#6C8EBF;sketch=1;glass=0;fillStyle=auto;shadow=0;imageAspect=1;allowArrows=1;curveFitting=21;simplification=0;sketchStyle=rough;hachureAngle=-41;hachureGap=-1;jiggle=1;connectable=1;fixDash=0;collapsible=0;dropTarget=0;fillColor=#B3B3B3;" parent="8ZXEwKc2KO_ZocW0R9eS-70" vertex="1">
          <mxGeometry x="385" width="363" height="79" as="geometry" />
        </mxCell>
        <mxCell id="8ZXEwKc2KO_ZocW0R9eS-76" value="" style="endArrow=classic;html=1;fontSize=28;strokeWidth=2;" parent="8ZXEwKc2KO_ZocW0R9eS-70" edge="1">
          <mxGeometry width="50" height="50" relative="1" as="geometry">
            <mxPoint x="353" y="115" as="sourcePoint" />
            <mxPoint x="403" y="65" as="targetPoint" />
          </mxGeometry>
        </mxCell>
        <mxCell id="8ZXEwKc2KO_ZocW0R9eS-77" value="" style="endArrow=classic;startArrow=classic;shadow=0;fontFamily=Noto Serif SC;fontSource=https%3A%2F%2Ffonts.googleapis.com%2Fcss%3Ffamily%3DNoto%2BSerif%2BSC;fontSize=18;strokeWidth=2;" parent="1" edge="1">
          <mxGeometry width="50" height="50" relative="1" as="geometry">
            <mxPoint x="2702" y="1445.9999999999998" as="sourcePoint" />
            <mxPoint x="2795" y="1445.9999999999998" as="targetPoint" />
          </mxGeometry>
        </mxCell>
        <mxCell id="8ZXEwKc2KO_ZocW0R9eS-78" value="4符号长度" style="text;align=center;verticalAlign=middle;resizable=0;points=[];autosize=1;strokeColor=none;fillColor=none;fontSize=18;fontFamily=Noto Serif SC;" parent="1" vertex="1">
          <mxGeometry x="2704" y="1407" width="92" height="26" as="geometry" />
        </mxCell>
        <mxCell id="8ZXEwKc2KO_ZocW0R9eS-79" value="" style="endArrow=classic;startArrow=none;shadow=0;fontFamily=Noto Serif SC;fontSource=https%3A%2F%2Ffonts.googleapis.com%2Fcss%3Ffamily%3DNoto%2BSerif%2BSC;fontSize=18;strokeWidth=2;startFill=0;" parent="1" edge="1">
          <mxGeometry width="50" height="50" relative="1" as="geometry">
            <mxPoint x="2663" y="1713" as="sourcePoint" />
            <mxPoint x="3631" y="1713" as="targetPoint" />
          </mxGeometry>
        </mxCell>
        <mxCell id="8ZXEwKc2KO_ZocW0R9eS-80" value="时间" style="text;align=center;verticalAlign=middle;resizable=0;points=[];autosize=1;strokeColor=none;fillColor=none;fontSize=28;fontFamily=Noto Serif SC;" parent="1" vertex="1">
          <mxGeometry x="3110" y="1729" width="66" height="38" as="geometry" />
        </mxCell>
        <mxCell id="8ZXEwKc2KO_ZocW0R9eS-81" value="" style="endArrow=none;dashed=1;shadow=0;fontFamily=Noto Serif SC;fontSource=https%3A%2F%2Ffonts.googleapis.com%2Fcss%3Ffamily%3DNoto%2BSerif%2BSC;fontSize=18;strokeWidth=2;fillColor=#f8cecc;strokeColor=#FF3333;" parent="1" edge="1">
          <mxGeometry width="50" height="50" relative="1" as="geometry">
            <mxPoint x="2702" y="1709.9999999999998" as="sourcePoint" />
            <mxPoint x="2702" y="1424" as="targetPoint" />
          </mxGeometry>
        </mxCell>
        <mxCell id="8ZXEwKc2KO_ZocW0R9eS-82" value="" style="endArrow=none;dashed=1;shadow=0;fontFamily=Noto Serif SC;fontSource=https%3A%2F%2Ffonts.googleapis.com%2Fcss%3Ffamily%3DNoto%2BSerif%2BSC;fontSize=18;strokeWidth=2;fillColor=#f8cecc;strokeColor=#FF3333;" parent="1" edge="1">
          <mxGeometry width="50" height="50" relative="1" as="geometry">
            <mxPoint x="2795" y="1713" as="sourcePoint" />
            <mxPoint x="2795" y="1420.9999999999998" as="targetPoint" />
          </mxGeometry>
        </mxCell>
        <mxCell id="8ZXEwKc2KO_ZocW0R9eS-83" value="较强帧" style="text;align=center;verticalAlign=middle;resizable=0;points=[];autosize=1;strokeColor=none;fillColor=none;fontSize=28;fontFamily=Noto Serif SC;" parent="1" vertex="1">
          <mxGeometry x="2586" y="1499.5" width="94" height="38" as="geometry" />
        </mxCell>
        <mxCell id="8ZXEwKc2KO_ZocW0R9eS-84" value="较弱帧" style="text;align=center;verticalAlign=middle;resizable=0;points=[];autosize=1;strokeColor=none;fillColor=none;fontSize=28;fontFamily=Noto Serif SC;" parent="1" vertex="1">
          <mxGeometry x="2586" y="1611" width="94" height="38" as="geometry" />
        </mxCell>
        <mxCell id="8ZXEwKc2KO_ZocW0R9eS-85" value="前导码" style="rounded=0;fontFamily=Noto Serif SC;fontSource=https%3A%2F%2Ffonts.googleapis.com%2Fcss%3Ffamily%3DNoto%2BSerif%2BSC;fontSize=28;strokeColor=#666666;fontColor=#333333;fillColor=#CCCCCC;" parent="1" vertex="1">
          <mxGeometry x="3298" y="1576" width="180" height="114.00000000000001" as="geometry" />
        </mxCell>
        <mxCell id="8ZXEwKc2KO_ZocW0R9eS-87" value="" style="shape=document;boundedLbl=1;shadow=0;sketch=0;hachureGap=-1;hachureAngle=-41;jiggle=1;curveFitting=21;simplification=0;sketchStyle=rough;fontSize=28;fillColor=#fff2cc;gradientDirection=south;rotation=-90;strokeColor=#d6b656;" parent="1" vertex="1">
          <mxGeometry x="3461" y="1593" width="114" height="80" as="geometry" />
        </mxCell>
        <mxCell id="8ZXEwKc2KO_ZocW0R9eS-88" value="" style="endArrow=none;dashed=1;shadow=0;fontFamily=Noto Serif SC;fontSource=https%3A%2F%2Ffonts.googleapis.com%2Fcss%3Ffamily%3DNoto%2BSerif%2BSC;fontSize=18;strokeWidth=2;fillColor=#f8cecc;strokeColor=#FF3333;" parent="1" edge="1">
          <mxGeometry width="50" height="50" relative="1" as="geometry">
            <mxPoint x="3086" y="1712.9999999999998" as="sourcePoint" />
            <mxPoint x="3086" y="1427" as="targetPoint" />
          </mxGeometry>
        </mxCell>
        <mxCell id="8ZXEwKc2KO_ZocW0R9eS-89" value="" style="rounded=0;fontFamily=Noto Serif SC;fontSource=https%3A%2F%2Ffonts.googleapis.com%2Fcss%3Ffamily%3DNoto%2BSerif%2BSC;fontSize=28;strokeColor=#6C8EBF;sketch=1;glass=0;fillStyle=auto;shadow=0;imageAspect=1;allowArrows=1;curveFitting=21;simplification=0;sketchStyle=rough;hachureAngle=-41;hachureGap=-1;jiggle=1;connectable=1;fixDash=0;collapsible=0;dropTarget=0;fillColor=#B3B3B3;" parent="1" vertex="1">
          <mxGeometry x="3298" y="1576" width="180" height="113" as="geometry" />
        </mxCell>
        <mxCell id="8ZXEwKc2KO_ZocW0R9eS-90" value="" style="shape=document;boundedLbl=1;shadow=0;sketch=1;hachureGap=-1;hachureAngle=-41;jiggle=1;curveFitting=21;simplification=0;sketchStyle=rough;fontSize=28;gradientDirection=south;rotation=-90;strokeColor=#d6b656;fillColor=#B3B3B3;" parent="1" vertex="1">
          <mxGeometry x="3461" y="1593" width="114" height="80" as="geometry" />
        </mxCell>
        <mxCell id="8ZXEwKc2KO_ZocW0R9eS-91" value="无效头" style="text;align=center;verticalAlign=middle;resizable=0;points=[];autosize=1;strokeColor=none;fillColor=none;fontSize=20;fontFamily=Noto Serif SC;" parent="1" vertex="1">
          <mxGeometry x="2999" y="1601" width="70" height="28" as="geometry" />
        </mxCell>
        <mxCell id="8ZXEwKc2KO_ZocW0R9eS-92" value="" style="endArrow=classic;html=1;fontSize=28;strokeWidth=2;" parent="1" edge="1">
          <mxGeometry width="50" height="50" relative="1" as="geometry">
            <mxPoint x="3514" y="1480" as="sourcePoint" />
            <mxPoint x="3466" y="1507" as="targetPoint" />
          </mxGeometry>
        </mxCell>
        <mxCell id="8ZXEwKc2KO_ZocW0R9eS-93" value="" style="endArrow=classic;html=1;fontSize=28;strokeWidth=2;" parent="1" edge="1">
          <mxGeometry width="50" height="50" relative="1" as="geometry">
            <mxPoint x="3551" y="1510" as="sourcePoint" />
            <mxPoint x="3525" y="1560.0000000000002" as="targetPoint" />
          </mxGeometry>
        </mxCell>
        <mxCell id="8ZXEwKc2KO_ZocW0R9eS-94" value="帧丢失" style="text;align=center;verticalAlign=middle;resizable=0;points=[];autosize=1;strokeColor=none;fillColor=none;fontSize=20;fontFamily=Noto Serif SC;" parent="1" vertex="1">
          <mxGeometry x="3532" y="1461" width="70" height="28" as="geometry" />
        </mxCell>
        <mxCell id="8ZXEwKc2KO_ZocW0R9eS-95" value="" style="endArrow=none;dashed=1;shadow=0;fontFamily=Noto Serif SC;fontSource=https%3A%2F%2Ffonts.googleapis.com%2Fcss%3Ffamily%3DNoto%2BSerif%2BSC;fontSize=18;strokeWidth=2;fillColor=#f8cecc;strokeColor=#FF3333;" parent="1" edge="1">
          <mxGeometry width="50" height="50" relative="1" as="geometry">
            <mxPoint x="3123" y="1713.9999999999998" as="sourcePoint" />
            <mxPoint x="3123" y="1428" as="targetPoint" />
          </mxGeometry>
        </mxCell>
        <mxCell id="8ZXEwKc2KO_ZocW0R9eS-96" value="" style="endArrow=none;dashed=1;shadow=0;fontFamily=Noto Serif SC;fontSource=https%3A%2F%2Ffonts.googleapis.com%2Fcss%3Ffamily%3DNoto%2BSerif%2BSC;fontSize=18;strokeWidth=2;fillColor=#f8cecc;strokeColor=#FF3333;" parent="1" edge="1">
          <mxGeometry width="50" height="50" relative="1" as="geometry">
            <mxPoint x="3450" y="1710.9999999999998" as="sourcePoint" />
            <mxPoint x="3450" y="1425" as="targetPoint" />
          </mxGeometry>
        </mxCell>
        <mxCell id="br2Q-HAS5eaCeN1AfLQ8-1" value="&lt;font style=&quot;font-size: 16px&quot;&gt;$$T_0^{SF_i}$$&lt;/font&gt;" style="rounded=0;whiteSpace=wrap;html=1;fillColor=#f5f5f5;fontColor=#333333;strokeColor=#666666;" parent="1" vertex="1">
          <mxGeometry x="568" y="1284" width="89" height="60" as="geometry" />
        </mxCell>
        <mxCell id="br2Q-HAS5eaCeN1AfLQ8-2" value="&lt;font style=&quot;font-size: 16px&quot;&gt;$$T_0^{SF_i}$$&lt;/font&gt;" style="rounded=0;whiteSpace=wrap;html=1;fillColor=#d5e8d4;strokeColor=#82b366;" parent="1" vertex="1">
          <mxGeometry x="657" y="1284" width="89" height="60" as="geometry" />
        </mxCell>
        <mxCell id="br2Q-HAS5eaCeN1AfLQ8-3" value="&lt;font style=&quot;font-size: 16px&quot;&gt;$$T_0^{SF_i}$$&lt;/font&gt;" style="rounded=0;whiteSpace=wrap;html=1;fillColor=#f5f5f5;fontColor=#333333;strokeColor=#666666;" parent="1" vertex="1">
          <mxGeometry x="746" y="1284" width="89" height="60" as="geometry" />
        </mxCell>
        <mxCell id="br2Q-HAS5eaCeN1AfLQ8-4" value="&lt;font style=&quot;font-size: 16px&quot;&gt;...&lt;/font&gt;" style="rounded=0;whiteSpace=wrap;html=1;fillColor=#f5f5f5;fontColor=#333333;strokeColor=#666666;" parent="1" vertex="1">
          <mxGeometry x="835" y="1284" width="89" height="60" as="geometry" />
        </mxCell>
        <mxCell id="br2Q-HAS5eaCeN1AfLQ8-5" value="&lt;font style=&quot;font-size: 16px&quot;&gt;$$T_0^{SF_i}$$&lt;/font&gt;" style="rounded=0;whiteSpace=wrap;html=1;fillColor=#f5f5f5;fontColor=#333333;strokeColor=#666666;" parent="1" vertex="1">
          <mxGeometry x="924" y="1284" width="89" height="60" as="geometry" />
        </mxCell>
        <mxCell id="br2Q-HAS5eaCeN1AfLQ8-6" value="&lt;font style=&quot;font-size: 16px&quot;&gt;$$T_0^{SF_j}$$&lt;/font&gt;" style="rounded=0;whiteSpace=wrap;html=1;fillColor=#f5f5f5;fontColor=#333333;strokeColor=#666666;" parent="1" vertex="1">
          <mxGeometry x="568" y="1362" width="89" height="60" as="geometry" />
        </mxCell>
        <mxCell id="br2Q-HAS5eaCeN1AfLQ8-7" value="&lt;font style=&quot;font-size: 16px&quot;&gt;$$T_0^{SF_j}$$&lt;/font&gt;" style="rounded=0;whiteSpace=wrap;html=1;fillColor=#f5f5f5;fontColor=#333333;strokeColor=#666666;" parent="1" vertex="1">
          <mxGeometry x="657" y="1362" width="89" height="60" as="geometry" />
        </mxCell>
        <mxCell id="br2Q-HAS5eaCeN1AfLQ8-8" value="&lt;font style=&quot;font-size: 16px&quot;&gt;$$T_0^{SF_j}$$&lt;/font&gt;" style="rounded=0;whiteSpace=wrap;html=1;fillColor=#fff2cc;strokeColor=#d6b656;" parent="1" vertex="1">
          <mxGeometry x="746" y="1362" width="89" height="60" as="geometry" />
        </mxCell>
        <mxCell id="br2Q-HAS5eaCeN1AfLQ8-9" value="&lt;font style=&quot;font-size: 16px&quot;&gt;...&lt;/font&gt;" style="rounded=0;whiteSpace=wrap;html=1;fillColor=#f5f5f5;fontColor=#333333;strokeColor=#666666;" parent="1" vertex="1">
          <mxGeometry x="835" y="1362" width="89" height="60" as="geometry" />
        </mxCell>
        <mxCell id="br2Q-HAS5eaCeN1AfLQ8-10" value="&lt;font style=&quot;font-size: 16px&quot;&gt;$$T_0^{SF_j}$$&lt;/font&gt;" style="rounded=0;whiteSpace=wrap;html=1;fillColor=#f5f5f5;fontColor=#333333;strokeColor=#666666;" parent="1" vertex="1">
          <mxGeometry x="924" y="1362" width="89" height="60" as="geometry" />
        </mxCell>
        <mxCell id="br2Q-HAS5eaCeN1AfLQ8-11" value="$$S_i$$" style="text;html=1;align=center;verticalAlign=middle;resizable=0;points=[];autosize=1;strokeColor=none;fillColor=none;fontSize=16;" parent="1" vertex="1">
          <mxGeometry x="499" y="1302.5" width="69" height="23" as="geometry" />
        </mxCell>
        <mxCell id="br2Q-HAS5eaCeN1AfLQ8-12" value="$$S_j$$" style="text;html=1;align=center;verticalAlign=middle;resizable=0;points=[];autosize=1;strokeColor=none;fillColor=none;fontSize=16;" parent="1" vertex="1">
          <mxGeometry x="499" y="1380.5" width="69" height="23" as="geometry" />
        </mxCell>
        <mxCell id="br2Q-HAS5eaCeN1AfLQ8-13" value="$$T_s$$" style="text;html=1;align=center;verticalAlign=middle;resizable=0;points=[];autosize=1;strokeColor=none;fillColor=none;fontSize=16;" parent="1" vertex="1">
          <mxGeometry x="754" y="1432" width="73" height="23" as="geometry" />
        </mxCell>
        <mxCell id="br2Q-HAS5eaCeN1AfLQ8-14" value="" style="endArrow=none;startArrow=classic;html=1;rounded=0;fontSize=16;endFill=0;" parent="1" edge="1">
          <mxGeometry width="50" height="50" relative="1" as="geometry">
            <mxPoint x="569" y="1443" as="sourcePoint" />
            <mxPoint x="770" y="1442.7460674157303" as="targetPoint" />
          </mxGeometry>
        </mxCell>
        <mxCell id="br2Q-HAS5eaCeN1AfLQ8-15" value="" style="endArrow=none;html=1;rounded=0;fontSize=16;" parent="1" edge="1">
          <mxGeometry width="50" height="50" relative="1" as="geometry">
            <mxPoint x="568" y="1458" as="sourcePoint" />
            <mxPoint x="568" y="1428" as="targetPoint" />
          </mxGeometry>
        </mxCell>
        <mxCell id="br2Q-HAS5eaCeN1AfLQ8-16" value="" style="endArrow=none;html=1;rounded=0;fontSize=16;" parent="1" edge="1">
          <mxGeometry width="50" height="50" relative="1" as="geometry">
            <mxPoint x="1013" y="1456" as="sourcePoint" />
            <mxPoint x="1013" y="1426" as="targetPoint" />
          </mxGeometry>
        </mxCell>
        <mxCell id="br2Q-HAS5eaCeN1AfLQ8-17" value="" style="endArrow=classic;startArrow=none;html=1;rounded=0;fontSize=16;endFill=1;startFill=0;" parent="1" edge="1">
          <mxGeometry width="50" height="50" relative="1" as="geometry">
            <mxPoint x="812" y="1442.25" as="sourcePoint" />
            <mxPoint x="1013" y="1441.9960674157303" as="targetPoint" />
          </mxGeometry>
        </mxCell>
      </root>
    </mxGraphModel>
  </diagram>
  <diagram id="mim_1WYpZAPZs7mSV3hH" name="Page-2">
    <mxGraphModel dx="731" dy="-798" grid="1" gridSize="10" guides="1" tooltips="1" connect="1" arrows="1" fold="1" page="1" pageScale="1" pageWidth="530" pageHeight="200" math="1" shadow="0">
      <root>
        <mxCell id="b-INEZnMfn0FdBoXEqRz-0" />
        <mxCell id="b-INEZnMfn0FdBoXEqRz-1" parent="b-INEZnMfn0FdBoXEqRz-0" />
        <mxCell id="b-INEZnMfn0FdBoXEqRz-2" value="&lt;font style=&quot;font-size: 16px&quot;&gt;$$T_0^{SF_i}$$&lt;/font&gt;" style="rounded=0;whiteSpace=wrap;html=1;fillColor=#f5f5f5;fontColor=#333333;strokeColor=#000000;" parent="b-INEZnMfn0FdBoXEqRz-1" vertex="1">
          <mxGeometry x="69" y="1213" width="89" height="60" as="geometry" />
        </mxCell>
        <mxCell id="b-INEZnMfn0FdBoXEqRz-3" value="&lt;font style=&quot;font-size: 16px&quot;&gt;$$T_0^{SF_i}$$&lt;/font&gt;" style="rounded=0;whiteSpace=wrap;html=1;fillColor=#d5e8d4;strokeColor=#000000;" parent="b-INEZnMfn0FdBoXEqRz-1" vertex="1">
          <mxGeometry x="158" y="1213" width="89" height="60" as="geometry" />
        </mxCell>
        <mxCell id="b-INEZnMfn0FdBoXEqRz-4" value="&lt;font style=&quot;font-size: 16px&quot;&gt;$$T_0^{SF_i}$$&lt;/font&gt;" style="rounded=0;whiteSpace=wrap;html=1;fillColor=#f5f5f5;fontColor=#333333;strokeColor=#000000;" parent="b-INEZnMfn0FdBoXEqRz-1" vertex="1">
          <mxGeometry x="247" y="1213" width="89" height="60" as="geometry" />
        </mxCell>
        <mxCell id="b-INEZnMfn0FdBoXEqRz-5" value="&lt;font style=&quot;font-size: 16px&quot;&gt;...&lt;/font&gt;" style="rounded=0;whiteSpace=wrap;html=1;fillColor=#f5f5f5;fontColor=#333333;strokeColor=#000000;" parent="b-INEZnMfn0FdBoXEqRz-1" vertex="1">
          <mxGeometry x="336" y="1213" width="89" height="60" as="geometry" />
        </mxCell>
        <mxCell id="b-INEZnMfn0FdBoXEqRz-6" value="&lt;font style=&quot;font-size: 16px&quot;&gt;$$T_0^{SF_i}$$&lt;/font&gt;" style="rounded=0;whiteSpace=wrap;html=1;fillColor=#f5f5f5;fontColor=#333333;strokeColor=#000000;" parent="b-INEZnMfn0FdBoXEqRz-1" vertex="1">
          <mxGeometry x="425" y="1213" width="89" height="60" as="geometry" />
        </mxCell>
        <mxCell id="b-INEZnMfn0FdBoXEqRz-7" value="&lt;font style=&quot;font-size: 16px&quot;&gt;$$T_0^{SF_j}$$&lt;/font&gt;" style="rounded=0;whiteSpace=wrap;html=1;fillColor=#f5f5f5;fontColor=#333333;strokeColor=#000000;" parent="b-INEZnMfn0FdBoXEqRz-1" vertex="1">
          <mxGeometry x="69" y="1291" width="89" height="60" as="geometry" />
        </mxCell>
        <mxCell id="b-INEZnMfn0FdBoXEqRz-8" value="&lt;font style=&quot;font-size: 16px&quot;&gt;$$T_0^{SF_j}$$&lt;/font&gt;" style="rounded=0;whiteSpace=wrap;html=1;fillColor=#f8cecc;strokeColor=#000000;" parent="b-INEZnMfn0FdBoXEqRz-1" vertex="1">
          <mxGeometry x="158" y="1291" width="89" height="60" as="geometry" />
        </mxCell>
        <mxCell id="b-INEZnMfn0FdBoXEqRz-9" value="&lt;font style=&quot;font-size: 16px&quot;&gt;$$T_0^{SF_j}$$&lt;/font&gt;" style="rounded=0;whiteSpace=wrap;html=1;fillColor=#fff2cc;strokeColor=#000000;" parent="b-INEZnMfn0FdBoXEqRz-1" vertex="1">
          <mxGeometry x="247" y="1291" width="89" height="60" as="geometry" />
        </mxCell>
        <mxCell id="b-INEZnMfn0FdBoXEqRz-10" value="&lt;font style=&quot;font-size: 16px&quot;&gt;...&lt;/font&gt;" style="rounded=0;whiteSpace=wrap;html=1;fillColor=#f5f5f5;fontColor=#333333;strokeColor=#000000;" parent="b-INEZnMfn0FdBoXEqRz-1" vertex="1">
          <mxGeometry x="336" y="1291" width="89" height="60" as="geometry" />
        </mxCell>
        <mxCell id="b-INEZnMfn0FdBoXEqRz-11" value="&lt;font style=&quot;font-size: 16px&quot;&gt;$$T_0^{SF_j}$$&lt;/font&gt;" style="rounded=0;whiteSpace=wrap;html=1;fillColor=#f5f5f5;fontColor=#333333;strokeColor=#000000;" parent="b-INEZnMfn0FdBoXEqRz-1" vertex="1">
          <mxGeometry x="425" y="1291" width="89" height="60" as="geometry" />
        </mxCell>
        <mxCell id="b-INEZnMfn0FdBoXEqRz-12" value="$$S_i$$" style="text;html=1;align=center;verticalAlign=middle;resizable=0;points=[];autosize=1;strokeColor=none;fillColor=none;fontSize=16;" parent="b-INEZnMfn0FdBoXEqRz-1" vertex="1">
          <mxGeometry y="1231.5" width="69" height="23" as="geometry" />
        </mxCell>
        <mxCell id="b-INEZnMfn0FdBoXEqRz-13" value="$$S_j$$" style="text;html=1;align=center;verticalAlign=middle;resizable=0;points=[];autosize=1;strokeColor=none;fillColor=none;fontSize=16;" parent="b-INEZnMfn0FdBoXEqRz-1" vertex="1">
          <mxGeometry y="1309.5" width="69" height="23" as="geometry" />
        </mxCell>
        <mxCell id="b-INEZnMfn0FdBoXEqRz-14" value="$$T_s$$" style="text;html=1;align=center;verticalAlign=middle;resizable=0;points=[];autosize=1;strokeColor=none;fillColor=none;fontSize=16;" parent="b-INEZnMfn0FdBoXEqRz-1" vertex="1">
          <mxGeometry x="255" y="1361" width="73" height="23" as="geometry" />
        </mxCell>
        <mxCell id="b-INEZnMfn0FdBoXEqRz-15" value="" style="endArrow=none;startArrow=classic;html=1;rounded=0;fontSize=16;endFill=0;" parent="b-INEZnMfn0FdBoXEqRz-1" edge="1">
          <mxGeometry width="50" height="50" relative="1" as="geometry">
            <mxPoint x="70" y="1372" as="sourcePoint" />
            <mxPoint x="271" y="1371.74606741573" as="targetPoint" />
          </mxGeometry>
        </mxCell>
        <mxCell id="b-INEZnMfn0FdBoXEqRz-16" value="" style="endArrow=none;html=1;rounded=0;fontSize=16;" parent="b-INEZnMfn0FdBoXEqRz-1" edge="1">
          <mxGeometry width="50" height="50" relative="1" as="geometry">
            <mxPoint x="69" y="1387" as="sourcePoint" />
            <mxPoint x="69" y="1357" as="targetPoint" />
          </mxGeometry>
        </mxCell>
        <mxCell id="b-INEZnMfn0FdBoXEqRz-17" value="" style="endArrow=none;html=1;rounded=0;fontSize=16;" parent="b-INEZnMfn0FdBoXEqRz-1" edge="1">
          <mxGeometry width="50" height="50" relative="1" as="geometry">
            <mxPoint x="514" y="1384.9999999999998" as="sourcePoint" />
            <mxPoint x="514" y="1354.9999999999998" as="targetPoint" />
          </mxGeometry>
        </mxCell>
        <mxCell id="b-INEZnMfn0FdBoXEqRz-18" value="" style="endArrow=classic;startArrow=none;html=1;rounded=0;fontSize=16;endFill=1;startFill=0;" parent="b-INEZnMfn0FdBoXEqRz-1" edge="1">
          <mxGeometry width="50" height="50" relative="1" as="geometry">
            <mxPoint x="313" y="1371.2499999999998" as="sourcePoint" />
            <mxPoint x="514" y="1370.9960674157305" as="targetPoint" />
          </mxGeometry>
        </mxCell>
      </root>
    </mxGraphModel>
  </diagram>
  <diagram id="_y_kaynnSG0hUMukbdeW" name="第 3 页">
    <mxGraphModel dx="731" dy="-798" grid="1" gridSize="10" guides="1" tooltips="1" connect="1" arrows="1" fold="1" page="1" pageScale="1" pageWidth="470" pageHeight="120" math="1" shadow="0">
      <root>
        <mxCell id="Lc8iVFTi8RPP7_UIKSEg-0" />
        <mxCell id="Lc8iVFTi8RPP7_UIKSEg-1" parent="Lc8iVFTi8RPP7_UIKSEg-0" />
        <mxCell id="eJx-Q-jJNh-b7vX7SRHz-17" value="&lt;font style=&quot;font-size: 16px&quot;&gt;$$T_0^{SF_j}$$&lt;/font&gt;" style="rounded=0;whiteSpace=wrap;html=1;fillColor=#f8cecc;strokeColor=#000000;" parent="Lc8iVFTi8RPP7_UIKSEg-1" vertex="1">
          <mxGeometry x="79" y="1220" width="144" height="50" as="geometry" />
        </mxCell>
        <mxCell id="eJx-Q-jJNh-b7vX7SRHz-18" value="&lt;font style=&quot;font-size: 16px&quot;&gt;$$T_0^{SF_j}$$&lt;/font&gt;" style="rounded=0;whiteSpace=wrap;html=1;fillColor=#f8cecc;strokeColor=#000000;" parent="Lc8iVFTi8RPP7_UIKSEg-1" vertex="1">
          <mxGeometry x="223" y="1220" width="144" height="50" as="geometry" />
        </mxCell>
        <mxCell id="eJx-Q-jJNh-b7vX7SRHz-19" value="$$\tau-T_0^{SF_i}$$" style="text;html=1;align=center;verticalAlign=middle;resizable=0;points=[];autosize=1;strokeColor=none;fillColor=none;fontSize=16;" parent="Lc8iVFTi8RPP7_UIKSEg-1" vertex="1">
          <mxGeometry y="1280" width="160" height="20" as="geometry" />
        </mxCell>
        <mxCell id="eJx-Q-jJNh-b7vX7SRHz-20" value="$$\tau+T_0^{SF_i}$$" style="text;html=1;align=center;verticalAlign=middle;resizable=0;points=[];autosize=1;strokeColor=none;fillColor=none;fontSize=16;" parent="Lc8iVFTi8RPP7_UIKSEg-1" vertex="1">
          <mxGeometry x="288" y="1270" width="170" height="20" as="geometry" />
        </mxCell>
        <mxCell id="eJx-Q-jJNh-b7vX7SRHz-21" value="$$\tau$$" style="text;html=1;align=center;verticalAlign=middle;resizable=0;points=[];autosize=1;strokeColor=none;fillColor=none;fontSize=16;" parent="Lc8iVFTi8RPP7_UIKSEg-1" vertex="1">
          <mxGeometry x="183" y="1280" width="80" height="20" as="geometry" />
        </mxCell>
      </root>
    </mxGraphModel>
  </diagram>
  <diagram id="WzbSEwf_yoNOSL9PTaZk" name="第 4 页">
    <mxGraphModel dx="860" dy="473" grid="1" gridSize="10" guides="1" tooltips="1" connect="1" arrows="1" fold="1" page="1" pageScale="1" pageWidth="3300" pageHeight="4681" math="0" shadow="0">
      <root>
        <mxCell id="KPBmgC75sd1Jaymtd4vv-0" />
        <mxCell id="KPBmgC75sd1Jaymtd4vv-1" parent="KPBmgC75sd1Jaymtd4vv-0" />
      </root>
    </mxGraphModel>
  </diagram>
</mxfile>
